<?xml version="1.0" encoding="UTF-8"?>
<!DOCTYPE svg PUBLIC "-//W3C//DTD SVG 1.1//EN" "http://www.w3.org/Graphics/SVG/1.1/DTD/svg11.dtd">
<!-- Creator: CorelDRAW 2019 (64-Bit) -->
<svg xmlns="http://www.w3.org/2000/svg" xml:space="preserve" width="36.2363mm" height="115.896mm" version="1.1" style="shape-rendering:geometricPrecision; text-rendering:geometricPrecision; image-rendering:optimizeQuality; fill-rule:evenodd; clip-rule:evenodd"
viewBox="0 0 775.11 2479.07"
 xmlns:xlink="http://www.w3.org/1999/xlink">
 <defs>
  <style type="text/css">
   <![CDATA[
    .fil1 {fill:#C5C6C6;fill-rule:nonzero}
    .fil0 {fill:#C3970E;fill-rule:nonzero}
   ]]>
  </style>
 </defs>
 <g id="Vrstva_x0020_1">
  <metadata id="CorelCorpID_0Corel-Layer"/>
  <path class="fil0" d="M393.01 2357.35c0.6,-7.06 -5.58,-10.87 -5.58,-10.87 0,0 -6.47,3.82 -6.17,10.87 0.6,6.16 6.17,9.11 6.17,9.11 0,0 5.3,-2.95 5.58,-9.11zm-17.33 64.68c0,24.11 10.58,43.81 10.87,57.05 0.29,-13.23 10.87,-32.94 10.87,-57.05 0,-16.16 -10.87,-14.99 -10.87,-14.99 0,0 -10.87,-1.18 -10.87,14.99zm25.57 -65.85c0,18.53 -12.35,9.12 -12.35,26.76 0,17.34 20,16.75 20,16.75l0 -12.93c0,-7.94 9.12,-10.88 9.12,-27.64 0,-24.69 -30.58,-29.11 -30.58,-43.81 0,14.7 -30.57,19.11 -30.57,43.81 0,16.76 9.4,19.7 9.4,27.64l0 12.93c0,0 19.4,0.59 19.4,-16.75 0,-17.64 -12.63,-8.23 -12.63,-26.76 0,-15.59 14.4,-21.75 14.4,-21.75 0,0 13.82,6.16 13.82,21.75zm48.51 -26.75c39.68,0 54.1,-20.58 63.21,-34.99 9.7,-14.99 -1.19,-6.47 -1.19,-6.47 0,0 -14.7,16.17 -28.81,16.17 -23.81,0 -20.87,-14.7 -37.93,-12.94 -20.88,2.94 -5.88,24.11 -5.88,24.11 0,0 -27.63,0 -30.28,-20.58 -1.18,-8.23 10.29,-12.35 10.29,-12.35l0 -6.77c0,0 -24.4,-2.93 -31.75,-33.21 -7.05,30.28 -31.75,33.21 -31.75,33.21l0 6.77c0,0 11.16,4.11 10.58,12.35 -3.23,20.58 -30.28,20.58 -30.28,20.58 0,0 14.4,-21.17 -6.47,-24.11 -16.76,-1.76 -14.39,12.94 -38.21,12.94 -14.12,0 -28.52,-16.17 -28.52,-16.17 0,0 -11.18,-8.53 -1.18,6.47 9.11,14.41 23.81,34.99 62.91,34.99 39.99,0 58.51,-33.82 62.91,-58.22 4.41,24.4 22.64,58.22 62.34,58.22z"/>
  <polygon class="fil0" points="350.12,2258.5 0.01,2258.5 0.01,2249.22 350.12,2249.22 "/>
  <polygon class="fil0" points="774.44,2258.5 424.33,2258.5 424.33,2249.22 774.44,2249.22 "/>
  <polygon class="fil0" points="774.44,2234.8 -0,2234.8 -0,2205.67 774.44,2205.67 "/>
  <path class="fil0" d="M381.43 121.73c-0.6,7.05 5.59,10.87 5.59,10.87 0,0 6.47,-3.82 6.17,-10.87 -0.59,-6.17 -6.17,-9.12 -6.17,-9.12 0,0 -5.3,2.94 -5.59,9.12zm17.33 -64.69c0,-24.1 -10.58,-43.8 -10.87,-57.04 -0.3,13.24 -10.87,32.94 -10.87,57.04 0,16.17 10.87,14.99 10.87,14.99 0,0 10.87,1.18 10.87,-14.99zm-25.57 65.86c0,-18.53 12.35,-9.12 12.35,-26.76 0,-17.35 -20,-16.75 -20,-16.75l0 12.93c0,7.94 -9.11,10.87 -9.11,27.63 0,24.7 30.58,29.11 30.58,43.81 0,-14.7 30.57,-19.11 30.57,-43.81 0,-16.76 -9.4,-19.69 -9.4,-27.63l0 -12.93c0,0 -19.4,-0.6 -19.4,16.75 0,17.64 12.63,8.23 12.63,26.76 0,15.58 -14.4,21.76 -14.4,21.76 0,0 -13.82,-6.17 -13.82,-21.76zm-48.51 26.75c-39.69,0 -54.1,20.59 -63.21,34.99 -9.7,14.99 1.18,6.47 1.18,6.47 0,0 14.7,-16.17 28.81,-16.17 23.82,0 20.87,14.7 37.93,12.94 20.88,-2.94 5.88,-24.11 5.88,-24.11 0,0 27.63,0 30.28,20.57 1.19,8.23 -10.28,12.35 -10.28,12.35l0 6.77c0,0 24.4,2.93 31.75,33.21 7.05,-30.28 31.75,-33.21 31.75,-33.21l0 -6.77c0,0 -11.16,-4.12 -10.58,-12.35 3.23,-20.57 30.28,-20.57 30.28,-20.57 0,0 -14.4,21.17 6.47,24.11 16.76,1.76 14.39,-12.94 38.21,-12.94 14.12,0 28.52,16.17 28.52,16.17 0,0 11.17,8.53 1.18,-6.47 -9.12,-14.4 -23.82,-34.99 -62.91,-34.99 -39.99,0 -58.51,33.81 -62.91,58.22 -4.41,-24.4 -22.64,-58.22 -62.34,-58.22z"/>
  <polygon class="fil0" points="424.33,220.57 774.44,220.57 774.44,229.85 424.33,229.85 "/>
  <polygon class="fil0" points="-0,220.57 350.12,220.57 350.12,229.85 -0,229.85 "/>
  <polygon class="fil0" points="-0,244.26 774.44,244.26 774.44,273.41 -0,273.41 "/>
  <path class="fil1" d="M68.84 357.77c0,-3.47 -0.91,-6.19 -2.72,-8.16 -1.82,-1.96 -4.53,-3.01 -8.15,-3.01l-25.66 0 0 91.17c0,4.07 1.21,6.94 3.77,8.6 1.05,0.91 2.26,1.51 3.63,1.81 1.35,0.45 3.17,0.61 5.43,0.61l11.18 0c4.07,0 6.94,-1.07 8.9,-2.42 2.41,-1.66 3.62,-4.53 3.62,-8.6l0 -80zm24.91 76.53c0,6.19 -1.81,10.72 -5.28,13.58 -3.63,3.02 -9.51,4.53 -17.51,4.53l-67.17 0 0 -3.61c3.17,0 5.44,-0.46 6.65,-1.52 1.35,-1.21 1.96,-3.62 1.96,-7.39l0 -84.23c0,-3.77 -0.61,-6.2 -1.96,-7.4 -1.21,-1.06 -3.48,-1.51 -6.65,-1.51l0 -3.62 67.17 0c8,0 13.89,1.5 17.51,4.53 3.47,2.87 5.28,7.39 5.28,13.58l0 73.06z"/>
  <path class="fil1" d="M164.93 305.69l11.47 0 0 4.68 -20.53 17.21 -4.98 0 0 -2.56 14.04 -19.33zm1.66 100.84l-7.4 -24.6 -9.96 29.28 17.36 -4.68zm-20.53 45.89l-35.47 0 0 -3.47c2.72,0 4.83,-0.76 6.35,-2.41 1.35,-1.36 2.56,-3.77 3.77,-7.09l6.34 -19.17 -1.52 0.3c-3.92,1.05 -5.89,3.17 -5.89,6.64l-2.56 0.6 0 -8.46 11.17 -2.87 20.37 -61.13c1.97,-5.74 -0.3,-8.61 -6.49,-8.61l0 -3.62 17.36 0c3.17,0 5.74,0.6 7.4,1.96 1.65,1.36 2.87,3.33 3.77,6.2l6.34 21.28 21.43 70.8c0.61,1.96 1.52,3.47 2.73,4.22 1.05,0.76 2.87,1.21 5.28,1.21l0 3.62 -37.44 0 0 -3.62c2.87,0 4.83,-0.3 6.04,-0.91 1.96,-1.06 2.26,-3.92 0.9,-8.6l-9.05 -29.44 -19.63 5.13 -8.3 24.91c-1.21,3.62 -1.21,6.04 0.15,7.39 1.06,1.06 3.47,1.66 6.94,1.66l0 3.47z"/>
  <path class="fil1" d="M316.97 452.42l-28.38 0 -21.14 -51.77c-1.35,-3.18 -3.61,-4.38 -7.09,-3.48l-1.21 -3.02 29.73 -8c3.17,-0.91 4.68,-3.17 4.68,-6.79l0 -21.58c0,-4.08 -1.35,-7.1 -3.92,-8.91 -2.27,-1.36 -5.44,-2.11 -9.51,-2.11l-25.21 0 0 93.14c0,3.77 0.76,6.19 2.12,7.4 1.05,1.05 3.32,1.51 6.49,1.51l0 3.62 -38.8 0 0 -3.62c3.17,0 5.44,-0.45 6.65,-1.51 1.36,-1.21 1.96,-3.62 1.96,-7.4l0 -84.24c0,-3.77 -0.6,-6.19 -1.96,-7.39 -1.21,-1.06 -3.48,-1.51 -6.65,-1.51l0 -3.62 81.67 0c2.41,0 4.53,0.75 6.19,2.11 1.66,1.66 2.56,3.77 2.56,6.34l0 25.81c0,1.36 -0.76,2.87 -2.11,4.23 -1.36,1.36 -2.87,2.11 -4.22,2.56l-0.15 0 -0.15 0 -22.8 6.19 20.84 50.88c0.9,2.27 2.26,4.23 3.92,5.59 1.81,1.36 3.92,1.96 6.49,1.96l0 3.62z"/>
  <path class="fil1" d="M436.03 452.42l-28.83 0 -29.14 -51.77c-2.26,0 -3.92,0.76 -5.28,2.41 -1.21,1.36 -1.96,3.02 -2.1,4.99l-2.57 0.75 0 -8.6 32.46 -57.06 29.74 0 0 3.62 -0.76 0c-4.38,0 -7.7,1.81 -9.96,5.59l-23.1 40c18.71,32.15 28.38,48.76 28.98,49.52 2.87,4.68 6.49,6.94 10.56,6.94l0 3.62zm-100.99 -109.29l38.95 0 0 3.62c-3.31,0 -5.58,0.45 -6.64,1.51 -1.35,1.21 -2.11,3.62 -2.11,7.39l0 84.24c0,3.77 0.76,6.19 2.11,7.4 1.06,1.05 3.33,1.51 6.64,1.51l0 3.62 -38.95 0 0 -3.62c3.17,0 5.44,-0.45 6.65,-1.51 1.36,-1.21 1.96,-3.62 1.96,-7.4l0 -84.24c0,-3.77 -0.61,-6.19 -1.96,-7.39 -1.21,-1.06 -3.48,-1.51 -6.65,-1.51l0 -3.62z"/>
  <path class="fil1" d="M506.54 448.8c2.1,0 3.92,-0.15 5.28,-0.6 1.36,-0.3 2.72,-0.9 3.77,-1.81 2.41,-1.66 3.62,-4.53 3.62,-8.6l0 -80.01c0,-6.79 -3.62,-10.42 -10.71,-11.02l-9.52 0c-9.81,0 -18.86,0 -27.01,-0.15l0 91.18c0,4.07 1.21,6.94 3.77,8.6 1.06,0.91 2.26,1.51 3.61,1.81 1.37,0.45 3.18,0.6 5.44,0.6l21.74 0zm32.6 -14.49c0,6.18 -1.81,10.71 -5.28,13.58 -3.61,3.02 -9.51,4.53 -17.51,4.53l-41.37 0c-8.15,0 -14.03,-1.51 -17.51,-4.53 -3.47,-2.87 -5.28,-7.4 -5.28,-13.58l0 -73.07c0,-6.19 1.81,-10.71 5.28,-13.58 3.47,-3.02 9.36,-4.53 17.36,-4.53l42.27 0c7.7,0 13.28,1.51 16.91,4.68 3.47,2.87 5.13,7.24 5.13,13.43l0 73.07z"/>
  <path class="fil1" d="M622.25 343.13l42.58 0 0 3.62c-2.57,0 -4.99,0.45 -7.25,1.36 -2.72,1.06 -4.53,2.87 -5.43,5.43l-27.02 87.85c-1.36,4.39 -0.6,6.65 2.26,7.1 1.66,0.15 3.18,0.3 4.53,0.3l0 3.62 -42.72 0 0 -3.62c3.17,0 5.28,-0.3 6.34,-0.9 1.36,-0.91 1.51,-2.57 0.76,-4.98l-27.78 -89.37c-1.36,-4.53 -5.58,-6.79 -12.53,-6.79l0 -3.62 21.74 0c3.02,0 5.89,0.75 8.45,2.41 2.72,1.66 4.53,3.92 5.28,6.64l19.78 63.25 17.81 -60.54c0.76,-3.17 0.76,-5.28 0,-6.34 -0.9,-1.21 -3.17,-1.81 -6.79,-1.81l0 -3.62z"/>
  <path class="fil1" d="M728.48 305.69l11.48 0 0 4.68 -20.53 17.21 -4.98 0 0 -2.56 14.03 -19.33zm15.55 119.86l18.87 -4.98 -4.07 31.84 -75.78 0 0 -3.62c3.16,0 5.43,-0.45 6.64,-1.51 1.36,-1.21 1.96,-3.62 1.96,-7.39l0 -27.93c-2.26,0.75 -3.62,1.21 -4.07,1.51 -1.21,1.06 -1.81,2.73 -1.81,5.13l-2.57 0.76 0 -8.6 8.45 -2.26 0 -52.83c0,-3.77 -0.6,-6.19 -1.96,-7.39 -1.21,-1.07 -3.48,-1.52 -6.64,-1.52l0 -3.62 78.19 0 0 27.17 -17.51 4.68 0 -3.62c3.02,-1.06 4.53,-3.17 4.53,-6.49l0 -9.66c0,-3.17 -0.91,-5.44 -2.72,-6.79 -1.51,-1.06 -3.77,-1.67 -6.94,-1.67l-25.37 0 0 56.16 20.53 -5.58c2.11,-0.6 3.63,-1.21 4.38,-1.66 1.36,-1.06 2.12,-2.72 2.12,-4.98l2.41 -0.75 0 13.88 -2.41 0.75c-0.16,-1.96 -0.61,-3.32 -1.66,-3.92 -0.76,-0.45 -1.81,-0.6 -3.18,-0.15l-22.19 6.04 0 31.25c0,4.07 1.36,7.09 3.93,8.9 2.11,1.36 5.28,2.11 9.36,2.11l12.68 0c2.87,0 4.84,-0.3 5.88,-0.91 1.51,-1.06 2.57,-2.87 3.03,-5.43l1.35 -9.21c0.46,-2.87 0.16,-4.53 -0.75,-4.98 -0.6,-0.45 -2.12,-0.3 -4.68,0.45l0 -3.17z"/>
  <path class="fil1" d="M71.87 560.24l0 -13.1 113.02 0 0 10.53c-54.06,97.56 -80.96,146.7 -81.2,146.93 -1.4,4.21 -0.23,6.31 3.27,6.31l65.05 0c3.04,0 4.44,-2.57 4.44,-7.48l5.39 0 0 13.1 -112.78 0 0 -10.53 80.95 -146.93c1.64,-4.21 0.47,-6.32 -3.04,-6.32l-66.21 0c-3.05,0 -4.44,2.57 -4.44,7.48l-4.45 0z"/>
  <path class="fil1" d="M300.03 647.51c0,-5.62 0,-9.12 -0.23,-10.29 -0.24,-2.35 -1.41,-4.22 -3.05,-5.85 -2.34,-2.11 -7.49,-2.33 -15.67,-0.24l-37.67 9.36 0 53.35c0,6.32 2.1,10.76 6.08,13.81 3.52,2.1 8.43,3.27 14.74,3.27l16.84 0c5.38,0 9.83,-1.17 13.33,-3.74 3.74,-2.57 5.62,-7.01 5.62,-13.33l0 -46.33zm-56.62 -95.22l0 82.58 43.75 -10.52c5.85,-1.41 9.36,-3.74 10.99,-7.26 1.17,-2.34 1.87,-6.79 1.87,-13.57l0 -34.4c0,-6.55 -1.64,-10.99 -4.67,-13.57 -2.81,-2.1 -7.73,-3.27 -14.74,-3.27l-37.2 0zm-44.22 -5.15l104.12 0c11.69,0 20.59,2.57 26.67,7.72 5.85,4.68 8.66,11.46 8.66,20.35l0 21.76c0,12.86 -5.38,21.05 -15.91,24.8 10.53,3.74 15.91,12.16 15.91,25.27l0 41.41c0,9.59 -2.81,16.61 -8.19,21.06 -5.62,4.68 -14.74,7.01 -27.14,7.01l-104.12 0 0 -5.62c4.91,0 8.42,-0.69 10.29,-2.33 2.1,-1.87 3.04,-5.61 3.04,-11.47l0 -47.96c-3.04,0.93 -5.14,1.87 -6.32,2.81 -1.87,1.64 -2.81,3.98 -2.81,7.25l-3.98 1.17 0 -13.1 13.1 -3.51 0 -77.21c0,-5.85 -0.94,-9.59 -3.04,-11.46 -1.87,-1.64 -5.38,-2.34 -10.29,-2.34l0 -5.62z"/>
  <path class="fil1" d="M439.56 710.92c3.28,0 6.09,-0.24 8.19,-0.94 2.1,-0.47 4.21,-1.4 5.84,-2.81 3.74,-2.57 5.61,-7.02 5.61,-13.34l0 -124c0,-10.53 -5.61,-16.14 -16.61,-17.08l-14.74 0c-15.21,0 -29.25,0 -41.88,-0.24l0 141.32c0,6.32 1.87,10.77 5.85,13.34 1.64,1.4 3.52,2.34 5.61,2.81 2.11,0.7 4.91,0.94 8.42,0.94l33.69 0zm50.54 -22.47c0,9.6 -2.81,16.62 -8.19,21.06 -5.62,4.69 -14.74,7.02 -27.14,7.02l-64.11 0c-12.63,0 -21.76,-2.33 -27.14,-7.02 -5.39,-4.44 -8.19,-11.46 -8.19,-21.06l0 -113.23c0,-9.59 2.81,-16.61 8.19,-21.05 5.38,-4.69 14.5,-7.02 26.9,-7.02l65.51 0c11.93,0 20.59,2.34 26.21,7.25 5.37,4.45 7.95,11.24 7.95,20.83l0 113.23z"/>
  <path class="fil1" d="M600.72 489.35l-25.27 33.69 -25.26 0 -25.27 -33.69 14.27 0 0 3.51 23.63 18.96 23.63 -18.96 0 -3.51 14.28 0zm-93.13 70.89l0 -13.11 113.02 0 0 10.53c-54.05,97.56 -80.96,146.7 -81.2,146.93 -1.4,4.21 -0.23,6.32 3.28,6.32l65.04 0c3.04,0 4.44,-2.57 4.44,-7.48l5.38 0 0 13.1 -112.78 0 0 -10.53 80.96 -146.93c1.63,-4.2 0.46,-6.32 -3.05,-6.32l-66.21 0c-3.04,0 -4.44,2.57 -4.44,7.49l-4.45 0z"/>
  <path class="fil1" d="M673.76 489.11l17.78 0 0 7.25 -31.81 26.67 -7.73 0 0 -3.98 21.76 -29.95zm-38.84 58.02l60.37 0 0 5.62c-5.15,0 -8.66,0.69 -10.3,2.34 -2.11,1.87 -3.27,5.62 -3.27,11.46l0 130.55c0,5.85 1.17,9.59 3.27,11.46 1.64,1.64 5.15,2.34 10.3,2.34l0 5.61 -60.37 0 0 -5.61c4.91,0 8.42,-0.7 10.29,-2.34 2.1,-1.87 3.04,-5.62 3.04,-11.46l0 -130.55c0,-5.85 -0.93,-9.59 -3.04,-11.46 -1.87,-1.64 -5.38,-2.34 -10.29,-2.34l0 -5.62z"/>
  <path class="fil1" d="M170.39 874.78l0 80.59 26.49 -7.48c4.76,-1.35 7.93,-3.61 9.27,-7.01 1.14,-2.49 1.59,-7.02 1.59,-13.13l0 -36.9c0,-5.66 -0.9,-9.73 -2.71,-12.22 -1.81,-2.49 -4.75,-3.85 -8.83,-3.85l-25.81 0zm11.32 158.69l-48.45 0 0 -5.43c4.3,0 7.02,-0.68 8.6,-2.26 1.81,-1.81 2.72,-5.44 2.72,-11.1l0 -45.5c-2.49,0.68 -4.07,1.59 -5.21,2.72 -1.59,1.59 -2.49,3.85 -2.49,7.02l-3.17 1.13 0 -12.67 10.87 -3.4 0 -71.08c0,-7.24 -0.68,-11.99 -2.26,-14.49 -1.81,-2.26 -5.43,-3.39 -10.87,-3.39l0 -5.43 79.01 0c9.73,0 17.21,2.49 22.4,7.46 4.76,4.3 7.24,10.87 7.24,19.7l0 23.77c0,12.45 -4.29,20.37 -13.13,24l-56.59 16.29 0 50.71c0,7.02 0.68,11.32 1.81,13.36 1.58,2.03 4.75,3.17 9.51,3.17l0 5.43z"/>
  <path class="fil1" d="M251.37 869.57l58.4 0 0 5.43c-4.98,0 -8.37,0.68 -9.95,2.27 -2.04,1.81 -3.17,5.42 -3.17,11.08l0 126.32c0,5.66 1.13,9.28 3.17,11.09 1.58,1.59 4.97,2.26 9.95,2.26l0 5.43 -58.4 0 0 -5.43c4.76,0 8.15,-0.68 9.95,-2.26 2.04,-1.81 2.95,-5.43 2.95,-11.09l0 -126.32c0,-5.66 -0.91,-9.27 -2.95,-11.08 -1.8,-1.59 -5.2,-2.27 -9.95,-2.27l0 -5.43z"/>
  <path class="fil1" d="M425.17 869.57l63.84 0 0 5.43c-3.85,0 -7.47,0.68 -10.86,2.03 -4.08,1.59 -6.8,4.31 -8.16,8.15l-40.52 131.75c-2.04,6.56 -0.91,9.96 3.4,10.63 2.49,0.23 4.75,0.46 6.78,0.46l0 5.43 -64.06 0 0 -5.43c4.75,0 7.91,-0.46 9.5,-1.36 2.04,-1.35 2.27,-3.84 1.14,-7.46l-41.66 -134.02c-2.03,-6.78 -8.37,-10.18 -18.78,-10.18l0 -5.43 32.59 0c4.53,0 8.83,1.13 12.68,3.61 4.07,2.5 6.79,5.89 7.92,9.97l29.66 94.85 26.71 -90.77c1.12,-4.75 1.12,-7.92 0,-9.51 -1.37,-1.8 -4.76,-2.71 -10.19,-2.71l0 -5.43z"/>
  <path class="fil1" d="M582.98 1028.03c3.17,0 5.88,-0.23 7.92,-0.9 2.03,-0.46 4.07,-1.36 5.66,-2.72 3.61,-2.5 5.43,-6.79 5.43,-12.9l0 -119.98c0,-10.18 -5.43,-15.61 -16.07,-16.52l-14.26 0c-14.71,0 -28.3,0 -40.52,-0.23l0 136.73c0,6.11 1.81,10.41 5.66,12.9 1.58,1.36 3.39,2.26 5.43,2.72 2.04,0.68 4.75,0.9 8.15,0.9l32.6 0zm48.89 -21.73c0,9.28 -2.72,16.07 -7.92,20.37 -5.44,4.53 -14.27,6.8 -26.27,6.8l-62.03 0c-12.22,0 -21.05,-2.26 -26.25,-6.8 -5.21,-4.3 -7.92,-11.09 -7.92,-20.37l0 -109.56c0,-9.29 2.72,-16.07 7.92,-20.38 5.2,-4.52 14.03,-6.79 26.03,-6.79l63.39 0c11.54,0 19.91,2.27 25.35,7.02 5.21,4.3 7.7,10.86 7.7,20.15l0 109.56z"/>
  <path class="fil1" d="M381.15 1072.83c-8.61,0 -12.83,4.84 -12.83,14.64 0,4.07 2.87,10.27 8.45,18.42l4.98 7.1c5.89,-3.32 9.66,-8 11.62,-14.04 1.06,-2.87 1.51,-6.79 1.51,-11.78 0,-4.07 -1.35,-7.55 -4.07,-10.26 -2.72,-2.71 -5.88,-4.07 -9.66,-4.07zm9.05 86.34l-20.22 -29.28 -3.33 -4.68 -4.07 -5.89c-6.64,3.63 -10.56,8.91 -11.92,16 -1.06,6.2 -0.15,12.53 2.87,19.17 2.87,6.19 6.79,10.72 11.63,13.59 5.28,3.17 9.96,3.17 14.34,0.15l10.71 -9.06zm40.46 -33.5l0 3.92 -23.1 19.93 -0.16 0.3 10.87 15.85c2.26,3.17 4.07,5.28 5.74,6.34 1.35,1.05 3.47,1.5 6.03,1.5l0.3 0 0 3.32 -28.07 0 -9.51 -13.89c-4.38,3.78 -7.85,6.65 -10.72,8.77 -11.62,8.59 -22.19,9.8 -32,3.61 -3.62,-2.26 -6.64,-5.28 -9.21,-9.21 -2.27,-3.32 -3.62,-6.35 -4.07,-9.05 -1.37,-8.61 -0.15,-16.31 3.47,-23.4 4.07,-8 10.87,-13.74 20.53,-17.21 -4.08,-6.79 -6.65,-12.83 -7.7,-18.11 -1.35,-7.4 0,-13.88 4.38,-19.33 2.42,-3.02 5.89,-5.42 10.27,-7.09 4.38,-1.66 9.06,-2.56 14.04,-2.56 7.1,0 13.29,1.51 18.42,4.38 6.19,3.63 9.36,8.91 9.36,15.85 0,13.13 -8.61,21.88 -25.82,26.42l21.44 30.64 16.3 -13.73c1.51,-1.21 1.81,-2.41 1.06,-3.47 -0.45,-0.91 -1.36,-1.36 -2.72,-1.36l0 -2.41 10.87 0z"/>
  <path class="fil1" d="M227.21 1255.75l57.43 0 0 4.89c-3.46,0 -6.72,0.61 -9.77,1.84 -3.67,1.42 -6.1,3.86 -7.33,7.33l-36.46 118.55c-1.83,5.91 -0.82,8.96 3.06,9.58 2.24,0.2 4.27,0.41 6.11,0.41l0 4.88 -57.64 0 0 -4.88c4.27,0 7.12,-0.41 8.55,-1.23 1.84,-1.22 2.04,-3.46 1.02,-6.72l-37.47 -120.59c-1.84,-6.1 -7.54,-9.16 -16.91,-9.16l0 -4.89 29.33 0c4.07,0 7.94,1.02 11.41,3.26 3.66,2.24 6.1,5.3 7.12,8.96l26.68 85.35 24.04 -81.69c1.02,-4.27 1.02,-7.12 0,-8.55 -1.22,-1.63 -4.28,-2.44 -9.17,-2.44l0 -4.89z"/>
  <path class="fil1" d="M332.6 1205.23l15.48 0 0 6.32 -27.7 23.22 -6.73 0 0 -3.46 18.95 -26.07zm-33.81 50.51l52.54 0 0 4.9c-4.47,0 -7.54,0.6 -8.96,2.03 -1.83,1.63 -2.85,4.89 -2.85,9.98l0 113.66c0,5.1 1.02,8.36 2.85,9.98 1.42,1.43 4.48,2.04 8.96,2.04l0 4.88 -52.54 0 0 -4.88c4.27,0 7.33,-0.61 8.96,-2.04 1.84,-1.62 2.65,-4.88 2.65,-9.98l0 -113.66c0,-5.09 -0.81,-8.35 -2.65,-9.98 -1.63,-1.43 -4.68,-2.03 -8.96,-2.03l0 -4.9z"/>
  <path class="fil1" d="M418.46 1403.22l-52.55 0 0 -4.88c4.28,0 7.33,-0.62 8.96,-2.04 1.83,-1.63 2.64,-4.88 2.64,-9.98l0.21 0.2 0 -111.01c0,-6.32 -0.82,-10.59 -2.66,-12.42 -1.42,-1.63 -4.48,-2.44 -9.16,-2.44l0 -4.89 24.03 0c4.69,0 8.55,1.02 11.61,3.06 3.47,2.44 6.1,5.5 8.35,9.37l46.65 80.25 0 -75.78c0,-5.1 -0.82,-8.35 -2.66,-9.98 -1.42,-1.43 -4.47,-2.04 -8.96,-2.04l0 -4.89 52.55 0 0 4.89c-4.48,0 -7.53,0.61 -8.96,2.04 -1.83,1.63 -2.64,4.88 -2.64,9.98l-0.21 -0.2 0 130.77 -24.03 0 -34.02 -58.46 -20.98 -35.65 0 77.2c0,5.1 1.01,8.35 2.85,9.98 1.42,1.43 4.47,2.04 8.96,2.04l0 4.88z"/>
  <path class="fil1" d="M583.02 1398.34c2.85,0 5.3,-0.2 7.13,-0.81 1.82,-0.41 3.67,-1.23 5.09,-2.45 3.26,-2.23 4.89,-6.1 4.89,-11.61l0 -107.95c0,-9.17 -4.89,-14.06 -14.46,-14.87l-12.84 0c-13.23,0 -25.46,0 -36.45,-0.2l0 123.02c0,5.5 1.63,9.37 5.09,11.61 1.43,1.22 3.05,2.04 4.89,2.45 1.83,0.61 4.27,0.81 7.33,0.81l29.33 0zm44 -19.56c0,8.36 -2.44,14.47 -7.13,18.34 -4.89,4.07 -12.83,6.1 -23.63,6.1l-55.82 0c-10.99,0 -18.93,-2.03 -23.62,-6.1 -4.69,-3.87 -7.13,-9.98 -7.13,-18.34l0 -98.58c0,-8.36 2.44,-14.46 7.13,-18.34 4.69,-4.07 12.62,-6.11 23.42,-6.11l57.03 0c10.39,0 17.92,2.04 22.81,6.31 4.69,3.87 6.93,9.78 6.93,18.13l0 98.58z"/>
  <path class="fil1" d="M78.63 1589.5l-16.33 4.44 0 -3.44c2.98,-1.15 4.41,-3.44 4.41,-6.74l0 -5.73c0,-4.01 -1,-6.88 -2.99,-8.75 -1.7,-1.58 -4.4,-2.29 -8.09,-2.29l-29.1 0 0 86.44c0,3.29 0.84,5.73 2.55,7.59 1.71,1.87 4.26,2.87 7.67,2.87l18.88 0c3.69,0 6.39,-0.99 8.23,-3 1.71,-1.73 2.56,-4.16 2.56,-7.45l0 -8.03 12.21 -4.01 0 13.33c0,3.16 -1.42,6.02 -4.4,8.75 -2.84,2.58 -5.96,3.86 -9.23,3.86l-28.25 0 -16.76 0c-5.53,0 -9.65,-1.58 -12.62,-4.87 -2.7,-3.01 -4.12,-7.03 -4.12,-12.33l0 -69.39c0,-6.59 2.13,-11.18 6.25,-13.91 3.4,-2.14 8.52,-3.29 15.19,-3.29l40.32 0c4.4,0 7.67,1.15 10.07,3.44 2.42,2.15 3.56,5.3 3.56,9.17l0 13.33z"/>
  <path class="fil1" d="M144.48 1563.55l36.77 0 0 3.44c-3.12,0 -5.25,0.43 -6.25,1.43 -1.27,1.15 -1.98,3.44 -1.98,7.03l0 79.99c0,3.59 0.71,5.88 1.98,7.02 1,1.01 3.13,1.44 6.25,1.44l0 3.44 -36.77 0 0 -3.44c3.12,0 5.25,-0.43 6.25,-1.44 1.27,-1.15 1.99,-3.44 1.99,-7.02l0 -45.16 -40.18 10.61 0 34.55c0,3.59 0.57,5.88 1.85,7.02 1.13,1.01 3.26,1.44 6.25,1.44l0 3.44 -36.64 0 0 -3.44c2.99,0 5.12,-0.43 6.25,-1.44 1.28,-1.15 1.85,-3.44 1.85,-7.02l0 -29.24c-3.27,1 -4.97,3 -4.97,6.02l-2.26 0.71 0 -8.02 7.24 -2.01 0 -47.45c0,-3.59 -0.57,-5.88 -1.85,-7.03 -1.13,-1 -3.26,-1.43 -6.25,-1.43l0 -3.44 36.64 0 0 3.44c-2.99,0 -5.12,0.43 -6.25,1.43 -1.28,1.15 -1.85,3.44 -1.85,7.03l0 42.14 40.18 -10.61 0 -31.53c0,-3.59 -0.72,-5.88 -1.99,-7.03 -1,-1 -3.13,-1.43 -6.25,-1.43l0 -3.44z"/>
  <path class="fil1" d="M273.39 1640.68c0,8.02 -2.27,14.19 -6.1,18.92 -4.4,5.16 -10.79,7.73 -19.3,7.73l-27.4 0c-8.66,0 -15.2,-2.72 -19.6,-8.17 -3.84,-4.73 -5.68,-11.18 -5.68,-19.35l-0.13 -64.22c0,-3.58 -0.57,-6.02 -1.84,-7.17 -1.14,-1 -3.27,-1.43 -6.25,-1.43l0 -3.44 36.34 0 0 3.44c-2.7,0 -4.55,0.29 -5.68,1 -1.56,0.86 -2.41,3.44 -2.41,7.6l0 77.84c0,3.3 0.84,5.88 2.56,7.75 1.7,1.85 4.25,2.72 7.8,2.72l14.9 0c1.85,0 3.41,-0.14 4.96,-0.58 1.28,-0.29 2.56,-0.85 3.84,-1.58 2.41,-1.58 3.69,-4.29 3.69,-8.16l0 -78.13c0,-3.58 -0.71,-5.88 -1.99,-7.02 -1,-1 -3.12,-1.43 -6.25,-1.43l0 -3.44 36.77 0 0 3.44c-3.27,0 -5.25,0.43 -6.25,1.43 -1.27,1.29 -1.99,3.59 -1.99,7.02l0 65.23z"/>
  <path class="fil1" d="M288.44 1571.57l0 -8.02 86.89 0 0 8.02 -1.85 0c0,-3 -1.27,-4.58 -3.7,-4.58l-20.16 0c-2.97,0 -5.1,0.71 -6.24,2 -0.99,1.16 -1.42,3.3 -1.42,6.46l0 79.98c0,5.59 2.7,8.46 8.24,8.46l0 3.44 -36.77 0 0 -3.44c5.53,0 8.22,-2.87 8.22,-8.46l0 -79.98c0,-3.16 -0.42,-5.3 -1.42,-6.46 -1.14,-1.29 -3.27,-2 -6.24,-2l-20.16 0c-2.41,0 -3.56,1.58 -3.56,4.58l-1.84 0z"/>
  <path class="fil1" d="M430.51 1663.9c1.99,0 3.69,-0.14 4.97,-0.57 1.27,-0.29 2.56,-0.85 3.55,-1.72 2.27,-1.58 3.4,-4.3 3.4,-8.17l0 -75.97c0,-6.46 -3.4,-9.89 -10.08,-10.47l-8.94 0c-9.23,0 -17.75,0 -25.42,-0.14l0 86.58c0,3.87 1.14,6.59 3.55,8.17 1,0.87 2.13,1.44 3.41,1.72 1.27,0.43 2.98,0.57 5.11,0.57l20.45 0zm30.66 -13.76c0,5.87 -1.7,10.17 -4.96,12.9 -3.41,2.87 -8.94,4.3 -16.47,4.3l-38.91 0c-7.66,0 -13.21,-1.44 -16.47,-4.3 -3.27,-2.73 -4.96,-7.03 -4.96,-12.9l0 -69.4c0,-5.87 1.7,-10.17 4.96,-12.9 3.26,-2.87 8.81,-4.3 16.33,-4.3l39.75 0c7.24,0 12.5,1.43 15.91,4.44 3.26,2.73 4.82,6.88 4.82,12.75l0 69.4z"/>
  <path class="fil1" d="M528.03 1563.55l40.04 0 0 3.44c-2.42,0 -4.69,0.43 -6.82,1.29 -2.56,1 -4.26,2.72 -5.11,5.16l-25.42 83.43c-1.28,4.16 -0.57,6.31 2.13,6.74 1.56,0.14 2.97,0.29 4.26,0.29l0 3.44 -40.18 0 0 -3.44c2.98,0 4.97,-0.29 5.97,-0.86 1.27,-0.86 1.41,-2.44 0.71,-4.73l-26.12 -84.86c-1.28,-4.3 -5.26,-6.45 -11.79,-6.45l0 -3.44 20.44 0c2.84,0 5.55,0.72 7.95,2.3 2.56,1.58 4.26,3.73 4.96,6.31l18.6 60.07 16.76 -57.49c0.7,-3 0.7,-5.02 0,-6.02 -0.86,-1.15 -2.99,-1.72 -6.39,-1.72l0 -3.44z"/>
  <path class="fil1" d="M668.87 1667.34l-27.12 0 -27.4 -49.17c-2.13,0 -3.69,0.72 -4.97,2.29 -1.13,1.29 -1.84,2.87 -1.98,4.73l-2.42 0.72 0 -8.17 30.52 -54.19 27.97 0 0 3.44 -0.72 0c-4.11,0 -7.24,1.72 -9.36,5.3l-21.73 37.99c17.6,30.53 26.69,46.3 27.26,47.02 2.69,4.44 6.1,6.59 9.94,6.59l0 3.44zm-94.98 -103.79l36.64 0 0 3.44c-3.12,0 -5.26,0.43 -6.25,1.43 -1.27,1.15 -1.99,3.44 -1.99,7.02l0 79.99c0,3.58 0.71,5.88 1.99,7.02 0.99,1 3.13,1.43 6.25,1.43l0 3.44 -36.64 0 0 -3.44c2.99,0 5.12,-0.43 6.25,-1.43 1.27,-1.15 1.84,-3.44 1.84,-7.02l0 -79.99c0,-3.59 -0.57,-5.88 -1.84,-7.02 -1.13,-1 -3.26,-1.43 -6.25,-1.43l0 -3.44z"/>
  <path class="fil1" d="M729.74 1563.55l34.64 0 0 3.44c-2.41,0 -4.27,0.57 -5.54,1.86 -0.99,1 -2.13,3.3 -3.41,6.6l-23.85 67.38 0 12.61c0,3.59 0.56,5.88 1.84,7.02 0.99,1.01 3.12,1.44 6.25,1.44l0 3.44 -36.63 0 0 -3.44c3.12,0 5.25,-0.43 6.25,-1.44 1.27,-1.15 1.99,-3.44 1.99,-7.02l0 -14.19c-17.89,-42.3 -27.12,-64.37 -27.83,-66.23 -1.13,-2.72 -2.56,-4.73 -4.12,-6.02 -1.84,-1.29 -4.4,-2.01 -7.52,-2.01l0 -3.44 19.88 0c3.98,0 7.1,2.58 9.37,7.89l20.59 48.17 14.34 -44.15c1.14,-3.59 1.14,-6.02 -0.14,-7.17 -0.86,-0.86 -2.84,-1.29 -6.11,-1.29l0 -3.44z"/>
  <path class="fil1" d="M77.42 1795.62l-21.62 0 -21.85 -38.82c-1.7,0 -2.94,0.57 -3.96,1.81 -0.9,1.02 -1.46,2.27 -1.59,3.74l-1.92 0.56 0 -6.44 24.34 -42.79 22.3 0 0 2.71 -0.57 0c-3.27,0 -5.76,1.37 -7.46,4.2l-17.32 29.99c14.04,24.12 21.28,36.56 21.73,37.13 2.14,3.51 4.87,5.21 7.92,5.21l0 2.72zm-75.72 -81.94l29.2 0 0 2.71c-2.49,0 -4.19,0.35 -4.98,1.13 -1.02,0.91 -1.59,2.72 -1.59,5.55l0 63.15c0,2.83 0.57,4.64 1.59,5.55 0.79,0.79 2.49,1.13 4.98,1.13l0 2.72 -29.2 0 0 -2.72c2.38,0 4.07,-0.34 4.98,-1.13 1.02,-0.9 1.47,-2.72 1.47,-5.55l0 -63.15c0,-2.83 -0.45,-4.64 -1.47,-5.55 -0.9,-0.79 -2.6,-1.13 -4.98,-1.13l0 -2.71z"/>
  <path class="fil1" d="M128.58 1716.28l0 40.3 13.24 -3.73c2.38,-0.68 3.96,-1.82 4.64,-3.51 0.57,-1.24 0.8,-3.51 0.8,-6.56l0 -18.45c0,-2.83 -0.46,-4.87 -1.37,-6.11 -0.9,-1.24 -2.38,-1.92 -4.41,-1.92l-12.9 0zm5.66 79.35l-24.22 0 0 -2.72c2.15,0 3.52,-0.34 4.3,-1.13 0.9,-0.9 1.36,-2.72 1.36,-5.55l0 -22.75c-1.24,0.34 -2.03,0.79 -2.6,1.36 -0.79,0.79 -1.25,1.92 -1.25,3.5l-1.58 0.57 0 -6.34 5.43 -1.7 0 -35.54c0,-3.62 -0.34,-6 -1.13,-7.24 -0.9,-1.13 -2.73,-1.7 -5.43,-1.7l0 -2.72 39.5 0c4.87,0 8.6,1.24 11.22,3.73 2.37,2.16 3.61,5.43 3.61,9.85l0 11.88c0,6.22 -2.15,10.19 -6.56,12l-28.3 8.15 0 25.35c0,3.5 0.34,5.66 0.9,6.67 0.8,1.03 2.39,1.59 4.76,1.59l0 2.72z"/>
  <path class="fil1" d="M166.13 1713.68l29.2 0 0 2.71c-2.49,0 -4.19,0.35 -4.98,1.14 -1.02,0.9 -1.59,2.72 -1.59,5.55l0 63.15c0,2.83 0.57,4.64 1.59,5.55 0.79,0.79 2.49,1.13 4.98,1.13l0 2.72 -29.2 0 0 -2.72c2.38,0 4.07,-0.34 4.98,-1.13 1.02,-0.91 1.47,-2.72 1.47,-5.55l0 -63.15c0,-2.83 -0.45,-4.64 -1.47,-5.55 -0.9,-0.79 -2.6,-1.14 -4.98,-1.14l0 -2.71z"/>
  <path class="fil1" d="M250.08 1713.68l31.91 0 0 2.71c-1.92,0 -3.73,0.35 -5.42,1.03 -2.04,0.79 -3.4,2.15 -4.07,4.07l-20.26 65.88c-1.02,3.27 -0.44,4.98 1.7,5.32 1.24,0.11 2.38,0.22 3.39,0.22l0 2.72 -32.03 0 0 -2.72c2.38,0 3.96,-0.22 4.76,-0.68 1.01,-0.68 1.12,-1.92 0.56,-3.73l-20.83 -67c-1.02,-3.4 -4.19,-5.1 -9.39,-5.1l0 -2.71 16.3 0c2.26,0 4.41,0.56 6.34,1.81 2.04,1.24 3.4,2.94 3.96,4.97l14.83 47.44 13.36 -45.39c0.56,-2.39 0.56,-3.96 0,-4.75 -0.68,-0.91 -2.38,-1.37 -5.1,-1.37l0 -2.71z"/>
  <path class="fil1" d="M355.6 1774.57c0,6.34 -1.81,11.21 -4.87,14.94 -3.5,4.08 -8.59,6.11 -15.39,6.11l-21.85 0c-6.9,0 -12.11,-2.15 -15.61,-6.44 -3.06,-3.74 -4.53,-8.84 -4.53,-15.29l-0.11 -50.71c0,-2.83 -0.45,-4.75 -1.47,-5.66 -0.9,-0.79 -2.6,-1.13 -4.98,-1.13l0 -2.71 28.98 0 0 2.71c-2.14,0 -3.62,0.23 -4.53,0.8 -1.24,0.67 -1.93,2.72 -1.93,5.99l0 61.46c0,2.6 0.68,4.64 2.04,6.12 1.36,1.46 3.39,2.14 6.22,2.14l11.88 0c1.47,0 2.73,-0.11 3.96,-0.45 1.02,-0.23 2.04,-0.68 3.06,-1.24 1.93,-1.24 2.93,-3.39 2.93,-6.45l0 -61.68c0,-2.83 -0.56,-4.64 -1.58,-5.56 -0.79,-0.79 -2.49,-1.13 -4.98,-1.13l0 -2.71 29.32 0 0 2.71c-2.61,0 -4.19,0.35 -4.98,1.13 -1.02,1.02 -1.59,2.83 -1.59,5.56l0 51.49z"/>
  <path class="fil1" d="M438.24 1761.21l-5.66 -18.45 -7.36 21.96 13.02 -3.51zm-15.51 34.41l-26.48 0 0 -2.61c2.04,0 3.62,-0.56 4.75,-1.81 1.02,-1.02 1.93,-2.83 2.72,-5.32l4.76 -14.38 -1.13 0.23c-2.94,0.79 -4.41,2.38 -4.41,4.98l-1.81 0.45 0 -6.34 8.26 -2.15 15.28 -45.84c1.47,-4.3 -0.11,-6.45 -4.76,-6.45l0 -2.72 12.9 0c2.39,0 4.31,0.45 5.56,1.47 1.24,1.02 2.26,2.49 2.93,4.64l4.76 15.96 16.07 53.08c0.45,1.47 1.13,2.61 1.93,3.18 0.79,0.56 2.14,0.9 4.07,0.9l0 2.73 -28.08 0 0 -2.73c2.15,0 3.63,-0.22 4.53,-0.68 1.47,-0.79 1.59,-2.94 0.57,-6.44l-6.79 -22.07 -14.6 3.85 -6.34 18.67c-0.9,2.72 -0.79,4.53 0.23,5.55 0.79,0.79 2.49,1.24 5.09,1.24l0 2.61z"/>
  <path class="fil1" d="M550.4 1713.68l31.91 0 0 2.71c-1.92,0 -3.73,0.35 -5.43,1.03 -2.04,0.79 -3.39,2.15 -4.07,4.07l-20.26 65.88c-1.02,3.27 -0.44,4.98 1.7,5.32 1.24,0.11 2.38,0.22 3.39,0.22l0 2.72 -32.03 0 0 -2.72c2.38,0 3.96,-0.22 4.76,-0.68 1.01,-0.68 1.13,-1.92 0.56,-3.73l-20.83 -67c-1.02,-3.4 -4.19,-5.1 -9.39,-5.1l0 -2.71 16.3 0c2.27,0 4.41,0.56 6.34,1.81 2.04,1.24 3.39,2.94 3.96,4.97l14.83 47.44 13.36 -45.39c0.57,-2.39 0.57,-3.96 0,-4.75 -0.68,-0.91 -2.38,-1.37 -5.09,-1.37l0 -2.71z"/>
  <path class="fil1" d="M605.9 1685.6l8.6 0 0 3.51 -15.39 12.9 -3.73 0 0 -1.92 10.53 -14.49zm-18.79 28.07l29.2 0 0 2.71c-2.49,0 -4.19,0.35 -4.98,1.13 -1.02,0.91 -1.59,2.73 -1.59,5.56l0 63.15c0,2.83 0.57,4.64 1.59,5.55 0.79,0.79 2.49,1.13 4.98,1.13l0 2.72 -29.2 0 0 -2.72c2.38,0 4.07,-0.34 4.98,-1.13 1.02,-0.91 1.47,-2.72 1.47,-5.55l0 -63.15c0,-2.83 -0.45,-4.64 -1.47,-5.56 -0.9,-0.79 -2.6,-1.13 -4.98,-1.13l0 -2.71z"/>
  <path class="fil1" d="M650.58 1795.62l-29.2 0 0 -2.72c2.38,0 4.07,-0.34 4.98,-1.13 1.02,-0.9 1.47,-2.72 1.47,-5.55l0.11 0.12 0 -61.69c0,-3.51 -0.45,-5.89 -1.46,-6.9 -0.8,-0.9 -2.49,-1.37 -5.1,-1.37l0 -2.71 13.36 0c2.6,0 4.76,0.57 6.45,1.69 1.93,1.37 3.4,3.07 4.64,5.22l25.92 44.59 0 -42.1c0,-2.83 -0.45,-4.64 -1.47,-5.55 -0.79,-0.79 -2.49,-1.13 -4.98,-1.13l0 -2.71 29.2 0 0 2.71c-2.49,0 -4.19,0.35 -4.98,1.13 -1.03,0.91 -1.47,2.72 -1.47,5.55l-0.11 -0.12 0 72.67 -13.36 0 -18.9 -32.49 -11.66 -19.81 0 42.9c0,2.83 0.57,4.64 1.59,5.55 0.79,0.79 2.49,1.13 4.98,1.13l0 2.72z"/>
  <path class="fil1" d="M768.55 1774.57c0,6.34 -1.81,11.21 -4.87,14.94 -3.5,4.08 -8.6,6.11 -15.39,6.11l-21.85 0c-6.9,0 -12.11,-2.15 -15.61,-6.44 -3.06,-3.74 -4.53,-8.84 -4.53,-15.29l-0.11 -50.71c0,-2.83 -0.45,-4.75 -1.47,-5.66 -0.9,-0.79 -2.6,-1.13 -4.98,-1.13l0 -2.71 28.98 0 0 2.71c-2.14,0 -3.62,0.23 -4.53,0.8 -1.24,0.67 -1.92,2.72 -1.92,5.99l0 61.46c0,2.6 0.68,4.64 2.04,6.12 1.36,1.46 3.4,2.14 6.22,2.14l11.89 0c1.47,0 2.72,-0.11 3.96,-0.45 1.02,-0.23 2.04,-0.68 3.06,-1.24 1.92,-1.24 2.93,-3.39 2.93,-6.45l0 -61.68c0,-2.83 -0.56,-4.64 -1.58,-5.56 -0.79,-0.79 -2.49,-1.13 -4.98,-1.13l0 -2.71 29.32 0 0 2.71c-2.61,0 -4.2,0.35 -4.98,1.13 -1.02,1.02 -1.59,2.83 -1.59,5.56l0 51.49z"/>
  <path class="fil1" d="M65.72 1923.63l38.31 0 0 3.27c-2.31,0 -4.48,0.4 -6.52,1.22 -2.44,0.95 -4.07,2.58 -4.9,4.88l-24.31 79.08c-1.22,3.94 -0.54,5.98 2.03,6.39 1.5,0.13 2.86,0.27 4.08,0.27l0 3.26 -38.45 0 0 -3.26c2.85,0 4.76,-0.27 5.7,-0.81 1.23,-0.81 1.36,-2.32 0.68,-4.49l-24.99 -80.43c-1.22,-4.07 -5.02,-6.1 -11.27,-6.1l0 -3.27 19.56 0c2.72,0 5.3,0.68 7.61,2.17 2.45,1.49 4.07,3.54 4.75,5.98l17.81 56.94 16.03 -54.49c0.68,-2.85 0.68,-4.76 0,-5.7 -0.81,-1.09 -2.85,-1.62 -6.11,-1.62l0 -3.27z"/>
  <path class="fil1" d="M163.05 1889.94l10.33 0 0 4.21 -18.48 15.48 -4.48 0 0 -2.3 12.63 -17.39zm6.12 33.69l33.15 0 0 3.26c-2.32,0 -4.07,0.54 -5.3,1.77 -0.95,0.96 -2.04,3.12 -3.27,6.25l-22.82 63.85 0 11.96c0,3.39 0.54,5.57 1.76,6.65 0.96,0.95 3,1.35 5.99,1.35l0 3.27 -35.05 0 0 -3.27c2.98,0 5.03,-0.4 5.98,-1.35 1.22,-1.09 1.9,-3.26 1.9,-6.65l0 -13.45c-17.12,-40.09 -25.95,-61 -26.64,-62.78 -1.08,-2.58 -2.44,-4.47 -3.93,-5.7 -1.76,-1.22 -4.22,-1.9 -7.2,-1.9l0 -3.26 19.02 0c3.8,0 6.8,2.44 8.97,7.47l19.7 45.65 13.73 -41.84c1.09,-3.39 1.09,-5.71 -0.14,-6.79 -0.81,-0.82 -2.72,-1.23 -5.84,-1.23l0 -3.26z"/>
  <path class="fil1" d="M271.17 1981.92c0,-3.27 0,-5.3 -0.13,-5.98 -0.14,-1.36 -0.81,-2.44 -1.77,-3.39 -1.36,-1.22 -4.35,-1.37 -9.1,-0.14l-21.88 5.44 0 30.98c0,3.67 1.22,6.25 3.53,8.01 2.04,1.22 4.89,1.9 8.56,1.9l9.79 0c3.12,0 5.7,-0.68 7.74,-2.16 2.17,-1.5 3.26,-4.08 3.26,-7.75l0 -26.9zm-32.88 -55.3l0 47.96 25.41 -6.1c3.39,-0.82 5.43,-2.17 6.38,-4.22 0.68,-1.36 1.09,-3.94 1.09,-7.88l0 -19.97c0,-3.8 -0.95,-6.39 -2.72,-7.88 -1.63,-1.22 -4.48,-1.9 -8.56,-1.9l-21.6 0zm-25.68 -3l60.46 0c6.79,0 11.96,1.5 15.49,4.49 3.39,2.71 5.02,6.66 5.02,11.82l0 12.62c0,7.49 -3.12,12.23 -9.24,14.41 6.11,2.17 9.24,7.06 9.24,14.67l0 24.04c0,5.58 -1.63,9.66 -4.75,12.23 -3.26,2.73 -8.56,4.08 -15.76,4.08l-60.46 0 0 -3.27c2.85,0 4.89,-0.41 5.98,-1.36 1.22,-1.08 1.77,-3.25 1.77,-6.65l0 -27.85c-1.77,0.54 -3,1.09 -3.67,1.63 -1.09,0.95 -1.64,2.31 -1.64,4.21l-2.3 0.68 0 -7.61 7.62 -2.04 0 -44.83c0,-3.4 -0.55,-5.58 -1.77,-6.66 -1.09,-0.95 -3.13,-1.36 -5.98,-1.36l0 -3.27z"/>
  <path class="fil1" d="M359.12 1997.82l16.99 -4.48 -3.67 28.67 -68.2 0 0 -3.27c2.84,0 4.88,-0.4 5.98,-1.35 1.22,-1.09 1.76,-3.26 1.76,-6.65l0 -25.14c-2.04,0.68 -3.26,1.08 -3.66,1.36 -1.1,0.95 -1.64,2.44 -1.64,4.62l-2.31 0.68 0 -7.75 7.61 -2.03 0 -47.56c0,-3.39 -0.54,-5.57 -1.76,-6.66 -1.1,-0.95 -3.13,-1.35 -5.98,-1.35l0 -3.27 70.37 0 0 24.46 -15.76 4.22 0 -3.27c2.72,-0.95 4.08,-2.85 4.08,-5.84l0 -8.7c0,-2.85 -0.82,-4.88 -2.44,-6.1 -1.36,-0.96 -3.4,-1.49 -6.25,-1.49l-22.83 0 0 50.54 18.48 -5.03c1.9,-0.54 3.26,-1.09 3.94,-1.5 1.22,-0.95 1.9,-2.44 1.9,-4.48l2.17 -0.68 0 12.5 -2.17 0.68c-0.13,-1.76 -0.53,-2.98 -1.49,-3.53 -0.69,-0.4 -1.64,-0.54 -2.86,-0.14l-19.97 5.43 0 28.13c0,3.66 1.22,6.38 3.53,8.01 1.91,1.22 4.76,1.9 8.43,1.9l11.41 0c2.59,0 4.35,-0.27 5.3,-0.81 1.37,-0.95 2.32,-2.58 2.72,-4.89l1.22 -8.29c0.41,-2.58 0.13,-4.07 -0.67,-4.48 -0.55,-0.4 -1.9,-0.27 -4.22,0.41l0 -2.85z"/>
  <path class="fil1" d="M468.13 2022l-25.54 0 -19.02 -46.6c-1.22,-2.85 -3.26,-3.94 -6.39,-3.13l-1.09 -2.72 26.77 -7.2c2.85,-0.82 4.21,-2.85 4.21,-6.12l0 -19.42c0,-3.67 -1.22,-6.39 -3.53,-8.02 -2.04,-1.22 -4.89,-1.9 -8.56,-1.9l-22.68 0 0 83.84c0,3.39 0.67,5.57 1.9,6.65 0.95,0.95 2.99,1.35 5.84,1.35l0 3.27 -34.92 0 0 -3.27c2.85,0 4.88,-0.4 5.98,-1.35 1.22,-1.09 1.76,-3.26 1.76,-6.65l0 -75.82c0,-3.39 -0.54,-5.57 -1.76,-6.66 -1.1,-0.95 -3.13,-1.36 -5.98,-1.36l0 -3.26 73.5 0c2.17,0 4.07,0.68 5.58,1.9 1.5,1.5 2.31,3.4 2.31,5.71l0 23.23c0,1.22 -0.69,2.58 -1.9,3.8 -1.22,1.22 -2.59,1.9 -3.81,2.3l-0.13 0 -0.14 0 -20.52 5.58 18.76 45.79c0.81,2.04 2.03,3.8 3.53,5.03 1.62,1.22 3.53,1.76 5.84,1.76l0 3.27z"/>
  <path class="fil1" d="M525.78 2018.74c1.9,0 3.53,-0.13 4.75,-0.53 1.22,-0.27 2.44,-0.82 3.4,-1.63 2.17,-1.5 3.27,-4.08 3.27,-7.74l0 -72.01c0,-6.12 -3.27,-9.39 -9.65,-9.92l-8.56 0c-8.83,0 -16.98,0 -24.32,-0.14l0 82.07c0,3.66 1.09,6.25 3.39,7.74 0.95,0.81 2.04,1.36 3.26,1.63 1.22,0.4 2.85,0.53 4.89,0.53l19.57 0zm29.35 -13.05c0,5.58 -1.64,9.66 -4.76,12.24 -3.26,2.72 -8.56,4.07 -15.76,4.07l-37.22 0c-7.33,0 -12.63,-1.36 -15.76,-4.07 -3.12,-2.58 -4.75,-6.66 -4.75,-12.24l0 -65.75c0,-5.58 1.62,-9.65 4.75,-12.23 3.13,-2.72 8.43,-4.08 15.63,-4.08l38.05 0c6.93,0 11.95,1.37 15.21,4.22 3.13,2.58 4.63,6.52 4.63,12.1l0 65.75z"/>
  <path class="fil1" d="M623.23 1923.63l38.31 0 0 3.27c-2.31,0 -4.48,0.4 -6.52,1.22 -2.44,0.95 -4.07,2.58 -4.9,4.88l-24.31 79.08c-1.22,3.94 -0.54,5.98 2.03,6.39 1.5,0.13 2.86,0.27 4.08,0.27l0 3.26 -38.45 0 0 -3.26c2.85,0 4.75,-0.27 5.7,-0.81 1.23,-0.81 1.37,-2.32 0.68,-4.49l-24.99 -80.43c-1.22,-4.07 -5.03,-6.1 -11.27,-6.1l0 -3.27 19.56 0c2.72,0 5.3,0.68 7.61,2.17 2.45,1.49 4.07,3.54 4.76,5.98l17.81 56.94 16.03 -54.49c0.68,-2.85 0.68,-4.76 0,-5.7 -0.81,-1.09 -2.85,-1.62 -6.11,-1.62l0 -3.27z"/>
  <path class="fil1" d="M720.56 1889.94l10.33 0 0 4.21 -18.48 15.48 -4.48 0 0 -2.3 12.63 -17.39zm6.12 33.69l33.15 0 0 3.26c-2.32,0 -4.07,0.54 -5.3,1.77 -0.95,0.96 -2.04,3.12 -3.27,6.25l-22.82 63.85 0 11.96c0,3.39 0.54,5.57 1.76,6.65 0.96,0.95 3,1.35 5.99,1.35l0 3.27 -35.05 0 0 -3.27c2.98,0 5.03,-0.4 5.98,-1.35 1.22,-1.09 1.9,-3.26 1.9,-6.65l0 -13.45c-17.12,-40.09 -25.95,-61 -26.64,-62.78 -1.08,-2.58 -2.44,-4.47 -3.93,-5.7 -1.76,-1.22 -4.22,-1.9 -7.2,-1.9l0 -3.26 19.02 0c3.8,0 6.8,2.44 8.97,7.47l19.7 45.65 13.73 -41.84c1.09,-3.39 1.09,-5.71 -0.14,-6.79 -0.81,-0.82 -2.72,-1.23 -5.84,-1.23l0 -3.26z"/>
  <path class="fil1" d="M66.55 2122.45l-8.3 -27.07 -10.79 32.21 19.09 -5.15zm-22.75 50.47l-38.85 0 0 -3.81c2.99,0 5.31,-0.84 6.97,-2.67 1.49,-1.49 2.82,-4.15 3.98,-7.8l6.97 -21.08 -1.66 0.33c-4.32,1.16 -6.47,3.49 -6.47,7.3l-2.66 0.67 0 -9.3 12.13 -3.15 22.4 -67.25c2.17,-6.31 -0.16,-9.46 -6.96,-9.46l0 -3.98 18.93 0c3.49,0 6.31,0.66 8.13,2.16 1.83,1.49 3.32,3.65 4.32,6.81l6.98 23.41 23.57 77.87c0.66,2.16 1.65,3.82 2.82,4.65 1.16,0.84 3.16,1.33 5.98,1.33l0 3.98 -41.17 0 0 -3.98c3.15,0 5.31,-0.33 6.63,-1 2.16,-1.16 2.32,-4.32 0.83,-9.46l-9.96 -32.38 -21.42 5.64 -9.3 27.4c-1.33,3.99 -1.15,6.64 0.33,8.13 1.16,1.17 3.65,1.84 7.47,1.84l0 3.81z"/>
  <path class="fil1" d="M171.29 2145.86l0 -9.29 41.68 -13.62 0 4.15c-2.99,0.83 -4.98,1.66 -5.99,2.66 -1.16,1.49 -1.82,3.66 -1.82,6.64l0 27.23c0,2.66 -0.83,4.82 -2.49,6.48 -1.83,1.83 -4.32,2.82 -7.14,2.82l-73.39 0 0 -3.98c3.49,0 5.98,-0.5 7.3,-1.66 1.5,-1.33 2.16,-3.99 2.16,-8.13l0 -92.66c0,-4.14 -0.66,-6.8 -2.16,-8.13 -1.33,-1.16 -3.82,-1.65 -7.3,-1.65l0 -3.99 42.84 0 0 3.99c-3.48,0 -5.98,0.5 -7.3,1.65 -1.5,1.17 -2.33,3.83 -2.33,8.13l0 90.33c0,4.49 1.49,7.8 4.32,9.8 2.32,1.5 5.81,2.33 10.29,2.33l6.81 0c3.31,0 6.13,-0.83 8.47,-2.66 2.65,-1.83 3.98,-4.98 3.98,-9.47l0 -21.42 -11.3 3.66c-2.48,0.82 -3.82,2.82 -3.82,5.98l-2.82 0.82z"/>
  <path class="fil1" d="M329.4 2172.92l-31.71 0 -32.05 -56.95c-2.49,0 -4.32,0.83 -5.81,2.66 -1.33,1.49 -2.16,3.32 -2.33,5.48l-2.82 0.83 0 -9.46 35.7 -62.77 32.7 0 0 3.99 -0.82 0c-4.82,0 -8.47,1.99 -10.96,6.14l-25.41 44c20.59,35.37 31.22,53.63 31.88,54.46 3.15,5.15 7.14,7.64 11.62,7.64l0 3.99zm-111.08 -120.22l42.84 0 0 3.99c-3.65,0 -6.14,0.5 -7.3,1.65 -1.5,1.33 -2.33,3.99 -2.33,8.14l0 92.65c0,4.15 0.83,6.81 2.33,8.13 1.16,1.16 3.65,1.66 7.3,1.66l0 3.99 -42.84 0 0 -3.99c3.49,0 5.98,-0.5 7.3,-1.66 1.5,-1.33 2.16,-3.98 2.16,-8.13l0 -92.65c0,-4.15 -0.66,-6.81 -2.16,-8.14 -1.33,-1.16 -3.82,-1.65 -7.3,-1.65l0 -3.99z"/>
  <path class="fil1" d="M398.59 2168.94c2.33,0 4.32,-0.16 5.82,-0.66 1.5,-0.33 2.98,-1 4.14,-1.99 2.66,-1.83 3.99,-4.98 3.99,-9.46l0 -88c0,-7.47 -3.99,-11.45 -11.79,-12.12l-10.46 0c-10.79,0 -20.76,0 -29.72,-0.17l0 100.29c0,4.48 1.33,7.64 4.15,9.46 1.16,1 2.49,1.66 3.98,1.99 1.49,0.5 3.49,0.66 5.98,0.66l23.91 0zm35.87 -15.94c0,6.81 -1.99,11.79 -5.82,14.94 -3.98,3.33 -10.45,4.98 -19.25,4.98l-45.5 0c-8.96,0 -15.44,-1.65 -19.25,-4.98 -3.83,-3.15 -5.82,-8.13 -5.82,-14.94l0 -80.37c0,-6.81 1.99,-11.79 5.82,-14.94 3.81,-3.32 10.28,-4.98 19.09,-4.98l46.48 0c8.47,0 14.62,1.66 18.6,5.15 3.82,3.16 5.64,7.97 5.64,14.77l0 80.37z"/>
  <path class="fil1" d="M517.03 2052.71l43.01 0 0 3.99c-3.65,0 -6.14,0.5 -7.31,1.66 -1.49,1.33 -2.32,3.99 -2.32,8.13l0 92.65c0,4.15 0.83,6.81 2.32,8.14 1.17,1.16 3.66,1.65 7.31,1.65l0 3.99 -43.01 0 0 -3.99c3.65,0 6.14,-0.49 7.31,-1.65 1.49,-1.33 2.32,-3.99 2.32,-8.14l0 -52.3 -46.98 12.29 0 40.01c0,4.15 0.67,6.81 2.16,8.14 1.33,1.16 3.82,1.65 7.3,1.65l0 3.99 -42.84 0 0 -3.99c3.49,0 5.98,-0.49 7.3,-1.65 1.49,-1.33 2.16,-3.99 2.16,-8.14l0 -33.87c-3.82,1.16 -5.81,3.49 -5.81,6.97l-2.65 0.83 0 -9.3 8.47 -2.33 0 -54.96c0,-4.15 -0.67,-6.8 -2.16,-8.13 -1.33,-1.16 -3.82,-1.66 -7.3,-1.66l0 -3.99 42.84 0 0 3.99c-3.49,0 -5.98,0.5 -7.3,1.66 -1.49,1.33 -2.16,3.99 -2.16,8.13l0 48.82 46.98 -12.29 0 -36.53c0,-4.15 -0.83,-6.8 -2.32,-8.13 -1.17,-1.16 -3.66,-1.66 -7.31,-1.66l0 -3.99z"/>
  <path class="fil1" d="M629.38 2168.94c2.33,0 4.32,-0.16 5.82,-0.66 1.49,-0.33 2.98,-1 4.14,-1.99 2.67,-1.83 3.99,-4.98 3.99,-9.46l0 -88c0,-7.47 -3.99,-11.45 -11.79,-12.12l-10.46 0c-10.79,0 -20.76,0 -29.72,-0.17l0 100.29c0,4.48 1.33,7.64 4.15,9.46 1.16,1 2.49,1.66 3.99,1.99 1.49,0.5 3.49,0.66 5.98,0.66l23.91 0zm35.87 -15.94c0,6.81 -1.99,11.79 -5.82,14.94 -3.98,3.33 -10.45,4.98 -19.25,4.98l-45.5 0c-8.96,0 -15.44,-1.65 -19.25,-4.98 -3.82,-3.15 -5.82,-8.13 -5.82,-14.94l0 -80.37c0,-6.81 1.99,-11.79 5.82,-14.94 3.81,-3.32 10.29,-4.98 19.09,-4.98l46.49 0c8.47,0 14.62,1.66 18.6,5.15 3.82,3.16 5.64,7.97 5.64,14.77l0 80.37z"/>
  <path class="fil1" d="M724.54 2145.86l0 -9.29 41.68 -13.62 0 4.15c-2.99,0.83 -4.98,1.66 -5.98,2.66 -1.16,1.49 -1.82,3.66 -1.82,6.64l0 27.23c0,2.66 -0.83,4.82 -2.49,6.48 -1.82,1.83 -4.31,2.82 -7.14,2.82l-73.39 0 0 -3.98c3.49,0 5.98,-0.5 7.3,-1.66 1.49,-1.33 2.16,-3.99 2.16,-8.13l0 -92.66c0,-4.14 -0.67,-6.8 -2.16,-8.13 -1.33,-1.16 -3.82,-1.65 -7.3,-1.65l0 -3.99 42.84 0 0 3.99c-3.49,0 -5.98,0.5 -7.3,1.65 -1.49,1.17 -2.32,3.83 -2.32,8.13l0 90.33c0,4.49 1.49,7.8 4.32,9.8 2.32,1.5 5.81,2.33 10.29,2.33l6.81 0c3.31,0 6.13,-0.83 8.47,-2.66 2.65,-1.83 3.99,-4.98 3.99,-9.47l0 -21.42 -11.3 3.66c-2.49,0.82 -3.82,2.82 -3.82,5.98l-2.82 0.82z"/>
  <polygon class="fil0" points="774.44,1854.92 2.84,1854.92 2.84,1845.86 774.44,1845.86 "/>
  <polygon class="fil0" points="774.44,1500.71 2.84,1500.71 2.84,1491.65 774.44,1491.65 "/>
  <polygon class="fil0" points="774.44,796.28 2.84,796.28 2.84,787.21 774.44,787.21 "/>
  <path class="fil0" d="M55.44 1164.11c-4.36,-2.84 -9.3,-4.49 -14.85,-4.9 -5.54,-0.42 -10.56,0.38 -15.1,2.39 -4.02,1.85 -7.22,4.23 -9.55,7.18 -2.36,2.93 -4.11,6.32 -5.29,10.18 -1.17,3.87 -1.93,8.14 -2.27,12.84 -0.33,4.69 -0.5,9.82 -0.5,15.34l0 187.23c-1.34,0.33 -2.52,1.09 -3.53,2.26 -1,1.16 -1.51,2.51 -1.51,4.03 0,1.51 0.5,2.84 1.51,4.03 1.01,1.17 2.19,1.93 3.53,2.26l0 47.07 2.52 0 0 -47.07c1.34,-0.33 2.5,-1.09 3.52,-2.26 1.02,-1.19 1.51,-2.52 1.51,-4.03 0,-1.52 -0.49,-2.87 -1.51,-4.03 -1.01,-1.18 -2.17,-1.93 -3.52,-2.26l0 -61.91 7.55 -9.32 -7.55 -8.8 0 -14.09 0.25 0.5c0,0.85 0.09,1.59 0.26,2.27 0.33,1.67 0.92,3.34 1.76,5.03 0.5,0.84 1.21,1.73 2.14,2.64 0.92,0.91 2.01,1.67 3.27,2.27 1.26,0.58 2.6,0.91 4.02,0.99 1.43,0.1 2.81,-0.29 4.15,-1.12 1.52,-0.84 2.57,-1.9 3.15,-3.16 0.59,-1.25 0.8,-2.51 0.63,-3.77 -0.17,-1.25 -0.63,-2.39 -1.39,-3.39 -0.75,-1.01 -1.71,-1.61 -2.89,-1.77 -1.01,-0.35 -1.93,-0.37 -2.77,-0.13 -0.83,0.25 -1.59,0.54 -2.27,0.88 -0.66,0.33 -1.25,0.76 -1.76,1.25 -2.01,-0.33 -3.56,-0.96 -4.66,-1.89 -1.09,-0.91 -1.88,-1.97 -2.39,-3.13 -0.5,-1.19 -0.79,-2.36 -0.87,-3.53 -0.07,-1.19 -0.12,-2.19 -0.12,-3.02 0,-5.37 -0.08,-10.69 -0.26,-15.98 -0.18,-5.3 -0.25,-10.62 -0.25,-15.99 0,-5.69 0.07,-11.24 0.25,-16.61 0.17,-5.37 0.26,-10.73 0.26,-16.09 0,-0.68 0.04,-1.56 0.12,-2.64 0.09,-1.1 0.3,-2.27 0.63,-3.53 0.34,-1.25 0.87,-2.47 1.64,-3.64 0.76,-1.19 1.89,-2.19 3.4,-3.04 0.17,0.67 0.41,1.36 0.75,2.02 0.84,1.16 2.19,1.75 4.03,1.75 2.18,-0.16 3.69,-1.08 4.53,-2.76 0.84,-1.68 0.76,-3.53 -0.25,-5.53 -0.84,-1.52 -2.01,-2.53 -3.52,-3.02 -1.53,-0.5 -2.94,-0.6 -4.29,-0.24 -1.17,0.16 -2.18,0.74 -3.01,1.75 -0.84,1.02 -1.6,2.14 -2.27,3.4 -0.67,1.25 -1.17,2.39 -1.51,3.39 -0.33,1.03 -0.58,1.51 -0.76,1.51l0 -8.81c0,-5.36 0.12,-10.32 0.37,-14.85 0.26,-4.52 0.93,-8.62 2.03,-12.31 1.08,-3.7 2.72,-6.88 4.9,-9.57 2.18,-2.69 5.2,-4.86 9.05,-6.53 4.02,-1.86 8.6,-2.57 13.72,-2.14 5.11,0.4 9.69,1.88 13.71,4.4 5.54,3.67 8.65,8.47 9.3,14.34 1.01,4.36 0.42,8.64 -1.76,12.84 -1.01,2.51 -2.67,4.51 -5.03,6.04 -2.35,1.5 -4.98,2.42 -7.92,2.76 -2.93,0.34 -5.92,-0.16 -8.93,-1.5 -2.85,-1 -4.95,-2.36 -6.3,-4.02 -1.34,-1.68 -2.26,-3.19 -2.78,-4.54 -0.66,-1.84 -0.87,-3.64 -0.63,-5.41 0.26,-1.75 0.72,-3.05 1.39,-3.89 1.17,-1.68 2.85,-2.69 5.03,-3.02 2.01,-0.35 3.02,0 3.02,1 0.33,0.68 0,1.15 -1.01,1.38 -1,0.25 -1.92,0.89 -2.78,1.89 -1.17,1.33 -1.37,2.92 -0.63,4.79 0.76,1.84 2.56,2.77 5.41,2.77 2.69,0 4.7,-1.23 6.04,-3.67 1.34,-2.42 1.34,-4.81 0,-7.16 -1.01,-1.18 -1.85,-2.01 -2.52,-2.51 -1.84,-1.36 -3.68,-1.93 -5.53,-1.76 -1.85,0.16 -3.69,0.67 -5.54,1.5 -0.66,0.33 -1.34,0.8 -2.01,1.39 -0.67,0.59 -1.19,1.21 -1.52,1.9 -0.84,1.33 -1.42,2.97 -1.76,4.9 -0.34,1.93 -0.09,4.06 0.75,6.42 0.5,1.83 1.51,3.72 3.02,5.65 1.51,1.93 3.94,3.56 7.3,4.92 4.52,1.67 9.22,1.82 14.09,0.5l-6.04 3.77c-1.83,1.17 -3.72,2.35 -5.65,3.52 -1.93,1.18 -3.82,2.52 -5.66,4.02 -2.69,2.19 -5.42,4.62 -8.19,7.3 -2.76,2.69 -5.23,5.74 -7.42,9.19 -2.17,3.43 -3.98,7.2 -5.41,11.33 -1.42,4.1 -2.13,8.68 -2.13,13.71 0,5.7 1.13,9.85 3.4,12.46 2.26,2.6 4.82,4.15 7.67,4.65l2.01 0c0.68,0 1.26,-0.07 1.76,-0.25 3.36,-0.84 5.79,-2.36 7.3,-4.52 0.66,-1.51 1.09,-3.11 1.25,-4.79 0,-2.36 -0.87,-4.07 -2.63,-5.16 -1.77,-1.09 -3.48,-1.64 -5.16,-1.64 -3.69,0.34 -5.54,2.1 -5.54,5.29 0,1.33 0.39,2.3 1.14,2.9 0.76,0.58 1.64,0.79 2.63,0.63 1.01,0 1.65,-0.31 1.9,-0.87 0.24,-0.6 0.54,-1.15 0.87,-1.65 0.35,-0.66 0.72,-0.96 1.13,-0.87 0.43,0.07 0.79,0.29 1.14,0.63 0.84,0.84 1,1.83 0.49,3 -1.33,3.69 -4.01,5.29 -8.04,4.8 -2.85,-0.35 -5.07,-1.82 -6.67,-4.41 -1.59,-2.6 -2.39,-6.01 -2.39,-10.19 0,-4.86 0.68,-9.23 2.02,-13.08 1.34,-3.87 3.1,-7.42 5.27,-10.7 2.19,-3.27 4.63,-6.2 7.31,-8.8 2.7,-2.61 5.36,-4.91 8.05,-6.92 1.67,-1.5 3.49,-2.87 5.4,-4.02 1.93,-1.2 3.83,-2.36 5.67,-3.53 1.34,-0.85 2.65,-1.7 3.9,-2.53 1.25,-0.83 2.47,-1.67 3.64,-2.51 -2.68,3.34 -5.48,6.38 -8.42,9.05 -2.93,2.69 -4.81,6.29 -5.66,10.82 -0.51,3.86 0.58,6.13 3.27,6.8 2.18,0.84 4.19,0.77 6.04,-0.25 1.85,-1.03 2.77,-2.44 2.77,-4.28 0,-1.35 -0.92,-2.49 -2.77,-3.4 -1.85,-0.91 -2.77,-1.89 -2.77,-2.89 0,-1.68 1,-3.85 3.02,-6.55 1.34,-1.66 2.76,-3.23 4.26,-4.65 1.52,-1.42 2.94,-3.06 4.29,-4.9 0.67,-0.84 1.27,-1.72 1.76,-2.64 0.5,-0.93 1,-1.8 1.51,-2.64 1.5,-3.2 2.52,-6.88 3.02,-11.08 0.51,-4.19 0.17,-8.05 -1,-11.57 -1.67,-5.04 -4.94,-9.07 -9.81,-12.09z"/>
  <path class="fil0" d="M55.44 1108.93c-4.36,2.84 -9.3,4.48 -14.85,4.9 -5.54,0.42 -10.56,-0.38 -15.1,-2.39 -4.02,-1.85 -7.22,-4.24 -9.55,-7.18 -2.36,-2.93 -4.11,-6.32 -5.29,-10.19 -1.17,-3.86 -1.93,-8.14 -2.27,-12.84 -0.33,-4.68 -0.5,-9.81 -0.5,-15.33l0 -187.24c-1.34,-0.32 -2.52,-1.08 -3.53,-2.26 -1,-1.16 -1.51,-2.51 -1.51,-4.03 0,-1.5 0.5,-2.84 1.51,-4.02 1.01,-1.17 2.19,-1.93 3.53,-2.27l0 -47.06 2.52 0 0 47.06c1.34,0.33 2.5,1.1 3.52,2.27 1.02,1.18 1.51,2.52 1.51,4.02 0,1.52 -0.49,2.87 -1.51,4.03 -1.01,1.19 -2.17,1.94 -3.52,2.26l0 61.91 7.55 9.32 -7.55 8.81 0 14.09 0.25 -0.5c0,-0.84 0.09,-1.58 0.26,-2.26 0.33,-1.68 0.92,-3.36 1.76,-5.03 0.5,-0.84 1.21,-1.73 2.14,-2.66 0.92,-0.91 2.01,-1.67 3.27,-2.26 1.26,-0.59 2.6,-0.93 4.02,-1 1.43,-0.09 2.81,0.3 4.15,1.13 1.52,0.84 2.57,1.89 3.15,3.14 0.59,1.28 0.8,2.53 0.63,3.78 -0.17,1.26 -0.63,2.4 -1.39,3.39 -0.75,1.02 -1.71,1.61 -2.89,1.77 -1.01,0.34 -1.93,0.36 -2.77,0.13 -0.83,-0.26 -1.59,-0.55 -2.27,-0.88 -0.66,-0.33 -1.25,-0.76 -1.76,-1.25 -2.01,0.33 -3.56,0.96 -4.66,1.88 -1.09,0.91 -1.88,1.98 -2.39,3.15 -0.5,1.17 -0.79,2.36 -0.87,3.52 -0.07,1.19 -0.12,2.18 -0.12,3.02 0,5.37 -0.08,10.7 -0.26,15.98 -0.18,5.29 -0.25,10.62 -0.25,15.99 0,5.68 0.07,11.24 0.25,16.61 0.17,5.36 0.26,10.73 0.26,16.1 0,0.67 0.04,1.56 0.12,2.65 0.09,1.09 0.3,2.26 0.63,3.52 0.34,1.25 0.87,2.48 1.64,3.64 0.76,1.19 1.89,2.19 3.4,3.03 0.17,-0.67 0.41,-1.36 0.75,-2.03 0.84,-1.15 2.19,-1.75 4.03,-1.75 2.18,0.16 3.69,1.09 4.53,2.77 0.84,1.67 0.76,3.52 -0.25,5.52 -0.84,1.51 -2.01,2.53 -3.52,3.03 -1.53,0.5 -2.94,0.59 -4.29,0.26 -1.17,-0.18 -2.18,-0.76 -3.01,-1.77 -0.84,-1.01 -1.6,-2.13 -2.27,-3.4 -0.67,-1.25 -1.17,-2.39 -1.51,-3.38 -0.33,-1.03 -0.58,-1.52 -0.76,-1.52l0 8.81c0,5.36 0.12,10.31 0.37,14.84 0.26,4.52 0.93,8.63 2.03,12.31 1.08,3.7 2.72,6.9 4.9,9.58 2.18,2.69 5.2,4.86 9.05,6.53 4.02,1.85 8.6,2.57 13.72,2.13 5.11,-0.39 9.69,-1.88 13.71,-4.39 5.54,-3.68 8.65,-8.48 9.3,-14.34 1.01,-4.36 0.42,-8.65 -1.76,-12.84 -1.01,-2.51 -2.67,-4.52 -5.03,-6.04 -2.35,-1.51 -4.98,-2.43 -7.92,-2.76 -2.93,-0.34 -5.92,0.17 -8.93,1.51 -2.85,1 -4.95,2.36 -6.3,4.03 -1.34,1.67 -2.26,3.19 -2.78,4.53 -0.66,1.85 -0.87,3.64 -0.63,5.42 0.26,1.74 0.72,3.05 1.39,3.88 1.17,1.69 2.85,2.69 5.03,3.03 2.01,0.34 3.02,0 3.02,-1 0.33,-0.69 0,-1.16 -1.01,-1.39 -1,-0.25 -1.92,-0.88 -2.78,-1.89 -1.17,-1.34 -1.37,-2.94 -0.63,-4.79 0.76,-1.84 2.56,-2.76 5.41,-2.76 2.69,0 4.7,1.22 6.04,3.66 1.34,2.43 1.34,4.81 0,7.18 -1.01,1.16 -1.85,2 -2.52,2.5 -1.84,1.35 -3.68,1.93 -5.53,1.75 -1.85,-0.16 -3.69,-0.66 -5.54,-1.5 -0.66,-0.34 -1.34,-0.81 -2.01,-1.39 -0.67,-0.59 -1.19,-1.22 -1.52,-1.89 -0.84,-1.34 -1.42,-2.97 -1.76,-4.9 -0.34,-1.93 -0.09,-4.06 0.75,-6.42 0.5,-1.84 1.51,-3.72 3.02,-5.67 1.51,-1.91 3.94,-3.55 7.3,-4.9 4.52,-1.67 9.22,-1.84 14.09,-0.51l-6.04 -3.76c-1.83,-1.18 -3.72,-2.35 -5.65,-3.52 -1.93,-1.18 -3.82,-2.53 -5.66,-4.04 -2.69,-2.18 -5.42,-4.61 -8.19,-7.3 -2.76,-2.69 -5.23,-5.74 -7.42,-9.18 -2.17,-3.44 -3.98,-7.21 -5.41,-11.33 -1.42,-4.1 -2.13,-8.68 -2.13,-13.7 0,-5.71 1.13,-9.86 3.4,-12.47 2.26,-2.6 4.82,-4.14 7.67,-4.65l2.01 0c0.68,0 1.26,0.07 1.76,0.25 3.36,0.84 5.79,2.36 7.3,4.53 0.66,1.51 1.09,3.11 1.25,4.79 0,2.35 -0.87,4.07 -2.63,5.15 -1.77,1.1 -3.48,1.64 -5.16,1.64 -3.69,-0.34 -5.54,-2.1 -5.54,-5.3 0,-1.33 0.39,-2.3 1.14,-2.9 0.76,-0.57 1.64,-0.78 2.63,-0.63 1.01,0 1.65,0.31 1.9,0.89 0.24,0.59 0.54,1.13 0.87,1.64 0.35,0.66 0.72,0.96 1.13,0.87 0.43,-0.07 0.79,-0.29 1.14,-0.64 0.84,-0.83 1,-1.82 0.49,-3 -1.33,-3.68 -4.01,-5.28 -8.04,-4.78 -2.85,0.33 -5.07,1.8 -6.67,4.4 -1.59,2.61 -2.39,6.01 -2.39,10.21 0,4.86 0.68,9.22 2.02,13.08 1.34,3.86 3.1,7.41 5.27,10.7 2.19,3.27 4.63,6.2 7.31,8.81 2.7,2.6 5.36,4.9 8.05,6.9 1.67,1.51 3.49,2.87 5.4,4.03 1.93,1.19 3.83,2.36 5.67,3.53 1.34,0.84 2.65,1.68 3.9,2.52 1.25,0.83 2.47,1.67 3.64,2.51 -2.68,-3.35 -5.48,-6.37 -8.42,-9.06 -2.93,-2.67 -4.81,-6.29 -5.66,-10.81 -0.51,-3.86 0.58,-6.13 3.27,-6.81 2.18,-0.83 4.19,-0.76 6.04,0.26 1.85,1.02 2.77,2.42 2.77,4.28 0,1.34 -0.92,2.48 -2.77,3.4 -1.85,0.92 -2.77,1.89 -2.77,2.9 0,1.67 1,3.86 3.02,6.55 1.34,1.67 2.76,3.23 4.26,4.65 1.52,1.43 2.94,3.06 4.29,4.91 0.67,0.84 1.27,1.72 1.76,2.64 0.5,0.93 1,1.8 1.51,2.63 1.5,3.2 2.52,6.89 3.02,11.08 0.51,4.2 0.17,8.06 -1,11.58 -1.67,5.04 -4.94,9.07 -9.81,12.09z"/>
  <path class="fil0" d="M715.72 1108.93c4.36,2.84 9.3,4.49 14.85,4.9 5.54,0.42 10.56,-0.38 15.1,-2.39 4.02,-1.85 7.22,-4.23 9.55,-7.18 2.36,-2.93 4.11,-6.32 5.29,-10.18 1.18,-3.86 1.93,-8.14 2.27,-12.84 0.33,-4.69 0.5,-9.82 0.5,-15.34l0 -187.23c1.33,-0.33 2.52,-1.08 3.53,-2.27 1,-1.16 1.51,-2.51 1.51,-4.03 0,-1.51 -0.5,-2.84 -1.51,-4.02 -1.01,-1.18 -2.19,-1.93 -3.53,-2.26l0 -47.07 -2.52 0 0 47.07c-1.34,0.33 -2.5,1.09 -3.52,2.26 -1.02,1.18 -1.51,2.51 -1.51,4.02 0,1.52 0.49,2.87 1.51,4.03 1.01,1.19 2.17,1.94 3.52,2.27l0 61.91 -7.55 9.32 7.55 8.8 0 14.1 -0.25 -0.51c0,-0.84 -0.09,-1.58 -0.26,-2.26 -0.33,-1.67 -0.92,-3.35 -1.76,-5.04 -0.5,-0.84 -1.21,-1.72 -2.13,-2.64 -0.92,-0.91 -2.01,-1.67 -3.27,-2.27 -1.26,-0.59 -2.6,-0.92 -4.02,-0.99 -1.44,-0.1 -2.81,0.29 -4.15,1.12 -1.52,0.84 -2.56,1.89 -3.15,3.15 -0.59,1.25 -0.8,2.51 -0.63,3.77 0.17,1.25 0.63,2.39 1.39,3.4 0.75,1.01 1.71,1.61 2.89,1.76 1,0.35 1.93,0.37 2.77,0.13 0.83,-0.25 1.59,-0.54 2.27,-0.88 0.66,-0.33 1.25,-0.76 1.76,-1.25 2.01,0.33 3.56,0.96 4.65,1.89 1.09,0.91 1.88,1.97 2.39,3.14 0.5,1.18 0.79,2.36 0.87,3.52 0.07,1.19 0.12,2.2 0.12,3.04 0,5.36 0.08,10.68 0.26,15.97 0.18,5.3 0.25,10.62 0.25,16 0,5.68 -0.07,11.24 -0.25,16.6 -0.17,5.37 -0.26,10.73 -0.26,16.1 0,0.68 -0.04,1.56 -0.12,2.65 -0.08,1.09 -0.29,2.27 -0.63,3.53 -0.34,1.25 -0.87,2.47 -1.64,3.64 -0.76,1.19 -1.89,2.19 -3.4,3.03 -0.17,-0.66 -0.41,-1.36 -0.75,-2.02 -0.84,-1.16 -2.19,-1.75 -4.03,-1.75 -2.17,0.16 -3.69,1.08 -4.53,2.76 -0.84,1.68 -0.76,3.53 0.25,5.53 0.84,1.52 2.01,2.53 3.52,3.02 1.53,0.5 2.94,0.6 4.29,0.25 1.17,-0.18 2.18,-0.75 3.01,-1.76 0.84,-1.02 1.6,-2.14 2.27,-3.4 0.67,-1.25 1.17,-2.39 1.51,-3.39 0.33,-1.03 0.58,-1.51 0.76,-1.51l0 8.81c0,5.36 -0.12,10.31 -0.37,14.85 -0.26,4.52 -0.93,8.63 -2.02,12.31 -1.09,3.7 -2.72,6.89 -4.9,9.57 -2.18,2.69 -5.2,4.86 -9.05,6.53 -4.02,1.86 -8.6,2.57 -13.72,2.14 -5.11,-0.4 -9.69,-1.88 -13.71,-4.39 -5.53,-3.68 -8.65,-8.48 -9.3,-14.34 -1.01,-4.36 -0.41,-8.64 1.76,-12.84 1.01,-2.51 2.67,-4.51 5.03,-6.04 2.35,-1.5 4.98,-2.42 7.92,-2.76 2.93,-0.34 5.92,0.16 8.93,1.51 2.85,0.99 4.95,2.35 6.3,4.02 1.34,1.68 2.26,3.19 2.78,4.53 0.66,1.84 0.87,3.64 0.63,5.42 -0.26,1.74 -0.72,3.05 -1.38,3.89 -1.18,1.68 -2.86,2.69 -5.04,3.02 -2.01,0.35 -3.02,0 -3.02,-1 -0.33,-0.69 0,-1.16 1.01,-1.39 1,-0.25 1.92,-0.89 2.78,-1.89 1.17,-1.33 1.37,-2.92 0.63,-4.79 -0.76,-1.84 -2.56,-2.77 -5.41,-2.77 -2.69,0 -4.7,1.23 -6.04,3.67 -1.34,2.42 -1.34,4.81 0,7.17 1.01,1.17 1.85,2 2.52,2.5 1.85,1.36 3.68,1.94 5.53,1.76 1.85,-0.16 3.69,-0.66 5.54,-1.49 0.67,-0.34 1.34,-0.81 2.01,-1.4 0.67,-0.59 1.19,-1.21 1.52,-1.89 0.84,-1.33 1.42,-2.97 1.76,-4.9 0.34,-1.93 0.09,-4.06 -0.75,-6.42 -0.5,-1.84 -1.51,-3.73 -3.01,-5.66 -1.52,-1.92 -3.95,-3.56 -7.3,-4.91 -4.52,-1.67 -9.22,-1.84 -14.09,-0.51l6.04 -3.76c1.83,-1.17 3.72,-2.35 5.65,-3.52 1.93,-1.18 3.82,-2.52 5.66,-4.02 2.69,-2.19 5.42,-4.62 8.19,-7.3 2.76,-2.69 5.23,-5.74 7.42,-9.19 2.17,-3.43 3.99,-7.2 5.41,-11.33 1.42,-4.1 2.13,-8.69 2.13,-13.7 0,-5.7 -1.13,-9.86 -3.4,-12.46 -2.26,-2.6 -4.82,-4.15 -7.67,-4.65l-2.01 0c-0.68,0 -1.26,0.08 -1.76,0.25 -3.36,0.84 -5.79,2.35 -7.3,4.52 -0.66,1.51 -1.09,3.11 -1.25,4.79 0,2.36 0.87,4.07 2.63,5.16 1.76,1.09 3.48,1.64 5.16,1.64 3.69,-0.34 5.54,-2.1 5.54,-5.29 0,-1.33 -0.39,-2.3 -1.14,-2.9 -0.76,-0.57 -1.64,-0.78 -2.64,-0.62 -1.01,0 -1.64,0.31 -1.88,0.88 -0.25,0.6 -0.55,1.14 -0.88,1.64 -0.35,0.66 -0.72,0.97 -1.13,0.87 -0.42,-0.07 -0.79,-0.29 -1.14,-0.63 -0.84,-0.84 -1,-1.83 -0.49,-3 1.33,-3.69 4.01,-5.29 8.04,-4.79 2.85,0.34 5.07,1.81 6.67,4.41 1.59,2.6 2.39,6.01 2.39,10.2 0,4.86 -0.68,9.22 -2.02,13.08 -1.34,3.87 -3.1,7.42 -5.27,10.7 -2.19,3.27 -4.63,6.2 -7.31,8.81 -2.7,2.6 -5.36,4.9 -8.05,6.91 -1.67,1.5 -3.49,2.87 -5.4,4.02 -1.93,1.2 -3.82,2.36 -5.67,3.53 -1.34,0.85 -2.65,1.7 -3.9,2.53 -1.25,0.83 -2.48,1.68 -3.64,2.51 2.68,-3.34 5.48,-6.37 8.42,-9.05 2.93,-2.69 4.81,-6.29 5.66,-10.82 0.51,-3.86 -0.57,-6.13 -3.27,-6.8 -2.18,-0.84 -4.19,-0.77 -6.04,0.25 -1.85,1.03 -2.77,2.44 -2.77,4.28 0,1.36 0.92,2.49 2.77,3.4 1.85,0.92 2.77,1.89 2.77,2.89 0,1.68 -1,3.86 -3.02,6.55 -1.34,1.67 -2.76,3.23 -4.26,4.66 -1.52,1.43 -2.94,3.06 -4.29,4.9 -0.67,0.84 -1.27,1.72 -1.76,2.64 -0.5,0.94 -1,1.8 -1.51,2.64 -1.5,3.2 -2.51,6.88 -3.02,11.08 -0.5,4.19 -0.17,8.05 1,11.57 1.68,5.04 4.94,9.07 9.81,12.09z"/>
  <path class="fil0" d="M715.72 1164.11c4.36,-2.84 9.3,-4.48 14.85,-4.9 5.54,-0.42 10.56,0.38 15.1,2.39 4.02,1.85 7.22,4.24 9.55,7.18 2.36,2.93 4.11,6.32 5.29,10.19 1.18,3.86 1.93,8.14 2.27,12.84 0.33,4.69 0.5,9.81 0.5,15.34l0 187.24c1.33,0.32 2.52,1.08 3.53,2.26 1,1.17 1.51,2.51 1.51,4.03 0,1.5 -0.5,2.84 -1.51,4.02 -1.01,1.18 -2.19,1.93 -3.53,2.26l0 47.06 -2.52 0 0 -47.06c-1.34,-0.33 -2.5,-1.09 -3.52,-2.26 -1.02,-1.18 -1.51,-2.52 -1.51,-4.02 0,-1.52 0.49,-2.86 1.51,-4.03 1.01,-1.19 2.17,-1.94 3.52,-2.26l0 -61.91 -7.55 -9.32 7.55 -8.81 0 -14.08 -0.25 0.49c0,0.85 -0.09,1.59 -0.26,2.27 -0.33,1.68 -0.92,3.35 -1.76,5.03 -0.5,0.84 -1.21,1.73 -2.13,2.66 -0.92,0.91 -2.01,1.67 -3.27,2.26 -1.26,0.58 -2.6,0.92 -4.02,1 -1.44,0.09 -2.81,-0.3 -4.15,-1.13 -1.52,-0.84 -2.56,-1.9 -3.15,-3.14 -0.59,-1.27 -0.8,-2.53 -0.63,-3.78 0.17,-1.26 0.63,-2.4 1.39,-3.4 0.75,-1.02 1.71,-1.61 2.89,-1.77 1,-0.34 1.93,-0.36 2.77,-0.13 0.83,0.27 1.59,0.55 2.27,0.88 0.66,0.33 1.25,0.76 1.76,1.25 2.01,-0.33 3.56,-0.96 4.65,-1.87 1.09,-0.92 1.88,-1.99 2.39,-3.15 0.5,-1.18 0.79,-2.36 0.87,-3.53 0.07,-1.19 0.12,-2.18 0.12,-3.02 0,-5.37 0.08,-10.7 0.26,-15.98 0.18,-5.29 0.25,-10.62 0.25,-15.99 0,-5.68 -0.07,-11.23 -0.25,-16.61 -0.17,-5.36 -0.26,-10.73 -0.26,-16.09 0,-0.67 -0.04,-1.56 -0.12,-2.64 -0.08,-1.09 -0.29,-2.26 -0.63,-3.53 -0.34,-1.25 -0.87,-2.48 -1.64,-3.64 -0.76,-1.19 -1.89,-2.19 -3.4,-3.04 -0.17,0.68 -0.41,1.36 -0.75,2.03 -0.84,1.16 -2.19,1.75 -4.03,1.75 -2.17,-0.15 -3.69,-1.09 -4.53,-2.77 -0.84,-1.67 -0.76,-3.52 0.25,-5.52 0.84,-1.51 2.01,-2.53 3.52,-3.03 1.53,-0.5 2.94,-0.6 4.29,-0.25 1.17,0.17 2.18,0.75 3.01,1.76 0.84,1.01 1.6,2.13 2.27,3.4 0.67,1.25 1.17,2.39 1.51,3.38 0.33,1.03 0.58,1.52 0.76,1.52l0 -8.81c0,-5.36 -0.12,-10.32 -0.37,-14.85 -0.26,-4.52 -0.93,-8.63 -2.02,-12.32 -1.09,-3.7 -2.72,-6.89 -4.9,-9.57 -2.18,-2.69 -5.2,-4.86 -9.05,-6.53 -4.02,-1.85 -8.6,-2.57 -13.72,-2.13 -5.11,0.39 -9.69,1.88 -13.71,4.39 -5.53,3.68 -8.65,8.48 -9.3,14.34 -1.01,4.36 -0.41,8.65 1.76,12.84 1.01,2.51 2.67,4.53 5.03,6.04 2.35,1.51 4.98,2.43 7.92,2.76 2.93,0.34 5.92,-0.16 8.93,-1.5 2.85,-1 4.95,-2.35 6.3,-4.03 1.34,-1.68 2.26,-3.18 2.78,-4.53 0.66,-1.85 0.87,-3.64 0.63,-5.41 -0.26,-1.75 -0.72,-3.06 -1.38,-3.89 -1.18,-1.69 -2.86,-2.69 -5.04,-3.03 -2.01,-0.34 -3.02,0 -3.02,1 -0.33,0.68 0,1.15 1.01,1.39 1,0.25 1.92,0.88 2.78,1.89 1.17,1.34 1.37,2.93 0.63,4.79 -0.76,1.83 -2.56,2.76 -5.41,2.76 -2.69,0 -4.7,-1.22 -6.04,-3.65 -1.34,-2.44 -1.34,-4.82 0,-7.18 1.01,-1.17 1.85,-2.01 2.52,-2.51 1.85,-1.35 3.68,-1.92 5.53,-1.74 1.85,0.15 3.69,0.66 5.54,1.5 0.67,0.33 1.34,0.8 2.01,1.38 0.67,0.6 1.19,1.22 1.52,1.9 0.84,1.33 1.42,2.97 1.76,4.9 0.34,1.93 0.09,4.06 -0.75,6.43 -0.5,1.82 -1.51,3.71 -3.01,5.66 -1.52,1.91 -3.95,3.56 -7.3,4.91 -4.52,1.67 -9.22,1.82 -14.09,0.5l6.04 3.77c1.83,1.18 3.72,2.35 5.65,3.52 1.93,1.18 3.82,2.53 5.66,4.04 2.69,2.18 5.42,4.61 8.19,7.3 2.76,2.7 5.23,5.74 7.42,9.19 2.17,3.45 3.99,7.21 5.41,11.33 1.42,4.1 2.13,8.68 2.13,13.7 0,5.71 -1.13,9.85 -3.4,12.47 -2.26,2.59 -4.82,4.14 -7.67,4.65l-2.01 0c-0.68,0 -1.26,-0.08 -1.76,-0.26 -3.36,-0.84 -5.79,-2.35 -7.3,-4.53 -0.66,-1.51 -1.09,-3.11 -1.25,-4.79 0,-2.35 0.87,-4.07 2.63,-5.15 1.76,-1.1 3.48,-1.64 5.16,-1.64 3.69,0.34 5.54,2.1 5.54,5.3 0,1.33 -0.39,2.3 -1.14,2.9 -0.76,0.57 -1.64,0.79 -2.64,0.63 -1.01,0 -1.64,-0.31 -1.88,-0.88 -0.25,-0.6 -0.55,-1.14 -0.88,-1.64 -0.35,-0.67 -0.72,-0.97 -1.13,-0.87 -0.42,0.07 -0.79,0.29 -1.14,0.64 -0.84,0.83 -1,1.83 -0.49,3.01 1.33,3.68 4.01,5.28 8.04,4.79 2.85,-0.34 5.07,-1.81 6.67,-4.41 1.59,-2.61 2.39,-6.01 2.39,-10.2 0,-4.86 -0.68,-9.22 -2.02,-13.08 -1.34,-3.86 -3.1,-7.41 -5.27,-10.7 -2.19,-3.27 -4.63,-6.19 -7.31,-8.8 -2.7,-2.61 -5.36,-4.91 -8.05,-6.91 -1.67,-1.51 -3.49,-2.87 -5.4,-4.03 -1.93,-1.19 -3.82,-2.36 -5.67,-3.53 -1.34,-0.84 -2.65,-1.68 -3.9,-2.52 -1.25,-0.83 -2.48,-1.67 -3.64,-2.5 2.68,3.34 5.48,6.37 8.42,9.05 2.93,2.67 4.81,6.29 5.66,10.81 0.51,3.86 -0.57,6.13 -3.27,6.81 -2.18,0.82 -4.19,0.76 -6.04,-0.26 -1.85,-1.01 -2.77,-2.42 -2.77,-4.28 0,-1.34 0.92,-2.48 2.77,-3.4 1.85,-0.92 2.77,-1.89 2.77,-2.9 0,-1.67 -1,-3.85 -3.02,-6.55 -1.34,-1.66 -2.76,-3.23 -4.26,-4.65 -1.52,-1.42 -2.94,-3.05 -4.29,-4.9 -0.67,-0.84 -1.27,-1.72 -1.76,-2.64 -0.5,-0.93 -1,-1.79 -1.51,-2.63 -1.5,-3.2 -2.51,-6.89 -3.02,-11.08 -0.5,-4.2 -0.17,-8.06 1,-11.58 1.68,-5.04 4.94,-9.07 9.81,-12.09z"/>
  <polygon class="fil1" points="354.97,1528.39 339.64,1549.18 324.31,1549.18 308.97,1528.39 317.63,1528.39 317.63,1530.68 331.97,1542.15 346.32,1530.68 346.32,1528.39 "/>
  <polygon class="fil1" points="362.26,1889.99 347.59,1909.69 332.9,1909.69 318.23,1889.99 326.53,1889.99 326.53,1892.16 340.25,1903.04 353.97,1892.16 353.97,1889.99 "/>
 </g>
</svg>
