<?xml version="1.0" encoding="UTF-8" standalone="no"?>
<svg
   xmlns:dc="http://purl.org/dc/elements/1.1/"
   xmlns:cc="http://creativecommons.org/ns#"
   xmlns:rdf="http://www.w3.org/1999/02/22-rdf-syntax-ns#"
   xmlns:svg="http://www.w3.org/2000/svg"
   xmlns="http://www.w3.org/2000/svg"
   xmlns:sodipodi="http://sodipodi.sourceforge.net/DTD/sodipodi-0.dtd"
   xmlns:inkscape="http://www.inkscape.org/namespaces/inkscape"
   inkscape:version="1.0 (4035a4fb49, 2020-05-01)"
   sodipodi:docname="arrow.svg"
   id="svg16"
   viewBox="0 0 57.27 85.71"
   style="shape-rendering:geometricPrecision; text-rendering:geometricPrecision; image-rendering:optimizeQuality; fill-rule:evenodd; clip-rule:evenodd"
   version="1.1"
   height="22.7873mm"
   width="15.2277mm"
   xml:space="preserve"><metadata
   id="metadata20"><rdf:RDF><cc:Work
       rdf:about=""><dc:format>image/svg+xml</dc:format><dc:type
         rdf:resource="http://purl.org/dc/dcmitype/StillImage" /></cc:Work></rdf:RDF></metadata><sodipodi:namedview
   inkscape:current-layer="svg16"
   inkscape:window-maximized="1"
   inkscape:window-y="-8"
   inkscape:window-x="-8"
   inkscape:cy="43.062614"
   inkscape:cx="23.647041"
   inkscape:zoom="7.4078178"
   showgrid="false"
   id="namedview18"
   inkscape:window-height="1027"
   inkscape:window-width="1920"
   inkscape:pageshadow="2"
   inkscape:pageopacity="0"
   guidetolerance="10"
   gridtolerance="10"
   objecttolerance="10"
   borderopacity="1"
   bordercolor="#666666"
   pagecolor="#ffffff" />
 <defs
   id="defs4">
  <style
   id="style2"
   type="text/css">
   <![CDATA[
    .fil0 {fill:black;fill-rule:nonzero}
   ]]>
  </style>
 </defs>
 <g
   style="fill:#101010;fill-opacity:1"
   id="Vrstva_x0020_1">
  <metadata
   id="CorelCorpID_0Corel-Layer" />
  <path
   style="fill:#101010;fill-opacity:1"
   id="path7"
   d="M5.55 38.47c13.6,-11.96 27.29,-23.83 41.4,-35.18 -1.09,-0.29 -2.18,-0.57 -3.26,-0.86 4.17,17.73 6.97,35.77 8.57,53.91 1.26,-0.72 2.51,-1.44 3.77,-2.16 -7.97,-4.11 -16.25,-7.47 -24.94,-9.74 -8.6,-2.24 -19.22,-1.84 -26.95,-6.43 0.19,1.43 0.37,2.87 0.55,4.3 8.92,-8.7 22.23,-12.68 33.42,-17.59 -0.82,-1.4 -1.64,-2.81 -2.46,-4.21 -7.22,5.41 -14.51,10.72 -21.79,16.06 0.95,1.23 1.89,2.45 2.84,3.68 5.69,-4.84 11.1,-9.98 16.72,-14.89 1.53,-1.34 -0.46,-3.92 -2.18,-2.82 -6.36,4.08 -12.28,8.68 -17.7,13.94 1.21,0.32 2.42,0.64 3.63,0.96 -0.07,-0.45 -0.14,-0.89 -0.21,-1.34 0.37,-1.71 -1.02,-3.02 -2.69,-2.69 -3.95,0.76 -6.25,2.96 -7.76,6.6 -0.68,1.64 1.26,3.17 2.76,2.76 5.2,-1.43 8.55,-4.68 10.32,-9.73 0.53,-1.5 -0.83,-2.73 -2.17,-2.85 -5.43,-0.51 -9.74,2.83 -10.78,8.15 -0.26,1.33 0.62,3.05 2.21,2.9 5.56,-0.5 9.57,-3.48 13.86,-6.86 6.53,-5.14 12.74,-10.65 18.71,-16.43 2.21,-2.14 -1.11,-5.41 -3.36,-3.36 -1.27,1.15 -2.53,2.3 -3.78,3.46 -2.24,2.06 1.08,5.33 3.32,3.32 1.28,-1.13 2.55,-2.27 3.82,-3.42 -1.12,-1.12 -2.24,-2.24 -3.36,-3.36 -4.17,4.05 -8.44,7.99 -12.89,11.74 -4.68,3.94 -9.95,9.61 -16.32,10.33 0.74,0.97 1.47,1.93 2.21,2.9 0.68,-3.75 2.8,-5.37 6.36,-4.86 -0.72,-0.95 -1.45,-1.9 -2.17,-2.85 -1.28,3.68 -3.54,5.61 -7.16,6.61 0.92,0.92 1.84,1.84 2.76,2.76 1.53,-1.19 3.07,-2.38 4.6,-3.57 -0.9,-0.9 -1.8,-1.8 -2.7,-2.69 -0.38,1.86 -0.26,2.45 0.47,4.18 0.56,1.31 2.53,1.33 3.41,0.44 5.09,-5.14 10.49,-9.78 16.45,-13.91 -0.73,-0.94 -1.45,-1.88 -2.18,-2.82 -5.79,4.76 -11.77,9.28 -17.49,14.12 -2.01,1.7 0.68,5.25 2.84,3.68 7.28,-5.32 14.55,-10.66 21.89,-15.89 2.6,-1.86 0.41,-5.42 -2.46,-4.21 -12.03,5.1 -24.71,9.44 -34.83,17.93 -1.43,1.19 -0.8,3.41 0.55,4.3 6.9,4.53 15.75,4.27 23.6,6 9.85,2.17 19.39,5.52 28.53,9.76 1.52,0.7 4,-0.09 3.77,-2.16 -2.06,-18.55 -5.38,-36.82 -9.81,-54.95 -0.38,-1.54 -2.19,-1.74 -3.26,-0.86 -14.02,11.46 -27.66,23.31 -40.59,36 -1.28,1.25 0.63,3.11 1.95,1.95l0 0z"
   class="fil0" />
  <path
   style="fill:#101010;fill-opacity:1"
   id="path9"
   d="M41.31 20.73c-4.48,2.87 -8.94,5.78 -13.33,8.8 0.89,1.16 1.79,2.32 2.68,3.47 2.14,-2.15 14.34,-12.7 7.94,-15.92 -2.75,-1.38 -6.59,1.23 -8.84,2.38 -5.56,2.83 -10.8,6.16 -15.84,9.83 0.94,1.21 1.87,2.43 2.81,3.64 5.96,-5.73 13.96,-8.6 19.6,-14.75 1.43,-1.56 0.06,-4.5 -2.19,-3.76 -8.02,2.66 -14.24,7.42 -18.48,14.78 -1.27,2.2 1.19,4.14 3.23,3.23 7.97,-3.56 12.88,-11.3 20.9,-14.71 -1.09,-1.09 -2.19,-2.19 -3.28,-3.28 -2.72,5.72 -5.48,11.42 -8.25,17.12 -1.36,2.81 2.77,5.29 4.23,2.47 3.74,-7.25 7.47,-14.51 11.19,-21.78 -1.56,-0.66 -3.11,-1.31 -4.67,-1.97 -1.11,4.89 -2.22,9.78 -3.32,14.67 -0.61,2.73 3.41,4.78 4.74,2 2.99,-6.21 5.27,-12.59 6.81,-19.31 0.62,-2.71 -2.4,-4.18 -4.4,-2.56 -3.76,3.05 -7.51,6.1 -11.25,9.16 1.38,1.06 2.75,2.12 4.13,3.19 3.16,-4.42 6.74,-8.29 10.89,-11.77 -1.46,-0.6 -2.92,-1.21 -4.38,-1.81 -0.33,5.13 -0.67,10.26 -1,15.39 -0.19,2.96 4.35,3.47 5.11,0.69 0.58,-2.14 1.17,-4.28 1.75,-6.43 -1.71,-0.23 -3.42,-0.46 -5.14,-0.7 -0.08,8.88 0.87,17.56 2.85,26.21 0.66,2.87 5.65,2.32 5.25,-0.71 -0.85,-6.59 -2.53,-12.73 -5.13,-18.85 -0.89,-2.1 -4.54,-1.54 -4.93,0.64 -1.19,6.63 -1.94,13.27 -2.21,20 1.69,-0.46 3.37,-0.91 5.06,-1.37 -2.05,-4.23 -4.1,-8.47 -6.15,-12.7 -1.24,-2.56 -5.01,-1.15 -5.08,1.38 -0.07,2.24 -0.14,4.49 -0.21,6.73 -0.03,1.12 -0.07,2.25 -0.1,3.37 0.29,1.77 -0.5,1.77 -2.38,0 -3.83,-1.1 -7.87,-4.48 -11.04,-6.81 -0.7,1.67 -1.41,3.34 -2.11,5.01 5.82,2.33 11.63,4.66 17.45,6.99 3.29,1.32 4.68,-3.97 1.46,-5.29 -9.6,-3.92 -19.42,-4.81 -29.61,-3.02 -3.29,0.58 -2.11,5.11 0.73,5.41 8.39,0.88 16.75,1.93 25.08,3.19 3.45,0.51 4.92,-4.18 1.47,-5.32 -6.12,-2.03 -17.98,-6.8 -23.29,-0.66 -1.46,1.69 -0.76,3.83 1.22,4.63 9.01,3.62 18.83,1.42 27.97,4.37 0.49,-1.78 0.98,-3.57 1.47,-5.35 -8.37,-1.76 -16.74,-3.52 -25.11,-5.27 -3.47,-0.73 -4.96,4.43 -1.48,5.36 5.71,1.53 11.5,2.64 17.39,3.17 3.62,0.33 9.62,1.65 12.9,-0.48 6.63,-4.32 -3.87,-15.37 -6.94,-18.97 -1.95,-2.29 -5.03,0.24 -4.6,2.67 1.28,7.09 4.04,13.39 8.4,19.13 1.6,2.1 5.1,1.57 5.18,-1.4 0.15,-5.84 0.33,-11.67 0.66,-17.5 -1.74,0.47 -3.49,0.94 -5.23,1.42 2.05,4 2.19,7.04 3.18,11.29 0.63,2.68 0.72,2.37 -1.38,0.04 -3.86,-4.27 -9.5,-7.68 -13.97,-11.29 -2.78,-2.25 -6.68,1.39 -4.02,4.02 5.08,5.03 10.65,9.23 16.9,12.71 2.55,1.42 5.24,-1.4 3.91,-3.91 -2.42,-4.57 -16.24,-19.86 -20.04,-8.39 -3.19,9.63 17.26,16.43 23.46,18.67 2.28,0.82 3.89,-1.59 3.56,-3.56 -0.7,-4.11 -2.1,-7.48 -4.5,-10.88 -1.49,-2.11 -5.67,-1.67 -5.41,1.46 0.45,5.32 1.15,10.3 3.53,15.13 1.42,2.88 5.13,1.09 5.43,-1.47 0.55,-4.72 0.72,-9.37 0.52,-14.11 -1.95,0 -3.9,0 -5.85,0 0.25,3.91 0.5,7.83 0.75,11.74 0.24,3.74 6.07,3.79 5.87,0 -0.04,-0.7 -0.08,-1.4 -0.11,-2.1 -0.2,-3.76 -6.08,-3.78 -5.87,0 0.04,0.7 0.08,1.4 0.12,2.1 1.96,0 3.91,0 5.87,0 -0.26,-3.91 -0.51,-7.83 -0.77,-11.74 -0.24,-3.73 -6.02,-3.79 -5.85,0 0.21,4.74 0.05,9.39 -0.5,14.11 1.81,-0.49 3.62,-0.98 5.43,-1.47 -1.92,-3.88 -2.39,-7.93 -2.76,-12.19 -1.8,0.49 -3.6,0.98 -5.41,1.46 2.13,3.01 3.32,5.89 3.93,9.48 1.19,-1.18 2.37,-2.37 3.56,-3.56 -5.19,-1.87 -10.18,-4.17 -14.82,-7.18 -2.34,-1.51 -5.24,-4.06 -1,-2.05 2.75,1.31 4.6,4.89 5.93,7.41 1.3,-1.3 2.61,-2.61 3.91,-3.91 -5.83,-3.24 -11.01,-7.11 -15.76,-11.8 -1.34,1.34 -2.68,2.68 -4.02,4.02 5.33,4.3 10.64,8.61 15.98,12.89 1.85,1.48 4.12,3.89 6.73,2.52 6.4,-3.34 0.51,-18.07 -1.67,-22.31 -1.35,-2.62 -5.09,-1.2 -5.23,1.42 -0.31,5.83 -0.47,11.66 -0.61,17.5 1.73,-0.47 3.45,-0.94 5.18,-1.4 -4.1,-5.35 -6.69,-11.16 -7.9,-17.78 -1.53,0.89 -3.06,1.78 -4.59,2.67 1.96,2.29 5.54,5.75 6.24,8.84 2.14,1.62 1.79,2.13 -1.05,1.53 -1.21,-0.01 -2.42,-0.05 -3.63,-0.12 -6.64,-0.34 -13.12,-1.5 -19.54,-3.22 -0.49,1.79 -0.98,3.57 -1.48,5.36 8.37,1.76 16.75,3.51 25.12,5.27 3.49,0.73 4.89,-4.25 1.47,-5.35 -9.15,-2.95 -19.01,-0.77 -27.97,-4.36 0.41,1.54 0.81,3.08 1.22,4.63 3.11,-3.6 14.27,0.87 17.9,2.07 0.49,-1.78 0.98,-3.55 1.47,-5.32 -8.83,-1.32 -17.68,-2.44 -26.55,-3.37 0.24,1.8 0.49,3.6 0.73,5.41 9.19,-1.62 18.08,-0.51 26.69,3.01 0.49,-1.76 0.97,-3.53 1.46,-5.29 -5.82,-2.33 -11.63,-4.66 -17.45,-6.99 -3.1,-1.24 -4.4,3.33 -2.11,5.01 4.05,2.97 12.69,10.34 18.27,8.44 5.55,-1.89 3.56,-12.24 3.68,-16.46 -1.69,0.46 -3.39,0.92 -5.08,1.38 2.06,4.23 4.11,8.46 6.17,12.69 1.24,2.56 4.96,1.14 5.06,-1.37 0.24,-6.25 0.89,-12.4 1.98,-18.56 -1.64,0.22 -3.29,0.43 -4.93,0.65 2.33,5.45 3.75,10.98 4.53,16.84 1.72,-0.47 3.44,-0.95 5.16,-1.42 -1.91,-8.19 -2.82,-16.39 -2.78,-24.79 0.01,-2.94 -4.37,-3.56 -5.14,-0.7 -0.57,2.14 -1.15,4.29 -1.72,6.43 1.7,0.23 3.4,0.46 5.11,0.69 0.31,-5.13 0.62,-10.26 0.93,-15.39 0.15,-2.4 -2.81,-3.13 -4.38,-1.81 -4.5,3.79 -8.37,7.97 -11.81,12.75 -1.88,2.61 2,4.91 4.13,3.19 3.76,-3.05 7.51,-6.1 11.26,-9.15 -1.47,-0.85 -2.93,-1.71 -4.4,-2.56 -1.42,6.29 -3.44,12.26 -6.22,18.09 1.58,0.67 3.16,1.33 4.75,2 1.08,-4.9 2.16,-9.8 3.24,-14.7 0.59,-2.69 -3.3,-4.68 -4.67,-1.97 -3.68,7.29 -7.35,14.59 -11.01,21.89 1.41,0.82 2.82,1.65 4.23,2.47 2.7,-5.73 5.42,-11.46 8.17,-17.17 0.79,-1.64 -0.58,-4.41 -2.71,-3.52 -8.31,3.48 -13.36,11.28 -21.44,15.02 1.08,1.08 2.15,2.15 3.23,3.23 3.48,-6.23 8.75,-10.75 15.6,-12.83 -0.73,-1.25 -1.46,-2.51 -2.19,-3.76 -5.73,5.97 -13.82,8.79 -19.7,14.66 -1.8,1.8 0.65,5.27 2.81,3.64 4.67,-3.53 9.51,-6.75 14.64,-9.56 2.07,-1.13 5.11,-4.07 2.7,-0.42 -1.58,2.4 -4.05,4.53 -6.07,6.56 -1.71,1.71 0.62,5.03 2.68,3.47 4.26,-3.24 8.52,-6.47 12.84,-9.64 1.75,-1.28 0.16,-4.2 -1.74,-2.98l0 0z"
   class="fil0" />
  <path
   style="fill:#101010;fill-opacity:1"
   id="path11"
   d="M46.19 45.12c-0.77,-0.05 -1.29,0.11 -2.02,0.33 -1.87,0.57 -2.44,0.43 -4.3,-0.58 -2.6,-1.42 -6.07,-2.67 -8.33,-4.57 0.26,0.63 0.52,1.26 0.78,1.89 -0,-0.09 -0.01,-0.19 -0.01,-0.28 -0.04,-1.18 -1.08,-2.59 -2.42,-2.42 -0.08,0.01 -0.16,0.02 -0.24,0.03 -1.33,0.17 -2.8,1.09 -2.67,2.67 0.18,2.06 1.2,2.69 2.89,3.59 2.41,1.28 4.9,2.43 7.37,3.57 1.6,0.74 3.48,1.88 5.33,1.49 1.99,-0.42 2.11,-2.71 3.94,-3.2 1.44,-0.38 1.07,-2.43 -0.34,-2.51l0 0z"
   class="fil0" />
  <path
   style="fill:#101010;fill-opacity:1"
   id="path13"
   d="M29.39 44.54c-4.75,5.51 -8.26,12.69 -11.39,19.22 -2.89,6.03 -6.15,12.95 -5.86,19.75 0.11,2.62 3.59,3 4.45,0.6 2.55,-7.06 3.6,-14.28 6.74,-21.23 2.6,-5.74 6.3,-11.04 8.48,-16.93 0.5,-1.34 -1.5,-2.48 -2.42,-1.41l0 0z"
   class="fil0" />
 </g>
</svg>
