<?xml version="1.0" encoding="UTF-8" standalone="no"?>
<svg
   xmlns:dc="http://purl.org/dc/elements/1.1/"
   xmlns:cc="http://creativecommons.org/ns#"
   xmlns:rdf="http://www.w3.org/1999/02/22-rdf-syntax-ns#"
   xmlns:svg="http://www.w3.org/2000/svg"
   xmlns="http://www.w3.org/2000/svg"
   xmlns:sodipodi="http://sodipodi.sourceforge.net/DTD/sodipodi-0.dtd"
   xmlns:inkscape="http://www.inkscape.org/namespaces/inkscape"
   inkscape:version="1.0 (4035a4fb49, 2020-05-01)"
   sodipodi:docname="whiskey.svg"
   version="1.1"
   width="512"
   viewBox="0 0 64 64"
   height="512"
   enable-background="new 0 0 64 64"
   id="Layer_5">
  <metadata
     id="metadata27">
    <rdf:RDF>
      <cc:Work
         rdf:about="">
        <dc:format>image/svg+xml</dc:format>
        <dc:type
           rdf:resource="http://purl.org/dc/dcmitype/StillImage" />
      </cc:Work>
    </rdf:RDF>
  </metadata>
  <defs
     id="defs25" />
  <sodipodi:namedview
     inkscape:current-layer="Layer_5"
     inkscape:window-maximized="1"
     inkscape:window-y="-8"
     inkscape:window-x="-8"
     inkscape:cy="256"
     inkscape:cx="225.5047"
     inkscape:zoom="1.2460938"
     showgrid="false"
     id="namedview23"
     inkscape:window-height="1027"
     inkscape:window-width="1920"
     inkscape:pageshadow="2"
     inkscape:pageopacity="0"
     guidetolerance="10"
     gridtolerance="10"
     objecttolerance="10"
     borderopacity="1"
     bordercolor="#666666"
     pagecolor="#ffffff" />
  <g
     style="fill:#bd8f12;fill-opacity:1"
     id="g20">
    <path
       style="fill:#bd8f12;fill-opacity:1"
       id="path2"
       d="m59 57h-1.184c.112-.314.184-.648.184-1 0-1.324-.867-2.437-2.059-2.834 4.209-2.403 7.059-6.927 7.059-12.11 0-2.153-.509-4.31-1.472-6.236l-3.91-7.82h-14.729l.052-.444c.039-.332.059-.664.059-.999 0-4.718-3.839-8.557-8.557-8.557h-5.443v-4.184c1.161-.414 2-1.514 2-2.816v-2c0-1.302-.839-2.402-2-2.816v-1.184c0-1.654-1.346-3-3-3h-8c-1.654 0-3 1.346-3 3v1.184c-1.161.414-2 1.514-2 2.816v2c0 1.302.839 2.402 2 2.816v4.184h-5.443c-4.718 0-8.557 3.839-8.557 8.557 0 .335.02.667.059 1.001l3.532 30.027c.297 2.517 2.431 4.415 4.966 4.415h24.443v2h28v-3c0-1.654-1.346-3-3-3zm-4-2c.552 0 1 .448 1 1s-.448 1-1 1h-14c-.552 0-1-.448-1-1s.448-1 1-1h5.944 2.111zm-5.944-2h-2.111c-6.587 0-11.945-5.358-11.945-11.944 0-.541.049-1.081.123-1.618 1.015-.285 1.982-.438 2.877-.438 1.011 0 3.125 1.036 5.364 2.134 3.515 1.722 7.889 3.866 11.636 3.866 1.645 0 3.917-.257 5.621-1.012-1.313 5.17-5.993 9.012-11.565 9.012zm-31.056-26c-3.309 0-6 2.691-6 6 0 2.32 1.325 4.332 3.256 5.33l-4.255 4.255-2.001-17.028c0-.307.25-.557.557-.557h19.029l-5.256 5.256c-.998-1.931-3.01-3.256-5.33-3.256zm-4 6c0-2.206 1.794-4 4-4s4 1.794 4 4-1.794 4-4 4-4-1.794-4-4zm3.442 5.972c.184.017.37.028.558.028 3.309 0 6-2.691 6-6 0-.188-.011-.374-.028-.558l7.442-7.442h3.029c.307 0 .557.25.552.63l-1.194 10.155-17.215 17.215h-4.361l-.926-7.884zm15.679.321c-.075.585-.121 1.173-.121 1.763 0 .363.027.719.055 1.075l-1.28 10.869h-12.361zm27.879 1.763c0 .899-2.621 1.944-6 1.944-2.109 0-4.575-.839-6.951-1.871 2.084-1.113 4.624-2.129 6.951-2.129 3.028 0 6 1.019 6 2.056zm-1.261-5.342c.379.758.665 1.559.875 2.38-1.655-.771-3.864-1.094-5.614-1.094-2.659 0-5.749 1.042-9.191 3.099-.536-.257-1.06-.514-1.564-.761-2.666-1.307-4.77-2.338-6.245-2.338-.756 0-1.55.094-2.366.259.177-.528.378-1.047.627-1.545l3.357-6.714h16.764zm-41.739-32.714h8c.552 0 1 .448 1 1v1h-10v-1c0-.552.448-1 1-1zm-3 5c0-.552.448-1 1-1h12c.552 0 1 .448 1 1v2c0 .552-.448 1-1 1h-12c-.552 0-1-.448-1-1zm2 5h10v4h-10zm-10.423 43.351-3.532-30.026c-.029-.256-.045-.512-.045-.768 0-3.616 2.941-6.557 6.557-6.557h24.887c3.615 0 6.556 2.941 6.556 6.557 0 .257-.016.513-.045.767l-.08.676h-2.494l-2.006 4.012.605-5.142c.013-.104.02-.208.02-.313 0-1.411-1.146-2.557-2.557-2.557h-24.886c-1.411 0-2.557 1.146-2.557 2.557 0 .105.007.212.018.3l3.427 29.143h23.109l.912-7.756c1.238 2.485 3.189 4.55 5.592 5.922-1.191.397-2.058 1.51-2.058 2.834 0 .352.072.686.184 1h-1.184c-1.302 0-2.402.839-2.816 2h-24.627c-1.521 0-2.802-1.139-2.98-2.649zm53.423 4.649h-24v-1c0-.552.448-1 1-1h4 14 4c.552 0 1 .448 1 1z" />
    <path
       style="fill:#bd8f12;fill-opacity:1"
       id="path4"
       transform="matrix(.707 -.707 .707 .707 -30.933 24.678)"
       d="m13.322 48.678h2v2h-2z" />
    <path
       style="fill:#bd8f12;fill-opacity:1"
       id="path6"
       transform="matrix(.707 -.707 .707 .707 -25.275 27.021)"
       d="m18.98 43.021h2v2h-2z" />
    <path
       style="fill:#bd8f12;fill-opacity:1"
       id="path8"
       transform="matrix(.707 -.707 .707 .707 -28.104 25.849)"
       d="m16.15 45.85h2v2h-2z" />
    <path
       style="fill:#bd8f12;fill-opacity:1"
       id="path10"
       transform="matrix(.707 -.707 .707 .707 -22.447 28.192)"
       d="m21.808 40.192h2v2h-2z" />
    <path
       style="fill:#bd8f12;fill-opacity:1"
       id="path12"
       transform="matrix(.707 -.707 .707 .707 -13.962 31.707)"
       d="m30.293 31.707h2v2h-2z" />
    <path
       style="fill:#bd8f12;fill-opacity:1"
       id="path14"
       transform="matrix(.707 -.707 .707 .707 -19.619 29.364)"
       d="m24.636 37.364h2v2h-2z" />
    <path
       style="fill:#bd8f12;fill-opacity:1"
       id="path16"
       transform="matrix(.707 -.707 .707 .707 -16.79 30.536)"
       d="m27.465 34.535h2v2h-2z" />
    <path
       style="fill:#bd8f12;fill-opacity:1"
       id="path18"
       d="m43 43h-2c-1.103 0-2 .897-2 2v2c0 1.103.897 2 2 2h2c1.103 0 2-.897 2-2v-2c0-1.103-.897-2-2-2zm-2 4v-2h2l.002 2z" />
  </g>
</svg>
