<?xml version="1.0" encoding="UTF-8" standalone="no"?>
<svg
   xmlns:dc="http://purl.org/dc/elements/1.1/"
   xmlns:cc="http://creativecommons.org/ns#"
   xmlns:rdf="http://www.w3.org/1999/02/22-rdf-syntax-ns#"
   xmlns:svg="http://www.w3.org/2000/svg"
   xmlns="http://www.w3.org/2000/svg"
   xmlns:sodipodi="http://sodipodi.sourceforge.net/DTD/sodipodi-0.dtd"
   xmlns:inkscape="http://www.inkscape.org/namespaces/inkscape"
   inkscape:version="1.0 (4035a4fb49, 2020-05-01)"
   sodipodi:docname="instagram.svg"
   id="svg10"
   viewBox="0 0 2109.46 2109.46"
   style="shape-rendering:geometricPrecision; text-rendering:geometricPrecision; image-rendering:optimizeQuality; fill-rule:evenodd; clip-rule:evenodd"
   version="1.1"
   height="27.7813mm"
   width="27.7812mm"
   xml:space="preserve"><metadata
   id="metadata14"><rdf:RDF><cc:Work
       rdf:about=""><dc:format>image/svg+xml</dc:format><dc:type
         rdf:resource="http://purl.org/dc/dcmitype/StillImage" /></cc:Work></rdf:RDF></metadata><sodipodi:namedview
   inkscape:current-layer="svg10"
   inkscape:window-maximized="1"
   inkscape:window-y="-8"
   inkscape:window-x="-8"
   inkscape:cy="52.500094"
   inkscape:cx="46.245977"
   inkscape:zoom="6.0761796"
   showgrid="false"
   id="namedview12"
   inkscape:window-height="1027"
   inkscape:window-width="1920"
   inkscape:pageshadow="2"
   inkscape:pageopacity="0"
   guidetolerance="10"
   gridtolerance="10"
   objecttolerance="10"
   borderopacity="1"
   bordercolor="#666666"
   pagecolor="#ffffff" />
 <defs
   id="defs4">
  <style
   id="style2"
   type="text/css">
   <![CDATA[
    .fil0 {fill:black}
   ]]>
  </style>
 </defs>
 <g
   style="fill:#f2f1ed;fill-opacity:1"
   id="Vrstva_x0020_1">
  <metadata
   id="CorelCorpID_0Corel-Layer" />
  <path
   style="fill:#f2f1ed;fill-opacity:1"
   id="path7"
   d="M1054.73 602.7c-249.26,0 -452.03,202.77 -452.03,452.03 0,249.26 202.77,452.03 452.03,452.03 249.26,0 452.03,-202.77 452.03,-452.03 0,-249.26 -202.77,-452.03 -452.03,-452.03zm0 602.7c-83.09,0 -150.68,-67.59 -150.68,-150.68 0,-83.09 67.59,-150.68 150.68,-150.68 83.09,0 150.68,67.59 150.68,150.68 0,83.09 -67.59,150.68 -150.68,150.68zm602.7 -1205.41l-1205.41 0c-249.26,0 -452.03,202.77 -452.03,452.03l0 1205.41c0,249.26 202.77,452.03 452.03,452.03l1205.41 0.01c249.26,0 452.03,-202.77 452.03,-452.03l0 -1205.41c0,-249.26 -202.77,-452.03 -452.03,-452.03l0 -0.01zm150.68 1657.44c0,83.09 -67.59,150.68 -150.68,150.68l-1205.41 -0.01c-83.09,0 -150.68,-67.59 -150.68,-150.68l0 -1205.41c0,-83.09 67.59,-150.68 150.68,-150.68l1205.41 0.01c83.09,0 150.68,67.59 150.68,150.68l0 1205.41z"
   class="fil0" />
 </g>
</svg>
