<?xml version="1.0" encoding="UTF-8" standalone="no"?>
<svg
   xmlns:dc="http://purl.org/dc/elements/1.1/"
   xmlns:cc="http://creativecommons.org/ns#"
   xmlns:rdf="http://www.w3.org/1999/02/22-rdf-syntax-ns#"
   xmlns:svg="http://www.w3.org/2000/svg"
   xmlns="http://www.w3.org/2000/svg"
   xmlns:sodipodi="http://sodipodi.sourceforge.net/DTD/sodipodi-0.dtd"
   xmlns:inkscape="http://www.inkscape.org/namespaces/inkscape"
   inkscape:version="1.0 (4035a4fb49, 2020-05-01)"
   sodipodi:docname="liquor.svg"
   version="1.1"
   width="512"
   viewBox="0 0 512 512"
   height="512"
   enable-background="new 0 0 512 512"
   id="Capa_1">
  <metadata
     id="metadata17">
    <rdf:RDF>
      <cc:Work
         rdf:about="">
        <dc:format>image/svg+xml</dc:format>
        <dc:type
           rdf:resource="http://purl.org/dc/dcmitype/StillImage" />
      </cc:Work>
    </rdf:RDF>
  </metadata>
  <defs
     id="defs15" />
  <sodipodi:namedview
     inkscape:current-layer="Capa_1"
     inkscape:window-maximized="1"
     inkscape:window-y="-8"
     inkscape:window-x="-8"
     inkscape:cy="256"
     inkscape:cx="225.5047"
     inkscape:zoom="1.2460938"
     showgrid="false"
     id="namedview13"
     inkscape:window-height="1027"
     inkscape:window-width="1920"
     inkscape:pageshadow="2"
     inkscape:pageopacity="0"
     guidetolerance="10"
     gridtolerance="10"
     objecttolerance="10"
     borderopacity="1"
     bordercolor="#666666"
     pagecolor="#ffffff" />
  <g
     style="fill:#bd8f12;fill-opacity:1"
     id="g10">
    <path
       style="fill:#bd8f12;fill-opacity:1"
       id="path2"
       d="m402.733 354.807c-2.926-2.826-7.587-2.743-10.411.181-2.825 2.925-2.744 7.586.181 10.411 11.745 11.344 18.482 27.213 18.482 43.539 0 8.592-1.782 16.923-5.298 24.762l-25.258 56.325c-1.974 4.404-6.37 7.25-11.197 7.25h-124.225c-4.827 0-9.223-2.845-11.197-7.251l-25.258-56.323c-3.516-7.839-5.298-16.171-5.298-24.763 0-22.976 13.344-44.327 33.996-54.396l10.634-5.186c21.576-10.518 35.517-32.825 35.517-56.828v-6.465h47.437v6.465c0 24.003 13.941 46.31 35.517 56.828 3.657 1.785 8.064.264 9.844-3.392 1.782-3.655.264-8.063-3.392-9.844-16.549-8.069-27.243-25.18-27.243-43.592v-97.022c0-9.689-7.883-17.571-17.571-17.571h-41.746c-9.689 0-17.571 7.883-17.571 17.571v97.022c0 18.412-10.694 35.523-27.244 43.592l-7.943 3.873v-133.515c0-25.356-12.805-48.608-34.252-62.2-2.239-1.418-3.574-3.777-3.574-6.311v-85.788c3.341-2.794 5.472-6.988 5.472-11.673v-25.289c0-8.391-6.827-15.217-15.217-15.217h-52.059c-8.391 0-15.217 6.826-15.217 15.217v25.289c0 4.686 2.132 8.881 5.473 11.674v85.787c0 2.534-1.336 4.893-3.574 6.311-21.447 13.592-34.252 36.843-34.252 62.2v12.875c0 4.067 3.296 7.363 7.363 7.363s7.363-3.296 7.363-7.363v-12.875c0-20.283 10.246-38.886 27.409-49.761 6.523-4.134 10.417-11.143 10.417-18.75v-16.39h42.095v16.39c0 7.607 3.894 14.617 10.417 18.75 17.163 10.876 27.409 29.479 27.409 49.761v73.124h-8.732c-.911 0-1.731-.486-2.141-1.267-9.095-17.35-26.904-28.128-46.476-28.128-19.571 0-37.379 10.778-46.475 28.128-.409.781-1.23 1.267-2.141 1.267h-11.784v-26.757c0-4.067-3.296-7.363-7.363-7.363s-7.363 3.296-7.363 7.363v232.157c.002 14.887 12.113 26.998 26.999 26.998h41.186c4.067 0 7.363-3.296 7.363-7.363s-3.296-7.363-7.363-7.363h-41.186c-6.767 0-12.272-5.505-12.272-12.272v-115.701h98.9c-7.282 11.729-11.387 25.433-11.387 39.637 0 10.683 2.217 21.041 6.586 30.788l22.562 50.309c-1.958 4.328-6.346 7.239-11.185 7.239h-17.21c-4.067 0-7.363 3.296-7.363 7.363s3.296 7.363 7.363 7.363h17.21c7.365 0 14.262-3.066 19.241-8.109 4.993 5.087 11.903 8.109 19.275 8.109h124.225c10.621 0 20.29-6.261 24.634-15.95l25.258-56.325c4.37-9.746 6.586-20.104 6.586-30.787.002-20.299-8.373-40.028-22.976-54.131zm-119.332-83.469v-34.834h47.437v34.834zm2.846-78.677h41.746c1.569 0 2.845 1.276 2.845 2.845v21.902h-47.437v-21.902c0-1.569 1.276-2.845 2.846-2.845zm-152.879-177.444c0-.27.221-.491.491-.491h52.059c.27 0 .491.221.491.491v25.289c0 .27-.221.491-.491.491h-52.059c-.27 0-.491-.221-.491-.491zm5.473 91.634v-51.128h42.095v51.128zm-37.826 187.477h11.784c6.404 0 12.222-3.508 15.183-9.156 6.544-12.484 19.355-20.239 33.432-20.239s26.889 7.755 33.433 20.239c2.961 5.648 8.779 9.156 15.183 9.156h8.732v54.354c-2.434 1.829-4.749 3.796-6.93 5.893h-110.817z" />
    <path
       style="fill:#bd8f12;fill-opacity:1"
       id="path4"
       d="m346.079 382.744c-1.023 0-2.06-.377-2.92-1.06-9.826-7.813-22.625-12.115-36.039-12.115-13.413 0-26.211 4.303-36.039 12.115-.86.684-1.897 1.06-2.92 1.06h-27.016c-4.639 0-8.767 2.598-10.775 6.781-2.008 4.182-1.452 9.029 1.451 12.649l10.422 12.997-10.422 12.997c-2.903 3.619-3.459 8.465-1.452 12.648 2.008 4.183 6.137 6.782 10.776 6.782h27.016c1.023 0 2.061.377 2.92 1.059 9.827 7.814 22.626 12.116 36.039 12.116 13.414 0 26.213-4.303 36.037-12.114.861-.685 1.899-1.061 2.922-1.061h27.016c4.639 0 8.768-2.599 10.776-6.782 2.007-4.183 1.451-9.029-1.452-12.648l-10.422-12.997 10.423-12.998c2.902-3.619 3.458-8.466 1.451-12.648-2.008-4.183-6.136-6.781-10.775-6.781zm13.037 39.905 8.199 10.225h-21.236c-4.337 0-8.628 1.512-12.086 4.26-7.231 5.749-16.775 8.916-26.874 8.916-10.098 0-19.642-3.167-26.876-8.918-3.455-2.746-7.746-4.258-12.084-4.258h-21.236l8.199-10.225c3.529-4.402 3.529-10.552-.001-14.955l-8.198-10.224h21.236c4.338 0 8.63-1.513 12.085-4.26 7.233-5.749 16.777-8.916 26.875-8.916 10.099 0 19.643 3.167 26.874 8.915 3.455 2.748 7.747 4.261 12.086 4.261h21.236l-8.199 10.225c-3.529 4.402-3.529 10.551 0 14.954z" />
    <path
       style="fill:#bd8f12;fill-opacity:1"
       id="path6"
       d="m144.572 307.689h28.287c4.067 0 7.363-3.296 7.363-7.363s-3.296-7.363-7.363-7.363h-28.287c-4.067 0-7.363 3.296-7.363 7.363s3.296 7.363 7.363 7.363z" />
    <path
       style="fill:#bd8f12;fill-opacity:1"
       id="path8"
       d="m188.299 321.718h-59.167c-4.067 0-7.363 3.296-7.363 7.363s3.296 7.363 7.363 7.363h59.167c4.067 0 7.363-3.296 7.363-7.363s-3.296-7.363-7.363-7.363z" />
  </g>
</svg>
