<?xml version="1.0" encoding="UTF-8"?>
<!DOCTYPE svg PUBLIC "-//W3C//DTD SVG 1.1//EN" "http://www.w3.org/Graphics/SVG/1.1/DTD/svg11.dtd">
<!-- Creator: CorelDRAW 2019 (64-Bit) -->
<svg xmlns="http://www.w3.org/2000/svg" xml:space="preserve" width="114.395mm" height="31.1867mm" version="1.1" style="shape-rendering:geometricPrecision; text-rendering:geometricPrecision; image-rendering:optimizeQuality; fill-rule:evenodd; clip-rule:evenodd"
viewBox="0 0 11250.4 3067.12"
 xmlns:xlink="http://www.w3.org/1999/xlink">
 <defs>
  <style type="text/css">
   <![CDATA[
    .fil1 {fill:#C5C6C6;fill-rule:nonzero}
    .fil0 {fill:#C3970E;fill-rule:nonzero}
   ]]>
  </style>
 </defs>
 <g id="Vrstva_x0020_1">
  <metadata id="CorelCorpID_0Corel-Layer"/>
  <path class="fil0" d="M2541.33 2816.65l-841.39 0c-2.87,-21.51 -21.12,-38.16 -43.43,-38.16 -24.32,0 -44.03,19.71 -44.03,43.99 0,24.32 19.71,44.03 44.03,44.03 22.31,0 40.52,-16.62 43.43,-38.17l841.39 0 0 -11.69z"/>
  <path class="fil0" d="M9593.94 2778.5c-22.34,0 -40.56,16.65 -43.44,38.16l-682.03 0 0 11.69 682.03 0c2.88,21.55 21.1,38.2 43.44,38.2 24.29,0 44.03,-19.74 44.03,-44.03 0,-24.32 -19.74,-44.02 -44.03,-44.02z"/>
  <path class="fil0" d="M3084.32 2859.88c0,-16.87 0,-27.41 -0.7,-30.92 -0.73,-7 -4.23,-12.63 -9.13,-17.55 -7.04,-6.31 -22.48,-7.04 -47.08,-0.69l-113.1 28.1 0 160.16c0,18.97 6.31,32.3 18.28,41.45 10.54,6.31 25.26,9.82 44.24,9.82l50.58 0c16.17,0 29.49,-3.51 40.04,-11.24 11.24,-7.74 16.87,-21.07 16.87,-40.04l0 -139.09zm-170 -285.92l0 248 131.35 -31.61c17.58,-4.23 28.14,-11.28 33.02,-21.78 3.51,-7.05 5.63,-20.37 5.63,-40.74l0 -103.28c0,-19.67 -4.93,-33.03 -14.05,-40.74 -8.43,-6.34 -23.18,-9.85 -44.27,-9.85l-111.68 0zm-132.78 -15.47l312.64 0c35.11,0 61.82,7.74 80.07,23.21 17.55,14.05 25.94,34.45 25.94,61.13l0 65.33c0,38.61 -16.13,63.21 -47.74,74.45 31.61,11.24 47.74,36.54 47.74,75.88l0 124.31c0,28.83 -8.39,49.89 -24.53,63.25 -16.9,14.04 -44.31,21.06 -81.49,21.06l-312.64 0 0 -16.86c14.78,0 25.29,-2.08 30.95,-7.01 6.27,-5.63 9.12,-16.87 9.12,-34.45l0 -143.98c-9.12,2.8 -15.47,5.62 -18.97,8.43 -5.63,4.93 -8.44,11.93 -8.44,21.78l-11.97 3.51 0 -39.38 39.38 -10.51 0 -231.83c0,-17.55 -2.84,-28.76 -9.12,-34.41 -5.65,-4.93 -16.17,-7.01 -30.95,-7.01l0 -16.9z"/>
  <path class="fil0" d="M3554.55 2558.5l171.39 0 0 16.86c-11.93,0 -21.06,2.81 -27.37,9.16 -4.89,4.9 -10.51,16.14 -16.87,32.31l-118.03 330.15 0 61.83c0,17.55 2.84,28.83 9.16,34.45 4.9,4.89 15.44,7 30.92,7l0 16.87 -181.25 0 0 -16.87c15.44,0 25.95,-2.11 30.92,-7 6.31,-5.63 9.82,-16.9 9.82,-34.45l0 -69.53c-88.5,-207.27 -134.19,-315.45 -137.71,-324.57 -5.62,-13.37 -12.63,-23.18 -20.33,-29.49 -9.16,-6.35 -21.78,-9.85 -37.26,-9.85l0 -16.86 98.33 0c19.67,0 35.15,12.66 46.39,38.65l101.86 236.02 70.95 -216.35c5.63,-17.59 5.63,-29.49 -0.69,-35.15 -4.2,-4.2 -14.05,-6.31 -30.22,-6.31l0 -16.86z"/>
  <path class="fil0" d="M4322.08 2558.5l181.94 0 0 16.86c-15.44,0 -25.98,2.11 -30.88,7.04 -6.34,5.63 -9.85,16.83 -9.85,34.42l0 391.98c0,17.55 3.51,28.83 9.85,34.45 4.9,4.89 15.44,7 30.88,7l0 16.87 -181.94 0 0 -16.87c15.48,0 26.02,-2.11 30.92,-7 6.31,-5.63 9.85,-16.9 9.85,-34.45l0 -221.28 -198.84 52.01 0 169.28c0,17.55 2.84,28.83 9.16,34.45 5.63,4.89 16.14,7 30.91,7l0 16.87 -181.24 0 0 -16.87c14.75,0 25.29,-2.11 30.92,-7 6.31,-5.63 9.12,-16.9 9.12,-34.45l0 -143.29c-16.17,4.93 -24.6,14.74 -24.6,29.49l-11.24 3.53 0 -39.38 35.84 -9.82 0 -232.52c0,-17.59 -2.8,-28.8 -9.12,-34.42 -5.63,-4.93 -16.17,-7.04 -30.92,-7.04l0 -16.86 181.24 0 0 16.86c-14.77,0 -25.29,2.11 -30.91,7.04 -6.31,5.63 -9.16,16.83 -9.16,34.42l0 206.54 198.84 -52.01 0 -154.53c0,-17.59 -3.54,-28.8 -9.85,-34.42 -4.9,-4.93 -15.44,-7.04 -30.92,-7.04l0 -16.86z"/>
  <path class="fil0" d="M5024.42 3067.11l-132.08 0 -98.33 -240.96c-6.35,-14.74 -16.9,-20.36 -33.02,-16.17l-5.63 -14.01 138.39 -37.26c14.75,-4.19 21.75,-14.74 21.75,-31.6l0 -100.44c0,-18.98 -6.31,-33 -18.24,-41.46 -10.55,-6.31 -25.29,-9.82 -44.28,-9.82l-117.3 0 0 433.41c0,17.58 3.5,28.83 9.82,34.45 4.93,4.93 15.48,7 30.22,7l0 16.87 -180.56 0 0 -16.87c14.78,0 25.29,-2.08 30.95,-7 6.28,-5.63 9.13,-16.87 9.13,-34.45l0 -391.98c0,-17.55 -2.84,-28.8 -9.13,-34.42 -5.65,-4.93 -16.17,-7 -30.95,-7l0 -16.9 380.08 0c11.21,0 21.03,3.53 28.77,9.84 7.73,7.74 11.97,17.56 11.97,29.53l0 120.11c0,6.31 -3.54,13.32 -9.85,19.67 -6.31,6.31 -13.36,9.85 -19.67,11.94l-0.7 0 -0.7 0 -106.1 28.83 96.98 236.72c4.19,10.55 10.51,19.67 18.24,25.95 8.43,6.35 18.25,9.16 30.22,9.16l0 16.87z"/>
  <path class="fil0" d="M5542.69 2936.45c0,39.34 -11.24,69.53 -30.22,92.74 -21.78,25.29 -53.39,37.91 -95.54,37.91l-135.59 0c-42.85,0 -75.12,-13.36 -96.93,-40.04 -18.95,-23.17 -28.11,-54.78 -28.11,-94.86l-0.66 -314.67c0,-17.59 -2.81,-29.49 -9.16,-35.15 -5.63,-4.93 -16.14,-7.01 -30.92,-7.01l0 -16.9 179.86 0 0 16.9c-13.36,0 -22.48,1.39 -28.1,4.9 -7.74,4.23 -11.94,16.86 -11.94,37.26l0 381.43c0,16.17 4.2,28.8 12.63,37.95 8.44,9.13 21.07,13.33 38.62,13.33l73.79 0c9.13,0 16.87,-0.7 24.57,-2.81 6.35,-1.39 12.67,-4.2 18.98,-7.7 11.93,-7.74 18.24,-21.1 18.24,-40.08l0 -382.86c0,-17.55 -3.5,-28.76 -9.82,-34.41 -4.93,-4.93 -15.47,-7.01 -30.88,-7.01l0 -16.9 181.94 0 0 16.9c-16.2,0 -26.02,2.08 -30.91,7.01 -6.31,6.34 -9.85,17.55 -9.85,34.41l0 319.65z"/>
  <path class="fil0" d="M5957.71 2384.99l-75.87 101.87 -75.88 0 -75.84 -101.87 42.84 0 0 11.24 70.96 56.21 70.95 -56.21 0 -11.24 42.85 0zm54.78 327.38l-81.5 31.61 0 -16.17c8.47,-4.93 14.09,-10.54 17.55,-16.83 3.54,-7.07 4.97,-16.2 4.97,-28.14l0 -56.21c0,-16.13 -4.97,-28.8 -14.05,-37.88 -9.16,-9.16 -22.51,-13.39 -41.46,-13.39l-51.28 0c-20.36,0 -35.8,2.81 -45.65,9.13 -11.94,7.74 -18.28,21.78 -18.28,42.15l0 47.08c0,16.17 4.23,28.8 13.36,37.92l137.71 101.17 58.28 46.35c14.05,11.28 21.07,29.53 21.07,54.82l0 68.83c0,28.8 -8.44,49.89 -25.27,63.22 -16.2,14.05 -43.57,21.1 -81.49,21.1l-164.35 0c-21.82,0 -39.38,-7.04 -51.32,-21.1 -10.54,-11.94 -15.47,-28.07 -15.47,-47.74l0 -85 84.34 -31.65 0 16.9c-14.78,6.28 -21.79,18.25 -21.79,36.51l0 63.91c0,19.01 5.59,32.34 17.55,40.76 9.82,7.01 23.87,10.54 42.85,10.54l42.15 0c20.34,0 35.81,-3.53 45.66,-9.82 11.93,-7.74 18.28,-21.1 18.28,-41.49l0 -47.05c0,-18.28 -4.23,-30.91 -13.36,-37.92l-137.71 -101.17 -58.32 -46.35c-13.33,-10.54 -20.37,-28.8 -20.37,-54.82l0 -68.83c0,-28.8 7.74,-49.85 23.87,-63.21 16.9,-14.05 44.28,-21.1 81.5,-21.1l168.58 0c42.89,0 63.95,20.36 63.95,61.82l0 92.04z"/>
  <path class="fil0" d="M6574.28 3067.11l-134.14 0 -135.62 -240.96c-10.51,0 -18.24,3.51 -24.56,11.24 -5.65,6.31 -9.17,14.05 -9.85,23.18l-11.94 3.5 0 -40.04 151.03 -265.55 138.39 0 0 16.9 -3.5 0c-20.37,0 -35.81,8.43 -46.39,25.98l-107.48 186.13c87.16,149.65 132.12,226.91 134.89,230.45 13.36,21.75 30.22,32.3 49.16,32.3l0 16.87zm-469.94 -508.62l181.24 0 0 16.9c-15.47,0 -26.02,2.08 -30.91,7 -6.35,5.63 -9.82,16.87 -9.82,34.42l0 391.98c0,17.58 3.47,28.83 9.82,34.45 4.89,4.93 15.44,7 30.91,7l0 16.87 -181.24 0 0 -16.87c14.74,0 25.29,-2.08 30.91,-7 6.31,-5.63 9.09,-16.87 9.09,-34.45l0 -391.98c0,-17.55 -2.77,-28.8 -9.09,-34.42 -5.62,-4.93 -16.17,-7 -30.91,-7l0 -16.9z"/>
  <path class="fil0" d="M6894.93 3050.26c9.82,0 18.21,-0.73 24.53,-2.81 6.35,-1.42 12.67,-4.2 17.59,-8.43 11.24,-7.74 16.86,-21.06 16.86,-40.08l0 -372.27c0,-31.64 -16.86,-48.47 -49.85,-51.31l-44.28 0c-45.65,0 -87.8,0 -125.77,-0.7l0 424.28c0,19.02 5.63,32.34 17.59,40.08 4.93,4.23 10.54,7.01 16.83,8.43 6.31,2.08 14.78,2.81 25.32,2.81l101.17 0zm151.72 -67.45c0,28.8 -8.43,49.89 -24.6,63.22 -16.87,14.08 -44.24,21.1 -81.5,21.1l-192.45 0c-37.96,0 -65.37,-7.01 -81.5,-21.1 -16.17,-13.33 -24.6,-34.42 -24.6,-63.22l0 -340.01c0,-28.8 8.43,-49.86 24.6,-63.22 16.13,-14.05 43.54,-21.1 80.76,-21.1l196.72 0c35.81,0 61.79,7.04 78.69,21.79 16.13,13.36 23.87,33.72 23.87,62.52l0 340.01z"/>
  <path class="fil0" d="M7399.36 2558.5l198.11 0 0 16.86c-11.97,0 -23.17,2.11 -33.75,6.31 -12.6,4.93 -21.03,13.36 -25.27,25.29l-125.73 408.88c-6.31,20.37 -2.81,30.88 10.47,33 7.74,0.69 14.78,1.42 21.12,1.42l0 16.87 -198.83 0 0 -16.87c14.78,0 24.6,-1.42 29.52,-4.23 6.35,-4.2 7.01,-11.94 3.5,-23.18l-129.27 -415.88c-6.31,-21.06 -25.95,-31.61 -58.29,-31.61l0 -16.86 101.14 0c14.08,0 27.4,3.53 39.34,11.24 12.67,7.73 21.1,18.28 24.6,30.91l92.01 294.35 82.89 -281.69c3.54,-14.75 3.54,-24.57 0,-29.53 -4.2,-5.62 -14.71,-8.43 -31.58,-8.43l0 -16.86z"/>
  <path class="fil0" d="M7846.46 3067.11l-181.27 0 0 -16.87c14.77,0 25.29,-2.08 30.94,-7 6.31,-5.63 9.13,-16.87 9.13,-34.45l0.7 0.73 0 -382.86c0,-21.79 -2.81,-36.54 -9.13,-42.85 -4.93,-5.63 -15.47,-8.43 -31.64,-8.43l0 -16.9 82.92 0c16.17,0 29.52,3.53 40.04,10.54 11.94,8.43 21.1,18.98 28.8,32.34l160.88 276.8 0 -261.36c0,-17.55 -2.8,-28.8 -9.16,-34.42 -4.89,-4.93 -15.47,-7 -30.88,-7l0 -16.9 181.21 0 0 16.9c-15.47,0 -25.98,2.08 -30.91,7 -6.31,5.63 -9.1,16.87 -9.1,34.42l-0.73 -0.7 0 451 -82.89 0 -117.33 -201.61 -72.34 -122.92 0 266.22c0,17.58 3.54,28.83 9.82,34.45 4.97,4.93 15.48,7 30.95,7l0 16.87z"/>
  <path class="fil0" d="M8423.94 2853.57l-35.14 -114.53 -45.62 136.28 80.76 -21.75zm-96.24 213.55l-164.38 0 0 -16.17c12.7,0 22.51,-3.51 29.48,-11.24 6.35,-6.31 11.97,-17.55 16.9,-33l29.49 -89.24 -7.04 1.39c-18.25,4.93 -27.38,14.78 -27.38,30.92l-11.24 2.8 0 -39.31 51.28 -13.36 94.83 -284.5c9.16,-26.67 -0.7,-40.07 -29.49,-40.07l0 -16.87 80.07 0c14.78,0 26.72,2.81 34.45,9.17 7.71,6.27 14.05,15.43 18.25,28.76l29.45 99.08 99.78 329.46c2.84,9.13 7.04,16.14 11.94,19.68 4.96,3.5 13.36,5.62 25.29,5.62l0 16.87 -174.2 0 0 -16.87c13.37,0 22.52,-1.43 28.14,-4.23 9.06,-4.93 9.82,-18.25 3.44,-40.04l-42.09 -136.98 -90.66 23.91 -39.34 115.87c-5.63,16.87 -4.9,28.11 1.42,34.45 4.93,4.9 15.48,7.71 31.61,7.71l0 16.17z"/>
  <path class="fil1" d="M2752.75 1654.46c35.77,-13.26 56.86,-16.17 65.29,-8.67 12.7,7.39 17,35.32 10.83,83.68 -6.15,51.73 -12.28,103.46 -18.43,155.12 -6.21,43.22 -20.85,73.72 -41.88,91.56 -14.7,10.16 -42.08,15.29 -82.15,15.4l-177.02 0.45c-56.9,0.17 -101.21,-12.21 -130.76,-34.52 -35.95,-29.77 -55.09,-79.28 -55.31,-146.35 -0.62,-171.46 -1.21,-342.92 -1.8,-514.38 103.12,-36.92 206.29,-74.11 309.44,-111.58 18.94,-8.29 33.72,-6.31 44.31,0.87 14.78,9.55 21.16,32.1 23.39,64.88 11.24,-4.61 22.44,-9.19 33.68,-13.81 -0.28,-77.61 -0.51,-155.22 -0.8,-232.84 -11.2,4.69 -22.44,9.37 -33.65,14.09 0.11,37.92 -10.34,66.16 -29.25,84.62 -10.54,7.98 -31.53,18.91 -61.02,30.18 -95.45,34.87 -190.89,69.53 -286.34,103.94 -1.07,-308.12 -2.14,-616.24 -3.23,-924.37 118.04,-9.92 236.06,-19.33 354.13,-28.18 44.28,-3.32 75.95,4.51 97.12,20.71 25.35,21.03 38.13,58.25 38.34,111.61 0.17,54.16 0.34,108.32 0.52,162.51 0.21,55.86 -20.78,92.6 -62.9,112.66 0.07,20.26 0.14,40.56 0.21,60.82 81.46,-30.57 162.89,-61.2 244.35,-91.87l-1.46 -460.29c-364.26,25.22 -728.24,55.68 -1091.81,91.34 0.07,19.46 0.14,38.93 0.21,58.39 44.24,-4.23 75.85,0.15 92.74,15.73 19.01,17.83 27.59,56.23 27.82,117.41 1.01,285.5 1.99,571 2.99,856.47 -39.31,13.74 -78.59,27.45 -117.9,41.08 0.18,46.18 0.31,92.4 0.49,138.57 11.93,-4.41 23.87,-8.81 35.81,-13.26 -0.15,-38.96 8.18,-66.02 24.98,-83.68 6.31,-5.09 25.26,-13.07 56.83,-26.4 0.52,150.88 1.04,301.77 1.56,452.69 0.24,61.2 -8.08,100.41 -27,120.04 -16.79,17.18 -48.37,24.61 -92.63,24.74 0.07,19.42 0.14,38.89 0.21,58.32l1057.95 0c18.38,-179.61 36.77,-359.65 55.16,-540.05 -87.75,29.9 -175.49,59.64 -263.2,89.12 0.07,17.77 0.11,35.49 0.18,53.23z"/>
  <path class="fil1" d="M4502.14 96.8c61.89,373.38 72.51,575.93 74.67,602.44 24.63,-0.48 49.26,-0.93 73.9,-1.39 25.64,-202.16 51.35,-404.57 77.06,-607.12 -0.04,-30.22 -0.07,-60.47 -0.11,-90.74 -75.22,1.88 -150.43,3.99 -225.65,6.35 0.03,30.15 0.1,60.3 0.14,90.45z"/>
  <path class="fil1" d="M5732.82 1258.01c-58.36,-59.09 -116.75,-118.13 -175.14,-177.12 -137.88,-128.65 -275.89,-256.91 -413.94,-384.27 -27.48,-34.59 -40.17,-82.68 -40.21,-144.27l-0.17 -179.43c-0.07,-77.65 18.94,-131.46 54.85,-161.37 29.56,-24.46 76.05,-35.7 137.32,-36.22 51.42,-0.41 102.87,-0.77 154.29,-0.97 57.07,-0.28 97.22,15.78 124.69,50.62 27.48,34.83 42.26,83.16 42.26,144.86l0 214.65c0,45.59 -4.24,80.49 -14.78,107.35 -10.55,24.11 -27.45,45.62 -52.77,64.43l0 61.68c81.64,-40.34 163.28,-80.53 244.94,-120.52 0.04,-117.13 0.07,-234.26 0.11,-351.42 0.03,-158.21 -63.38,-236.48 -192.28,-236.45 -169.11,0.11 -338.21,1.36 -507.27,3.68 -112.03,1.6 -194.39,29.98 -245.04,84.38 -48.54,51.73 -71.69,132.33 -71.55,241.79 0.11,87.22 0.21,174.45 0.31,261.66 0.14,98.81 21.34,167.93 61.48,207.51 58.47,58.08 116.92,116.33 175.38,174.75 137.98,127.37 275.93,255.54 413.77,384.08 27.41,26.78 40.08,75.08 40.12,144.82 0,59.91 0,119.84 0.03,179.75 0.04,77.79 -18.94,128.79 -54.75,158.28 -29.52,24.14 -75.85,37.58 -137.01,37.61 -42.15,0 -84.3,0.04 -126.46,0.04 -56.89,0.03 -99.06,-13.37 -128.61,-40.11 -35.84,-32.1 -52.77,-82.89 -52.84,-155.12 -0.07,-81.16 -0.14,-162.3 -0.21,-243.46 -0.07,-69.56 20.99,-115.14 65.22,-139.47 0,-21.41 -0.03,-42.82 -0.07,-64.26 -84.34,40.63 -168.66,81.29 -252.96,121.92 0.11,107.69 0.25,215.38 0.38,323.11 0.1,74.73 14.92,136.11 46.63,181.52 35.88,53.4 88.58,80.15 153.9,80.15l493.15 0c113.8,0 196,-26.82 244.49,-80.5 50.59,-50.96 75.88,-131.42 75.91,-241.4 0.04,-87.64 0.07,-175.27 0.07,-262.92 0.04,-96.59 -21.06,-166.35 -63.25,-209.34z"/>
  <path class="fil1" d="M7374.22 1274.39c-58.21,-58.92 -116.43,-118 -174.68,-177.22 -137.57,-129.51 -275.2,-259.76 -412.94,-390.32 -27.37,-35.14 -39.97,-83.3 -39.86,-144.46 0.1,-59.44 0.21,-118.87 0.31,-178.3 0.1,-77.12 19.22,-129.83 55.16,-158.03 29.59,-23.03 76.08,-32.27 137.39,-30.21 51.38,1.69 102.8,3.53 154.18,5.44 57.04,2.12 97.15,19.57 124.52,54.93 27.38,35.39 42.05,83.41 41.92,143.95 -0.18,70.29 -0.34,140.55 -0.52,210.8 -0.07,44.76 -4.41,78.9 -14.99,104.96 -10.61,23.39 -27.55,43.99 -52.91,61.79 -0.07,20.23 -0.1,40.45 -0.14,60.68 81.71,-37.47 163.37,-74.53 245.12,-111.16 0.28,-114.59 0.52,-229.12 0.84,-343.72 0.37,-154.67 -62.74,-233.94 -191.59,-239.52 -168.96,-7.19 -338.03,-13.23 -507.06,-18.15 -111.96,-3.3 -194.39,21.44 -245.19,73.72 -48.64,49.65 -71.99,129.38 -72.1,238.94 -0.1,87.25 -0.25,174.55 -0.34,261.8 -0.11,98.85 20.96,168.59 60.99,209.17 58.35,59.51 116.61,119.01 174.93,178.4 137.67,129.73 275.26,259.07 412.76,387.62 27.37,26.78 39.97,74.52 39.79,143.21 -0.11,59.02 -0.25,118.07 -0.38,177.08 -0.17,76.64 -19.26,126.81 -55.12,155.85 -29.53,23.76 -75.95,36.95 -137.05,36.88 -42.19,-0.04 -84.34,-0.07 -126.46,-0.14 -56.89,-0.04 -99.06,-13.39 -128.54,-40.11 -35.77,-32.03 -52.53,-82.68 -52.43,-154.67 0.11,-80.84 0.25,-161.68 0.35,-242.55 0.07,-69.29 21.23,-114.5 65.57,-138.01 0.04,-21.3 0.07,-42.61 0.11,-63.95 -84.41,39.1 -168.86,78.48 -253.31,118 -0.14,107.76 -0.24,215.52 -0.34,323.29 -0.11,74.76 14.58,136.28 46.14,181.7 35.77,53.42 88.4,80.07 153.74,80.07l493.11 0c113.84,0 196.09,-26.37 244.67,-78.8 50.72,-49.89 76.19,-128.47 76.46,-235.99 0.25,-85.69 0.45,-171.42 0.66,-257.12 0.21,-94.44 -20.68,-163 -62.77,-205.84z"/>
  <path class="fil1" d="M8400.63 271.63c46.42,3.29 77.99,13.18 92.74,31.98 18.87,21.66 29.32,62.87 29.07,126.15 -0.62,185.62 -1.25,371.2 -1.87,556.82 -199.08,53.64 -398.23,109.74 -597.34,167.78 0.76,-253.55 1.49,-507.1 2.25,-760.69 0.21,-64.66 8.78,-105.61 27.79,-125.18 16.93,-17.1 48.64,-22.96 92.91,-20.26l0.21 -61.86c-181.45,-11.52 -363.01,-21.75 -544.6,-30.67 -0.04,20.96 -0.11,41.92 -0.18,62.87 44.34,2.08 75.98,11.52 92.85,30.64 18.94,21.85 27.26,64.04 27.06,129.31 -0.76,288.07 -1.52,576.14 -2.29,864.25 -35.91,11.38 -71.78,22.79 -107.65,34.27 -0.14,48.92 -0.25,97.77 -0.38,146.69 11.24,-4.2 22.55,-8.4 33.79,-12.56 0.14,-54.93 25.5,-91.08 74.08,-108.39 -0.49,177.57 -0.97,355.1 -1.43,532.67 -0.17,65.26 -8.7,106.99 -27.75,127.85 -16.87,18.28 -48.53,26.09 -92.77,25.98 -0.07,20.96 -0.14,41.91 -0.18,62.86l543.7 0c0.07,-20.6 0.14,-41.22 0.21,-61.82 -44.27,-0.11 -75.87,-7.92 -92.63,-26.06 -18.91,-20.74 -27.2,-62.17 -27,-126.88 0.59,-207.82 1.22,-415.67 1.81,-623.49 199.14,-58.47 398.26,-114.98 597.33,-169.11 -0.89,265.76 -1.8,531.53 -2.7,797.29 -0.21,63.25 -10.89,103.7 -29.91,123.93 -14.81,17.69 -46.45,25.22 -92.84,25.12 -0.07,20.33 -0.14,40.66 -0.21,61.02l545.85 0c0.04,-19.85 0.14,-39.72 0.21,-59.57 -46.38,-0.14 -77.95,-7.7 -92.66,-25.23 -18.87,-20.01 -29.25,-60.05 -29.04,-122.5l4.86 -1393.73c0.21,-62.41 10.9,-101.54 29.94,-120 14.78,-16.24 46.46,-21.13 92.78,-17.21 0.1,-19.88 0.17,-39.72 0.24,-59.61 -181.93,-15.88 -363.94,-30.46 -546.02,-43.74 -0.07,20.37 -0.14,40.73 -0.21,61.06z"/>
  <path class="fil1" d="M9909.04 1824.27c-0.18,63.41 -17.17,107.87 -50.96,133.6 -14.82,14.05 -33.8,23.42 -52.77,28.07 -18.98,7.01 -44.31,9.3 -73.8,9.2 -101.13,-0.34 -202.3,-0.7 -303.44,-1.04 -31.61,-0.1 -56.89,-2.64 -75.87,-9.99 -18.94,-4.93 -35.74,-14.71 -50.48,-29.42 -35.66,-27.04 -52.42,-73.62 -52.18,-139.61 1.74,-492.11 3.44,-984.22 5.17,-1476.33 113.69,12.94 240.06,25.08 376.82,39.06 44.17,4.47 88.4,9.09 132.53,13.74 98.88,20.05 149.15,81.95 148.84,187.53 -1.28,415.08 -2.57,830.14 -3.85,1245.19zm210.35 -1377.38c-50.31,-54.34 -127.99,-86.95 -235.27,-99.02 -196.27,-22.03 -392.68,-42.54 -589.22,-61.56 -111.61,-10.79 -193.88,6.28 -242.45,51.52 -48.68,42.71 -74.21,115.15 -74.57,216.85 -1.42,399.99 -2.8,799.99 -4.23,1199.98 -0.34,101.65 24.7,176.32 73.03,223.4 48.23,49.62 130.35,74.11 244.18,74.08l577.43 0c111.68,-0.03 193.94,-23.42 244.67,-69.49 48.57,-43.78 74.08,-112.59 74.32,-207.02l3.02 -1115.47c0.28,-94.47 -22.66,-163.72 -70.92,-213.27z"/>
  <path class="fil1" d="M10950.11 1039.93c-0.07,58.53 -4.37,101.51 -14.88,124.55 -12.63,31.58 -42.12,51.07 -86.25,61.03 -82.02,18.15 -164.07,36.95 -246.16,56.37 0.52,-264.93 1.04,-529.86 1.56,-794.82 79.76,10.17 159.53,20.57 239.25,31.23 37.78,5.06 64.99,21.86 81.78,47.95 16.76,26.12 25.12,66.23 25.05,120.39 -0.1,117.79 -0.24,235.54 -0.34,353.3zm233.22 -453.54c-48.23,-53.39 -117.34,-87.15 -207.51,-99.95 -243.94,-34.56 -488.16,-66.72 -732.61,-96.52 -0.04,18.35 -0.11,36.74 -0.14,55.12 50.4,5.94 84.03,21.44 100.75,46.18 14.67,26.82 20.89,75.28 20.68,148.07 -0.59,238.15 -1.15,476.26 -1.74,714.4 -33.68,9.57 -67.41,19.29 -101.13,29.11 -0.11,42.77 -0.21,85.55 -0.34,128.33 9.88,-3.43 19.7,-6.84 29.52,-10.24 0.07,-32.06 8.57,-54.54 23.35,-69.84 10.58,-10.94 25.29,-19.36 48.47,-25.05 -0.34,152.45 -0.73,304.86 -1.11,457.28 -0.14,56.89 -8.67,93.22 -25.53,111.37 -14.85,15.85 -40.11,22.62 -80.14,22.48 -0.07,18.32 -0.11,36.67 -0.18,54.99l451.03 0c0.04,-17.69 0.07,-35.39 0.07,-53.08 -44.24,-0.18 -73.72,-11.45 -88.43,-31.64 -10.47,-20.12 -16.72,-62.59 -16.58,-131.8 0.34,-166.75 0.66,-333.42 0.97,-500.12 175.41,-43.37 350.73,-83.93 525.83,-121.29 81.94,-27.76 121.84,-97.85 121.84,-213.69l0 -221.25c0,-82.15 -23.03,-146.3 -67.06,-192.87z"/>
  <path class="fil1" d="M423.33 1870.32c-0.31,-227.22 -0.63,-454.43 -0.94,-681.61 -104.04,-189.57 -207.85,-373.59 -311.42,-551.58 7.32,25.23 10.65,59.22 10.65,103.74 0.18,378.11 0.34,756.21 0.52,1134.35 0,53.29 -10.47,87.57 -29.45,104.67 -14.74,14.99 -46.32,21.52 -92.67,21.72l0 50.55 543.7 0c-0.03,-17.69 -0.03,-35.39 -0.07,-53.12 -44.27,0.21 -75.87,-6.28 -92.77,-21.55 -18.98,-17.45 -27.48,-52.39 -27.55,-107.17z"/>
  <path class="fil1" d="M459.36 590.46c-46.32,-80.01 -113.49,-114.22 -201.58,-101.62 -85.98,12.21 -171.87,24.73 -257.78,37.51l0 50.58c14.99,-2.15 28.41,-2.25 40.56,-0.77 -0.14,-0.1 -0.25,-0.17 -0.38,-0.24 24.01,1.98 38.93,6.59 38.9,6.59 44.72,12.49 81.49,42.29 110.46,88.86 205.74,357.32 412.45,738.06 619.72,1138.44 -0.03,0.03 -0.07,0.1 -0.07,0.17 41.42,79.98 82.93,160.71 124.38,242.17 48.41,-101.2 96.8,-203.52 145.17,-306.87 -54.54,-107.24 -109.09,-213.2 -163.52,-317.8 -152.31,-289.99 -304.31,-569.52 -455.85,-837.01z"/>
  <path class="fil1" d="M941.79 1370.65c54.47,104.57 108.98,210.49 163.48,317.7 100.55,-215.76 200.99,-436.04 301.37,-660.38 0.89,276.1 1.77,552.24 2.64,828.34 0.17,58.98 -10.24,96.86 -29.15,115.77 -14.7,16.58 -46.31,23.77 -92.63,23.91 0.04,18.74 0.11,37.47 0.18,56.17l543.7 0 -0.21 -58.07c-44.24,0.14 -75.88,-7.01 -92.81,-23.8 -19.02,-19.19 -27.59,-57.56 -27.79,-117.69 -2.11,-423.17 -4.27,-846.27 -6.38,-1269.34 -0.28,-79.35 7.95,-135.41 22.58,-165.73 18.84,-35.52 52.46,-55.79 103.01,-60.68 -0.07,-19.36 -0.14,-38.72 -0.21,-58.11 -141.07,14.08 -282.07,28.97 -422.96,44.65 -154.77,352.22 -309.69,695.22 -464.81,1027.28z"/>
  <path class="fil1" d="M3487.5 1835.06c-0.8,-289.25 -1.62,-578.5 -2.46,-867.75 -102.53,-211.64 -205.11,-421.09 -307.71,-627.94 4.3,25.74 6.42,58.14 6.52,96.9 1.46,467.82 2.92,935.61 4.38,1403.43 -0.73,-0.84 -1.43,-1.7 -2.15,-2.54 0.21,64.36 -8.04,105.62 -27,126.26 -16.79,18.08 -48.4,25.85 -92.63,25.95 0.07,20.51 0.14,41.01 0.21,61.51 181.25,0 362.46,-0.03 543.74,-0.03 -0.07,-20.85 -0.14,-41.7 -0.18,-62.59 -46.39,0.07 -78.03,-7.7 -92.84,-25.88 -19.01,-20.74 -29.7,-62.31 -29.88,-127.33z"/>
  <path class="fil1" d="M3430.12 210.35c-31.75,-24.14 -71.85,-34.77 -120.39,-31.82 -83.02,5.06 -166.02,10.38 -249.01,15.96l0.21 61.55c36.74,-2.39 63.81,1.84 81.22,12.56 -0.22,-0.41 -0.38,-0.8 -0.59,-1.21 13.49,5.06 26.26,11.24 37.64,19.74 30.5,24.35 54.72,55.2 75.67,93.02 62.59,126.7 125.19,254.35 187.73,382.86 14.05,29 28.07,58.04 42.08,87.12l0 -0.48c72.87,149.08 145.72,299.24 218.55,450.4 118.03,247.93 236.02,498.39 353.92,750.8l248.65 0c-0.03,-21.48 -0.07,-42.99 -0.14,-64.51 -269.85,-578.29 -540.37,-1147.98 -811.16,-1701.46 -18.36,-29.36 -39.21,-54.16 -64.4,-74.53z"/>
  <path class="fil1" d="M3879.9 211.25c46.45,-2.08 78.13,4.47 92.98,22.31 19.05,20.33 27.59,62.14 27.72,128.02 0.69,287.03 1.32,574.06 1.98,861.09 101.03,213.06 201.99,427.75 302.88,643.69 -0.93,-505.92 -1.91,-1011.84 -2.88,-1517.79 0.74,0.87 1.47,1.74 2.15,2.61 -0.14,-66.27 8.22,-108.98 27.2,-130.83 14.74,-19.05 46.42,-28.04 92.91,-29.45 -0.03,-21.27 -0.1,-42.51 -0.14,-63.78 -181.7,5.73 -363.35,12.74 -544.95,21.07 0.04,21.03 0.11,42.04 0.15,63.07z"/>
 </g>
</svg>
