<?xml version="1.0" encoding="UTF-8"?>
<!DOCTYPE svg PUBLIC "-//W3C//DTD SVG 1.1//EN" "http://www.w3.org/Graphics/SVG/1.1/DTD/svg11.dtd">
<!-- Creator: CorelDRAW 2019 (64-Bit) -->
<svg xmlns="http://www.w3.org/2000/svg" xml:space="preserve" width="42.7221mm" height="116.296mm" version="1.1" style="shape-rendering:geometricPrecision; text-rendering:geometricPrecision; image-rendering:optimizeQuality; fill-rule:evenodd; clip-rule:evenodd"
viewBox="0 0 708.55 1928.79"
 xmlns:xlink="http://www.w3.org/1999/xlink">
 <defs>
  <style type="text/css">
   <![CDATA[
    .fil1 {fill:#C5C6C6;fill-rule:nonzero}
    .fil0 {fill:#C3970E;fill-rule:nonzero}
   ]]>
  </style>
 </defs>
 <g id="Vrstva_x0020_1">
  <metadata id="CorelCorpID_0Corel-Layer"/>
  <path class="fil0" d="M354.28 622.62c-188.45,0 -341.77,153.32 -341.77,341.77 0,188.45 153.32,341.77 341.77,341.77 188.45,0 341.77,-153.32 341.77,-341.77 0,-188.46 -153.32,-341.77 -341.77,-341.77zm0 696.05c-195.35,0 -354.28,-158.93 -354.28,-354.28 0,-195.35 158.93,-354.28 354.28,-354.28 195.35,0 354.28,158.93 354.28,354.28 0,195.35 -158.93,354.28 -354.28,354.28z"/>
  <path class="fil0" d="M354.28 660.13c-167.77,0 -304.26,136.5 -304.26,304.26 0,167.77 136.49,304.26 304.26,304.26 167.77,0 304.26,-136.49 304.26,-304.26 0,-167.77 -136.49,-304.26 -304.26,-304.26zm0 612.69c-170.07,0 -308.43,-138.36 -308.43,-308.43 0,-170.07 138.36,-308.43 308.43,-308.43 170.07,0 308.43,138.36 308.43,308.43 0,170.07 -138.36,308.43 -308.43,308.43z"/>
  <path class="fil1" d="M358.48 643.47l-0.08 0c-3.46,-0.04 -6.21,-2.88 -6.17,-6.34 0.05,-3.38 2.84,-6.13 6.21,-6.13 1.75,0 3.34,0.67 4.5,1.84 1.17,1.21 1.79,2.78 1.76,4.45 -0.05,3.42 -2.84,6.17 -6.21,6.17zm-21.8 0.46c-3.33,0 -6.09,-2.58 -6.25,-5.92 -0.09,-1.67 0.5,-3.3 1.59,-4.5 1.12,-1.25 2.67,-2 4.34,-2.09 3.66,0 6.41,2.59 6.58,5.92 0.17,3.46 -2.46,6.38 -5.92,6.59l-0.34 0zm43.51 0.54l-0.5 0c-3.42,-0.29 -6,-3.29 -5.71,-6.75 0.25,-3.21 2.96,-5.75 6.21,-5.75l0.5 0c1.67,0.16 3.17,0.91 4.25,2.21 1.09,1.25 1.63,2.87 1.5,4.55 -0.25,3.21 -3,5.75 -6.25,5.75zm-65.18 1.33c-3.17,0 -5.83,-2.37 -6.21,-5.49 -0.21,-1.67 0.25,-3.34 1.29,-4.63 1.05,-1.34 2.5,-2.17 4.17,-2.34 3.42,-0.46 6.54,2.08 6.96,5.46 0.21,1.66 -0.29,3.29 -1.29,4.58 -1.05,1.33 -2.55,2.16 -4.21,2.38 -0.21,0 -0.46,0.04 -0.71,0.04zm86.82 1.08c-0.29,0 -0.58,0 -0.88,-0.04 -1.67,-0.25 -3.12,-1.12 -4.12,-2.46 -1,-1.33 -1.42,-3 -1.17,-4.67 0.46,-3.34 3.63,-5.79 7.09,-5.25 3.42,0.46 5.8,3.67 5.29,7.09 -0.46,3.04 -3.12,5.33 -6.21,5.33zm-108.37 2.21c-3,0 -5.58,-2.17 -6.13,-5.09 -0.29,-1.67 0.04,-3.34 1,-4.71 0.91,-1.37 2.33,-2.29 4,-2.58 3.42,-0.67 6.66,1.62 7.29,4.96 0.63,3.38 -1.62,6.67 -5,7.29 -0.37,0.09 -0.75,0.13 -1.16,0.13zm129.84 1.67c-0.46,0 -0.88,-0.09 -1.34,-0.16 -1.62,-0.33 -3.04,-1.29 -3.96,-2.71 -0.88,-1.42 -1.21,-3.08 -0.84,-4.72 0.71,-3.29 4.08,-5.5 7.42,-4.79 0.04,0 0.09,0 0.17,0.05 1.54,0.37 2.87,1.33 3.75,2.67 0.92,1.42 1.2,3.08 0.88,4.71 -0.63,2.88 -3.17,4.96 -6.09,4.96zm-151.05 3.04c-2.87,0 -5.33,-1.92 -6.09,-4.67 -0.41,-1.63 -0.16,-3.29 0.67,-4.75 0.88,-1.42 2.21,-2.46 3.84,-2.88 3.29,-0.83 6.79,1.21 7.62,4.51 0.88,3.33 -1.16,6.75 -4.5,7.62 -0.55,0.13 -1.04,0.17 -1.55,0.17zm172.14 2.21c-0.59,0 -1.17,-0.08 -1.71,-0.25 -1.63,-0.47 -2.92,-1.5 -3.75,-2.96 -0.8,-1.46 -1,-3.17 -0.55,-4.76 0.92,-3.21 4.46,-5.21 7.71,-4.3 1.63,0.46 2.96,1.5 3.75,2.96 0.83,1.5 1,3.17 0.54,4.79 -0.75,2.67 -3.21,4.5 -6,4.5zm-193.02 3.96c-2.71,0 -5.13,-1.71 -5.96,-4.29 -0.5,-1.59 -0.42,-3.25 0.33,-4.75 0.75,-1.5 2.05,-2.63 3.63,-3.13 3.21,-1.08 6.83,0.75 7.92,3.97 1.08,3.25 -0.71,6.79 -3.96,7.92 -0.67,0.2 -1.29,0.29 -1.96,0.29zm213.73 2.75c-0.71,0 -1.41,-0.12 -2.08,-0.37 -3.25,-1.17 -4.96,-4.8 -3.79,-8.01 1.16,-3.16 4.83,-4.91 8,-3.74 1.58,0.54 2.83,1.66 3.54,3.21 0.71,1.5 0.79,3.21 0.21,4.76 -0.88,2.5 -3.25,4.16 -5.88,4.16zm-234.15 4.79c-2.59,0 -4.84,-1.54 -5.84,-3.91 -0.62,-1.54 -0.58,-3.25 0.04,-4.79 0.63,-1.46 1.8,-2.63 3.25,-3.25 0.04,-0.03 0.13,-0.08 0.16,-0.08 3.13,-1.29 6.88,0.3 8.13,3.42 1.34,3.21 -0.21,6.87 -3.42,8.17 -0.75,0.29 -1.54,0.45 -2.33,0.45zm254.41 3.26c-0.88,0 -1.71,-0.17 -2.5,-0.5 -1.54,-0.67 -2.71,-1.92 -3.29,-3.46 -0.63,-1.54 -0.58,-3.25 0.08,-4.78 1.34,-3.08 5.13,-4.59 8.26,-3.21 1.5,0.67 2.67,1.87 3.29,3.46 0.63,1.54 0.58,3.26 -0.09,4.75 -0.99,2.3 -3.25,3.76 -5.75,3.76zm-274.3 5.62c-2.38,0 -4.59,-1.37 -5.63,-3.55 -0.71,-1.5 -0.83,-3.16 -0.29,-4.75 0.54,-1.59 1.67,-2.88 3.17,-3.59 3.05,-1.5 6.92,-0.17 8.38,2.88 0.75,1.5 0.84,3.21 0.29,4.78 -0.54,1.55 -1.67,2.84 -3.17,3.55 -0.88,0.46 -1.79,0.66 -2.75,0.66zm293.97 3.79c-1,0 -2,-0.25 -2.88,-0.71 -3.04,-1.58 -4.25,-5.38 -2.67,-8.41 1.54,-2.96 5.46,-4.21 8.42,-2.67 1.5,0.75 2.59,2.08 3.08,3.66 0.5,1.59 0.37,3.29 -0.42,4.75 -1.08,2.09 -3.21,3.38 -5.54,3.38zm-313.18 6.38c-2.25,0 -4.34,-1.21 -5.42,-3.17 -0.84,-1.42 -1.04,-3.12 -0.63,-4.75 0.46,-1.59 1.46,-2.91 2.91,-3.75 2.88,-1.67 6.88,-0.59 8.55,2.29 0.83,1.46 1.04,3.12 0.63,4.75 -0.46,1.63 -1.5,2.96 -2.96,3.8 -0.92,0.54 -2,0.83 -3.08,0.83zm332.18 4.3c-1.16,0 -2.29,-0.3 -3.25,-0.93 -1.46,-0.83 -2.46,-2.21 -2.84,-3.83 -0.42,-1.62 -0.13,-3.29 0.71,-4.71 1.75,-2.87 5.75,-3.88 8.63,-2.12 2.92,1.79 3.87,5.67 2.08,8.58 -1.17,1.92 -3.17,3.01 -5.34,3.01zm-350.69 7.12c-2.09,0 -4.04,-1.04 -5.21,-2.79 -0.91,-1.37 -1.25,-3.04 -0.91,-4.67 0.33,-1.67 1.25,-3.04 2.67,-3.96 2.75,-1.87 6.79,-1.04 8.66,1.71 0.92,1.41 1.25,3.05 0.92,4.72 -0.33,1.62 -1.29,3.04 -2.67,3.96 -1.04,0.71 -2.21,1.04 -3.46,1.04zm368.9 4.84c-1.29,0 -2.54,-0.42 -3.59,-1.17 -1.37,-0.96 -2.29,-2.38 -2.58,-4.04 -0.29,-1.63 0.08,-3.3 1.04,-4.67 1.92,-2.71 6,-3.42 8.71,-1.5 2.83,2 3.5,5.87 1.54,8.71 -1.17,1.67 -3.09,2.67 -5.13,2.67zm-386.62 7.83c-1.96,0 -3.79,-0.92 -4.96,-2.46 -1.03,-1.33 -1.46,-3 -1.25,-4.63 0.21,-1.67 1.08,-3.13 2.42,-4.13 2.67,-2.04 6.71,-1.5 8.75,1.18 1,1.28 1.46,2.96 1.21,4.58 -0.21,1.67 -1.04,3.12 -2.37,4.16 -1.09,0.83 -2.42,1.29 -3.8,1.29zm404 5.25c-1.42,0 -2.79,-0.46 -3.92,-1.37 -2.67,-2.18 -3.08,-6.13 -0.92,-8.8 2.09,-2.59 6.17,-3 8.75,-0.92 1.33,1.05 2.13,2.55 2.33,4.17 0.17,1.67 -0.33,3.29 -1.37,4.63 -1.21,1.46 -2.95,2.29 -4.87,2.29zm-420.84 8.54c-1.79,0 -3.54,-0.79 -4.71,-2.12 -2.29,-2.63 -2,-6.59 0.58,-8.83 2.5,-2.17 6.63,-1.92 8.83,0.57 2.25,2.59 2.01,6.55 -0.58,8.84 -0.05,0 -0.08,0.04 -0.13,0.04 -1.12,0.96 -2.54,1.5 -4,1.5zm437.35 5.71c-1.59,0 -3.09,-0.57 -4.25,-1.67 -2.54,-2.33 -2.67,-6.29 -0.33,-8.83 2.21,-2.42 6.38,-2.58 8.79,-0.33 1.25,1.12 1.96,2.67 2.04,4.34 0.04,1.66 -0.54,3.25 -1.67,4.5 -1.16,1.25 -2.87,2 -4.58,2zm-453.27 9.17c-1.67,0 -3.21,-0.66 -4.42,-1.84 -1.16,-1.21 -1.83,-2.74 -1.83,-4.42 0.03,-1.67 0.67,-3.25 1.83,-4.41 2.37,-2.38 6.5,-2.38 8.83,0 2.46,2.42 2.46,6.37 0.04,8.83 -1.21,1.18 -2.75,1.84 -4.46,1.84zm468.77 6.12c-1.71,0 -3.38,-0.71 -4.55,-1.95 -2.37,-2.5 -2.29,-6.46 0.21,-8.84 2.46,-2.29 6.55,-2.21 8.88,0.25 2.33,2.46 2.25,6.46 -0.25,8.83 -1.16,1.08 -2.7,1.71 -4.29,1.71zm-483.65 9.75c-1.5,0 -2.95,-0.54 -4.08,-1.54 -2.63,-2.25 -2.88,-6.21 -0.59,-8.83 2.17,-2.46 6.3,-2.75 8.79,-0.58 1.25,1.12 2,2.62 2.13,4.29 0.12,1.67 -0.42,3.29 -1.55,4.54 -1.17,1.38 -2.88,2.13 -4.71,2.13zm498.12 6.51c-1.88,0 -3.63,-0.8 -4.84,-2.25 -2.21,-2.67 -1.83,-6.59 0.84,-8.8 2.54,-2.12 6.67,-1.75 8.79,0.8 2.21,2.67 1.83,6.63 -0.8,8.83 -1.12,0.92 -2.54,1.42 -4,1.42zm-511.91 10.37c-1.37,0 -2.67,-0.45 -3.79,-1.28 -1.33,-1.05 -2.16,-2.5 -2.37,-4.17 -0.25,-1.63 0.21,-3.29 1.2,-4.58 2.05,-2.71 6.13,-3.21 8.8,-1.17 2.71,2.04 3.25,5.96 1.21,8.67 -0.04,0.04 -0.04,0.04 -0.04,0.07 -1.21,1.55 -3,2.46 -5,2.46zm525.25 6.84c-2.01,0 -3.92,-0.96 -5.09,-2.58 -0.96,-1.34 -1.37,-3 -1.08,-4.67 0.25,-1.62 1.12,-3.08 2.5,-4.08 2.71,-1.96 6.8,-1.29 8.71,1.42 2.04,2.8 1.42,6.71 -1.37,8.71 -1.08,0.79 -2.33,1.21 -3.66,1.21zm-537.88 10.88c-1.25,0 -2.42,-0.38 -3.46,-1.05 -1.41,-0.91 -2.33,-2.33 -2.66,-3.95 -0.34,-1.67 0,-3.34 0.91,-4.71 1.83,-2.75 5.88,-3.59 8.67,-1.75 1.37,0.92 2.33,2.33 2.67,3.96 0.34,1.67 0,3.33 -0.92,4.71 -0.04,0.05 -0.04,0.09 -0.08,0.13 -1.17,1.67 -3.08,2.67 -5.13,2.67zm550.05 7.17c-2.17,0 -4.13,-1.12 -5.3,-2.96 -0.88,-1.42 -1.17,-3.08 -0.8,-4.7 0.38,-1.63 1.34,-3.01 2.75,-3.92 2.84,-1.75 6.84,-0.84 8.63,2 0.88,1.42 1.17,3.09 0.8,4.71 -0.38,1.63 -1.34,3 -2.76,3.92 -1,0.63 -2.16,0.96 -3.33,0.96zm-561.52 11.38c-1.08,0 -2.16,-0.29 -3.08,-0.84 -1.46,-0.83 -2.5,-2.16 -2.96,-3.78 -0.42,-1.59 -0.21,-3.3 0.63,-4.76 1.62,-2.87 5.63,-3.97 8.54,-2.29 1.42,0.83 2.46,2.17 2.92,3.79 0.42,1.58 0.21,3.29 -0.63,4.71 0,0.03 -0.05,0.08 -0.05,0.12 -1.12,1.87 -3.16,3.04 -5.38,3.04zm572.47 7.42c-2.33,0 -4.42,-1.25 -5.55,-3.29 -0.79,-1.46 -0.96,-3.17 -0.46,-4.75 0.46,-1.63 1.54,-2.92 3.04,-3.72 2.92,-1.62 6.88,-0.41 8.46,2.55 0.8,1.46 0.96,3.13 0.46,4.76 -0.46,1.58 -1.54,2.92 -3,3.7 -0.92,0.5 -1.96,0.75 -2.96,0.75zm-582.64 11.84c-0.95,0 -1.87,-0.21 -2.75,-0.63 -1.5,-0.75 -2.63,-2 -3.16,-3.58 -0.54,-1.54 -0.46,-3.17 0.21,-4.63 0.04,-0.05 0.04,-0.13 0.08,-0.17 1.46,-3 5.34,-4.34 8.38,-2.88 1.5,0.75 2.63,2 3.16,3.59 0.54,1.58 0.42,3.3 -0.29,4.79 -1.09,2.16 -3.25,3.5 -5.63,3.5zm592.31 7.62c-2.46,0 -4.72,-1.41 -5.71,-3.67 -0.71,-1.5 -0.75,-3.21 -0.17,-4.75 0.59,-1.59 1.75,-2.84 3.25,-3.5 3.04,-1.41 6.92,0.04 8.29,3.09 1.41,3.12 0.05,6.83 -3.08,8.29 -0.83,0.37 -1.71,0.54 -2.58,0.54zm-601.19 12.3c-0.79,0 -1.58,-0.16 -2.38,-0.46 -1.54,-0.63 -2.75,-1.84 -3.38,-3.38 -0.67,-1.54 -0.67,-3.25 -0.04,-4.8 1.25,-3.08 5,-4.7 8.13,-3.42 3.21,1.29 4.75,4.96 3.46,8.13 -1,2.37 -3.25,3.92 -5.79,3.92zm609.52 7.79c-2.58,0 -4.96,-1.63 -5.87,-4.04 -1.21,-3.25 0.42,-6.83 3.67,-8.04 3.12,-1.18 6.87,0.5 8.05,3.62 1.21,3.21 -0.41,6.83 -3.63,8.04 -0.75,0.29 -1.46,0.42 -2.21,0.42zm-617.07 12.67c-0.66,0 -1.33,-0.12 -1.96,-0.33 -1.59,-0.5 -2.88,-1.63 -3.63,-3.13 -0.75,-1.46 -0.88,-3.17 -0.33,-4.75 1.04,-3.21 4.67,-5.08 7.88,-4 1.59,0.54 2.88,1.67 3.63,3.12 0.75,1.5 0.87,3.21 0.38,4.8 -0.88,2.54 -3.25,4.29 -5.97,4.29zm624.03 7.96c-2.75,0 -5.17,-1.79 -5.96,-4.45 -0.5,-1.59 -0.34,-3.3 0.46,-4.76 0.8,-1.46 2.09,-2.54 3.72,-3.04 3.29,-1 6.79,0.92 7.79,4.17 1,3.33 -0.88,6.83 -4.17,7.79 -0.63,0.2 -1.21,0.29 -1.84,0.29zm-630.16 12.92c-0.5,0 -1.04,-0.03 -1.54,-0.2 -3.34,-0.83 -5.38,-4.25 -4.5,-7.59 0,-0.04 0,-0.12 0.05,-0.16 0.91,-3.16 4.33,-5.17 7.58,-4.34 3.34,0.83 5.34,4.25 4.46,7.63 -0.71,2.75 -3.16,4.66 -6.04,4.66zm635.74 8.09c-2.91,0 -5.41,-1.96 -6.09,-4.83 -0.37,-1.63 -0.08,-3.29 0.8,-4.72 0.87,-1.42 2.29,-2.42 3.92,-2.79 3.29,-0.79 6.71,1.37 7.5,4.71 0.37,1.63 0.08,3.29 -0.84,4.71 -0.87,1.41 -2.25,2.42 -3.87,2.8 -0.46,0.08 -0.96,0.12 -1.42,0.12zm-640.45 13.17c-0.37,0 -0.74,-0.04 -1.12,-0.12 -3.42,-0.63 -5.67,-3.88 -5,-7.26l0 -0.16c0.71,-3.25 3.87,-5.5 7.29,-4.83 1.62,0.29 3.04,1.21 4,2.58 0.91,1.38 1.29,3.04 0.96,4.72 -0.54,2.96 -3.12,5.08 -6.13,5.08zm644.62 8.21c-3.09,0 -5.67,-2.21 -6.17,-5.25 -0.54,-3.41 1.79,-6.63 5.21,-7.17 3.46,-0.58 6.59,1.79 7.12,5.17 0.59,3.42 -1.75,6.63 -5.17,7.17 -0.33,0.08 -0.67,0.08 -1,0.08zm-647.92 13.29c-0.25,0 -0.5,0 -0.71,-0.04 -3.45,-0.37 -5.87,-3.5 -5.5,-6.92 0.42,-3.42 3.55,-5.87 6.96,-5.51 3.42,0.42 5.88,3.55 5.46,6.96 -0.37,3.17 -3.04,5.5 -6.21,5.5zm652.28 32.5c-3.25,0 -5.92,-2.42 -6.21,-5.67 -0.33,-3.42 2.21,-6.46 5.63,-6.79 3.5,-0.3 6.51,2.21 6.79,5.63 0.33,3.45 -2.21,6.49 -5.63,6.83l-0.58 0zm-1.62 -24.2c-3.25,0 -5.92,-2.42 -6.21,-5.67 -0.33,-3.42 2.21,-6.46 5.63,-6.79 3.51,-0.29 6.51,2.21 6.8,5.63 0.33,3.46 -2.21,6.5 -5.63,6.83l-0.59 0zm-652.5 13.42l-0.33 0c-3.42,-0.21 -6.04,-3.08 -5.92,-6.46l0 -0.12c0.16,-3.33 2.92,-5.92 6.25,-5.92 2,0.09 3.5,0.84 4.63,2.05 1.12,1.25 1.71,2.87 1.63,4.54 -0.21,3.29 -2.92,5.92 -6.25,5.92zm-0.37 21.76l-0.04 0c-3.42,0 -6.21,-2.75 -6.25,-6.17 -0.04,-1.67 0.59,-3.25 1.76,-4.46 1.16,-1.16 2.75,-1.83 4.42,-1.88 3.46,0 6.3,2.76 6.34,6.17 0.04,3.46 -2.75,6.29 -6.17,6.34l-0.04 0zm653.58 17.3c-0.04,0 -0.37,0 -0.41,-0.04 -1.67,-0.09 -3.17,-0.84 -4.3,-2.09 -1.08,-1.29 -1.62,-2.87 -1.54,-4.54 0.25,-3.29 2.96,-5.83 6.25,-5.83l0.42 0c3.42,0.25 6.04,3.21 5.84,6.62 -0.25,3.29 -2.96,5.88 -6.25,5.88zm-652.62 4.46c-3.25,0 -6,-2.54 -6.25,-5.75 -0.13,-1.67 0.42,-3.29 1.5,-4.54 1.08,-1.29 2.58,-2.04 4.25,-2.21l0.5 0c3.25,0 5.96,2.54 6.21,5.75 0.29,3.46 -2.29,6.46 -5.71,6.75l-0.5 0zm650.5 17.21c-0.29,0 -0.59,-0.04 -0.83,-0.09 -3.42,-0.45 -5.84,-3.62 -5.38,-7l0 -0.08c0.5,-3.34 3.59,-5.75 7,-5.3 1.67,0.21 3.12,1.08 4.17,2.38 1,1.33 1.46,3 1.21,4.62 -0.42,3.12 -3.08,5.46 -6.17,5.46zm-648.08 4.42c-3.04,0 -5.71,-2.29 -6.17,-5.33 -0.5,-3.42 1.87,-6.63 5.3,-7.13 3.5,-0.5 6.58,1.96 7.09,5.29 0.25,1.67 -0.17,3.29 -1.17,4.63 -1,1.33 -2.46,2.21 -4.12,2.46 -0.29,0.04 -0.59,0.08 -0.92,0.08zm644.49 17.05c-0.41,0 -0.84,-0.04 -1.25,-0.13 -3.38,-0.71 -5.59,-4 -4.92,-7.38 0.67,-3.29 3.96,-5.59 7.38,-4.87 3.38,0.67 5.58,3.96 4.92,7.33 -0.58,2.92 -3.17,5.05 -6.13,5.05zm-640.61 4.38c-2.92,0 -5.46,-2.09 -6.09,-4.96 -0.71,-3.34 1.41,-6.67 4.79,-7.42 3.34,-0.71 6.71,1.5 7.42,4.79 0.33,1.63 0.04,3.34 -0.84,4.72 -0.91,1.41 -2.34,2.37 -3.96,2.7 -0.42,0.12 -0.88,0.17 -1.33,0.17zm635.61 16.79c-0.58,0 -1.12,-0.08 -1.67,-0.2 -1.62,-0.46 -2.96,-1.5 -3.79,-2.96 -0.83,-1.42 -1.04,-3.12 -0.58,-4.71 0.88,-3.25 4.38,-5.29 7.67,-4.42 1.63,0.46 2.96,1.5 3.79,2.96 0.84,1.41 1.05,3.12 0.59,4.75 -0.71,2.71 -3.21,4.58 -6,4.58zm-630.32 4.34c-2.75,0 -5.21,-1.87 -6,-4.54 -0.46,-1.63 -0.25,-3.29 0.54,-4.75 0.84,-1.46 2.17,-2.54 3.76,-3 3.25,-0.92 6.79,1.08 7.75,4.29 0.92,3.33 -1,6.79 -4.29,7.75 -0.59,0.16 -1.17,0.25 -1.75,0.25zm623.9 16.47c-0.71,0 -1.37,-0.09 -2.04,-0.34 -3.3,-1.12 -5,-4.67 -3.87,-7.96 1.08,-3.17 4.75,-4.96 7.96,-3.84 1.54,0.54 2.84,1.67 3.55,3.17 0.75,1.5 0.83,3.16 0.29,4.75 -0.84,2.54 -3.21,4.21 -5.88,4.21zm-617.15 4.25c-2.67,0 -5,-1.67 -5.92,-4.12 -0.54,-1.58 -0.5,-3.29 0.21,-4.79 0.71,-1.5 2,-2.67 3.54,-3.25 3.21,-1.12 6.88,0.62 8,3.78 1.17,3.21 -0.5,6.84 -3.75,8.01 -0.67,0.25 -1.38,0.37 -2.09,0.37zm609.32 16.13c-0.83,0 -1.67,-0.16 -2.42,-0.5 -3.17,-1.33 -4.67,-5.04 -3.34,-8.21 1.29,-3.08 5.09,-4.62 8.21,-3.29 3.17,1.33 4.63,5 3.29,8.17 -0.96,2.34 -3.21,3.83 -5.75,3.83zm-601.27 4.04c-2.5,0 -4.75,-1.46 -5.75,-3.74 -0.67,-1.54 -0.71,-3.21 -0.08,-4.8 0.63,-1.54 1.79,-2.74 3.34,-3.42 3.08,-1.37 6.87,0.13 8.21,3.21 1.37,3.12 -0.04,6.84 -3.21,8.22 -0.79,0.37 -1.63,0.53 -2.5,0.53zm592.15 15.71l-0.04 0c-0.96,0 -1.92,-0.2 -2.79,-0.67 -1.5,-0.75 -2.59,-2.04 -3.13,-3.62 -0.5,-1.59 -0.37,-3.25 0.37,-4.76 1.5,-3 5.38,-4.29 8.38,-2.75 3.08,1.55 4.34,5.3 2.8,8.39 -1.09,2.12 -3.25,3.41 -5.59,3.41zm-582.77 3.92c-2.33,0 -4.46,-1.29 -5.54,-3.38 -0.75,-1.5 -0.92,-3.16 -0.42,-4.75 0.5,-1.63 1.59,-2.92 3.09,-3.67 2.96,-1.58 6.87,-0.33 8.42,2.62 0.79,1.5 0.91,3.17 0.41,4.8 -0.5,1.59 -1.58,2.87 -3.04,3.67 -0.91,0.46 -1.87,0.71 -2.91,0.71zm572.3 15.21c-1.12,0 -2.21,-0.28 -3.17,-0.83 -1.46,-0.88 -2.5,-2.25 -2.91,-3.88 -0.37,-1.59 -0.17,-3.29 0.71,-4.71 1.67,-2.87 5.67,-3.91 8.54,-2.21 1.46,0.84 2.46,2.21 2.88,3.84 0.42,1.63 0.16,3.29 -0.67,4.75 -1.12,1.88 -3.17,3.04 -5.38,3.04zm-561.59 3.72c-2.21,0 -4.21,-1.12 -5.38,-3 -0.84,-1.42 -1.12,-3.08 -0.71,-4.71 0.37,-1.62 1.37,-3 2.83,-3.87 2.84,-1.75 6.83,-0.75 8.59,2.08 0.83,1.41 1.12,3.12 0.71,4.75 -0.37,1.63 -1.37,2.96 -2.79,3.83 -1,0.63 -2.13,0.92 -3.25,0.92zm549.88 14.67c-1.25,0 -2.46,-0.37 -3.5,-1.08 -1.42,-0.96 -2.34,-2.37 -2.63,-4 -0.33,-1.67 0.04,-3.34 1,-4.67 1.83,-2.76 5.92,-3.54 8.67,-1.63 2.83,1.92 3.59,5.83 1.63,8.67 -1.17,1.7 -3.09,2.7 -5.17,2.7zm-537.96 3.55c-2.04,0 -3.96,-1 -5.12,-2.68 -0.96,-1.37 -1.34,-2.99 -1.04,-4.66 0.29,-1.63 1.2,-3.08 2.54,-4.04 2.75,-1.91 6.84,-1.16 8.71,1.55 0.96,1.33 1.33,3 1.04,4.67 -0.25,1.62 -1.17,3.08 -2.54,4.04 -1.04,0.75 -2.29,1.13 -3.59,1.13zm525.08 14c-1.42,0 -2.75,-0.45 -3.87,-1.33 -1.29,-1 -2.13,-2.5 -2.33,-4.17 -0.21,-1.63 0.25,-3.29 1.29,-4.59 2.09,-2.62 6.13,-3.12 8.79,-1.04 2.71,2.12 3.17,6.05 1.05,8.75 -1.21,1.54 -3,2.37 -4.92,2.37zm-511.99 3.38c-1.87,0 -3.67,-0.83 -4.83,-2.34 -1.08,-1.29 -1.54,-2.92 -1.37,-4.58 0.16,-1.67 1,-3.17 2.29,-4.21 2.59,-2.09 6.71,-1.67 8.79,0.95 0.05,0.05 0.09,0.09 0.09,0.12 1,1.25 1.42,2.84 1.25,4.46 -0.17,1.67 -0.96,3.12 -2.29,4.21 -1.13,0.87 -2.46,1.37 -3.92,1.37zm497.95 13.29c-1.54,0 -3,-0.54 -4.17,-1.59 -2.55,-2.33 -2.75,-6.29 -0.46,-8.83 2.21,-2.46 6.38,-2.67 8.84,-0.46 2.54,2.29 2.75,6.25 0.46,8.83 -1.21,1.29 -2.88,2.04 -4.67,2.04zm-483.69 3.17l0 0c-1.75,0 -3.42,-0.75 -4.62,-2 -2.33,-2.55 -2.17,-6.5 0.37,-8.84 2.46,-2.25 6.58,-2.08 8.83,0.34 1.12,1.25 1.71,2.82 1.67,4.49 -0.08,1.67 -0.79,3.21 -2.04,4.34 -1.12,1.08 -2.63,1.67 -4.21,1.67zm468.61 12.54c-1.71,0 -3.29,-0.67 -4.46,-1.88 -1.17,-1.21 -1.8,-2.79 -1.8,-4.46 0.04,-1.66 0.71,-3.24 1.92,-4.41 2.37,-2.29 6.5,-2.25 8.83,0.13 2.37,2.5 2.33,6.45 -0.13,8.83 -1.16,1.16 -2.71,1.79 -4.37,1.79zm-453.31 2.96c-1.63,0 -3.17,-0.63 -4.34,-1.71 0,-0.04 -0.04,-0.09 -0.08,-0.12 -1.13,-1.12 -1.79,-2.63 -1.84,-4.25 -0.04,-1.67 0.54,-3.26 1.71,-4.46 2.25,-2.42 6.42,-2.54 8.84,-0.25 1.2,1.17 1.91,2.71 1.95,4.38 0.04,1.67 -0.58,3.25 -1.75,4.46 -1.16,1.25 -2.79,1.96 -4.5,1.96zm437.22 11.71c-1.83,0 -3.55,-0.84 -4.75,-2.21 -1.09,-1.25 -1.59,-2.88 -1.46,-4.55 0.13,-1.66 0.88,-3.17 2.17,-4.25 2.5,-2.16 6.66,-1.83 8.79,0.67 2.25,2.63 1.91,6.59 -0.67,8.84 -1.17,0.96 -2.58,1.5 -4.08,1.5zm-420.97 2.75c-1.46,0 -2.87,-0.5 -3.96,-1.46 -2.67,-2.21 -3.04,-6.13 -0.83,-8.8 2.12,-2.55 6.25,-2.92 8.8,-0.84 2.67,2.21 3.04,6.17 0.83,8.84 -1.2,1.42 -2.96,2.25 -4.83,2.25zm403.96 10.79c-1.95,0 -3.83,-0.92 -5.04,-2.5 -0.96,-1.33 -1.38,-3 -1.17,-4.67 0.25,-1.62 1.12,-3.08 2.46,-4.08 2.67,-1.96 6.79,-1.37 8.75,1.29 2.05,2.75 1.5,6.66 -1.29,8.75 -1.09,0.8 -2.38,1.21 -3.72,1.21zm-386.74 2.55c-1.29,0 -2.59,-0.41 -3.63,-1.16 -1.37,-1.01 -2.25,-2.42 -2.54,-4.08 -0.25,-1.67 0.12,-3.3 1.12,-4.67 1.96,-2.67 6,-3.33 8.71,-1.38 1.37,0.96 2.25,2.42 2.5,4.05 0.29,1.67 -0.13,3.33 -1.09,4.67 -1.16,1.62 -3.08,2.58 -5.09,2.58zm368.86 9.88c-2.16,0 -4.12,-1.09 -5.25,-2.88 -0.92,-1.42 -1.21,-3.08 -0.88,-4.7 0.37,-1.63 1.33,-3.04 2.71,-3.91 2.84,-1.84 6.83,-0.96 8.67,1.82 1.83,2.92 1.04,6.79 -1.88,8.68 -1,0.62 -2.16,1 -3.38,1zm-350.77 2.29c-1.21,0 -2.33,-0.29 -3.34,-0.91 -2.92,-1.88 -3.8,-5.72 -1.96,-8.64 1.75,-2.83 5.75,-3.74 8.63,-2 2.91,1.84 3.79,5.71 1.95,8.63 -1.16,1.84 -3.12,2.92 -5.29,2.92zm332.1 8.88c-2.29,0 -4.38,-1.21 -5.46,-3.21 -1.67,-3 -0.59,-6.83 2.42,-8.5 2.91,-1.63 6.87,-0.46 8.5,2.42 0.84,1.46 1,3.17 0.54,4.79 -0.46,1.59 -1.5,2.91 -2.96,3.71 -0.96,0.54 -2,0.8 -3.04,0.8zm-313.27 2.08c-1.03,0 -2.08,-0.25 -2.95,-0.75 -3.04,-1.63 -4.21,-5.42 -2.55,-8.46 1.54,-2.91 5.5,-4.13 8.46,-2.55 1.46,0.8 2.55,2.09 3,3.72 0.5,1.59 0.34,3.29 -0.46,4.75 -1.08,2.04 -3.21,3.29 -5.51,3.29zm293.88 7.84c-2.37,0 -4.63,-1.41 -5.62,-3.58 -0.71,-1.5 -0.79,-3.21 -0.25,-4.8 0.59,-1.58 1.71,-2.83 3.25,-3.54 3,-1.42 6.88,0 8.29,3 1.46,3.12 0.13,6.87 -3,8.33 0,0 -0.04,0 -0.08,0.04 -0.79,0.37 -1.67,0.54 -2.59,0.54zm-274.38 1.83c-0.87,0 -1.74,-0.16 -2.58,-0.54 -1.5,-0.71 -2.67,-1.96 -3.25,-3.55 -0.58,-1.54 -0.54,-3.25 0.17,-4.75 1.37,-3.04 5.21,-4.46 8.25,-3.09 3.17,1.42 4.55,5.13 3.12,8.26 -1,2.25 -3.25,3.66 -5.71,3.66zm254.41 6.76l0 0c-2.59,0 -4.87,-1.54 -5.79,-3.96 -0.63,-1.54 -0.59,-3.26 0.08,-4.8 0.67,-1.5 1.88,-2.7 3.46,-3.29 3.12,-1.25 6.83,0.38 8.08,3.5 1.25,3.25 -0.33,6.88 -3.54,8.13 -0.75,0.29 -1.5,0.42 -2.29,0.42zm-234.28 1.62c-0.75,0 -1.5,-0.12 -2.17,-0.41 -3.25,-1.21 -4.87,-4.83 -3.67,-8.05 1.16,-3.12 4.88,-4.83 8.04,-3.67 1.58,0.59 2.83,1.75 3.5,3.25 0.71,1.54 0.75,3.25 0.17,4.79 -0.92,2.46 -3.29,4.08 -5.88,4.08zm213.77 5.62c-2.75,0 -5.17,-1.75 -5.96,-4.37 -1.04,-3.26 0.79,-6.79 4.04,-7.84 3.42,-1 6.83,0.88 7.87,4.09 0.5,1.59 0.33,3.29 -0.41,4.79 -0.8,1.46 -2.08,2.54 -3.67,3.04 -0.63,0.2 -1.25,0.29 -1.88,0.29zm-193.1 1.34c-0.59,0 -1.21,-0.08 -1.8,-0.25 -3.29,-1.01 -5.17,-4.5 -4.17,-7.8 0.96,-3.21 4.54,-5.17 7.75,-4.21 1.62,0.5 2.92,1.58 3.71,3.04 0.79,1.46 0.96,3.17 0.5,4.75 -0.79,2.67 -3.21,4.46 -6,4.46zm172.13 4.54c-2.91,0 -5.42,-1.96 -6.09,-4.79 -0.41,-1.63 -0.12,-3.3 0.75,-4.72 0.84,-1.42 2.21,-2.42 3.84,-2.83 3.29,-0.79 6.75,1.29 7.54,4.59 0.84,3.37 -1.2,6.75 -4.59,7.58 -0.46,0.12 -0.95,0.16 -1.46,0.16zm-151.09 1.05c-0.41,0 -0.83,-0.05 -1.25,-0.13 -0.04,-0.05 -0.08,-0.05 -0.12,-0.05 -3.38,-0.75 -5.46,-4.12 -4.71,-7.5 0.75,-3.29 4.17,-5.42 7.5,-4.71 3.34,0.8 5.46,4.17 4.67,7.51 -0.63,2.88 -3.12,4.88 -6.09,4.88zm129.75 3.42c-3.04,0 -5.62,-2.21 -6.17,-5.21 -0.59,-3.38 1.71,-6.63 5.12,-7.21 0.04,-0.04 0.08,-0.04 0.16,-0.04 3.38,-0.5 6.46,1.83 7.05,5.12 0.58,3.42 -1.71,6.63 -5.09,7.21 -0.33,0.09 -0.71,0.13 -1.08,0.13zm-108.37 0.71c-0.33,0 -0.66,0 -1,-0.08 -3.38,-0.55 -5.72,-3.76 -5.17,-7.14 0.54,-3.37 3.67,-5.75 7.17,-5.2 3.38,0.54 5.71,3.74 5.17,7.17 -0.5,3.04 -3.08,5.25 -6.17,5.25zm86.82 2.29c-3.21,0 -5.87,-2.42 -6.21,-5.58 -0.17,-1.67 0.29,-3.29 1.33,-4.63 1.05,-1.29 2.55,-2.08 4.21,-2.29 3.46,-0.29 6.5,2.16 6.88,5.58 0.37,3.42 -2.12,6.5 -5.54,6.88 -0.25,0.03 -0.46,0.03 -0.67,0.03zm-65.23 0.42l-0.58 0c-1.63,-0.17 -3.17,-0.96 -4.21,-2.25 -1.08,-1.29 -1.58,-2.87 -1.42,-4.54 0.29,-3.46 3.25,-5.96 6.8,-5.67 1.66,0.16 3.16,0.95 4.25,2.21 1.04,1.29 1.54,2.91 1.37,4.58 -0.29,3.25 -2.96,5.67 -6.21,5.67zm43.51 1.16c-3.38,0 -6.12,-2.67 -6.25,-6.04 -0.04,-1.67 0.54,-3.25 1.67,-4.46 1.12,-1.25 2.67,-1.96 4.34,-2 3.63,0 6.38,2.62 6.5,6 0.05,1.67 -0.54,3.25 -1.67,4.46 -1.12,1.25 -2.67,1.96 -4.34,2.04l-0.25 0zm-21.75 0.12l-0.12 0c-1.71,-0.03 -3.29,-0.75 -4.42,-1.96 -1.16,-1.2 -1.75,-2.78 -1.7,-4.45 0.08,-3.42 2.79,-6.09 6.21,-6.09 1.88,0.03 3.42,0.75 4.59,1.95 1.12,1.21 1.75,2.79 1.71,4.46 -0.13,3.42 -2.84,6.09 -6.25,6.09z"/>
  <path class="fil1" d="M196.04 918.17c0.07,14.53 -5.18,26.87 -15.73,36.99l2.82 4.58 -2.69 1.62 -3.1 0.01 2.79 -1.62 -2.92 -4.58c10.55,-10.12 15.8,-22.45 15.73,-36.99 -0.04,-8.93 -2.25,-17.25 -6.62,-24.98 -4.24,-7.51 -10,-13.56 -17.29,-18.13l3 -0.01c7.29,4.64 13.09,10.68 17.39,18.12 4.37,7.72 6.58,16.05 6.62,24.98zm-50.45 -28.27c-7.87,0.5 -14.56,3.67 -20.06,9.5 -5.51,5.83 -8.24,12.71 -8.21,20.64 0.05,10 4.15,18.03 12.32,24.06 4.41,2.51 9.05,3.89 13.92,4.13l-1.6 0.01c-5.53,0.02 -10.64,-1.36 -15.32,-4.13 -4.41,-2.65 -7.95,-6.23 -10.61,-10.75 -2.65,-4.52 -3.99,-9.46 -4.01,-14.79 -0.04,-8.27 2.84,-15.35 8.65,-21.25 5.8,-5.89 12.81,-8.86 21.01,-8.9 0.4,0 1.7,0.48 3.91,1.48zm33.04 28.35c-0.05,-10.13 -3.68,-18.77 -10.92,-25.91 -7.23,-7.14 -15.91,-10.68 -26.05,-10.63 -10.08,0.04 -18.69,3.67 -25.86,10.87 -7.16,7.2 -10.73,15.87 -10.68,26 0.05,10.08 3.69,18.68 10.93,25.81 7.23,7.14 15.89,10.69 25.96,10.64 5.67,-0.03 10.96,-1.25 15.89,-3.68l-5.44 -8.78 6.38 -4.03 5.54 8.88c4.45,-3.49 7.95,-7.79 10.49,-12.9 2.55,-5.11 3.8,-10.54 3.77,-16.28zm7.61 -0.03c0.03,7.14 -1.55,13.81 -4.76,20.03 -3.21,6.21 -7.57,11.4 -13.08,15.56l5.95 9.58 -6.38 3.93 -5.94 -9.57c-6.2,3.22 -12.85,4.86 -19.99,4.9 -12.14,0.05 -22.56,-4.23 -31.27,-12.87 -8.71,-8.62 -13.09,-19.01 -13.15,-31.14 -0.06,-12.21 4.23,-22.68 12.86,-31.42 8.62,-8.74 19.01,-13.14 31.14,-13.2 12.21,-0.06 22.69,4.25 31.43,12.91 8.74,8.66 13.14,19.09 13.2,31.3z"/>
  <path class="fil1" d="M282.3 926.27c0.03,7 -1.67,13.65 -5.11,19.93 -3.38,6.02 -7.92,10.94 -13.64,14.77l-3.1 0.01c5.79,-3.76 10.38,-8.72 13.79,-14.87 3.4,-6.15 5.09,-12.76 5.06,-19.83l-0.25 -51.72 3 -0.01 0.25 51.72zm-42.82 20.31l-1.5 0.01c-5.54,0.03 -10.3,-1.91 -14.33,-5.83 -4.01,-3.92 -6.04,-8.65 -6.07,-14.18l-0.25 -51.72 8.4 -0.04 -5.06 51.75c0.02,5.19 1.86,9.73 5.52,13.58 3.65,3.85 8.08,6 13.28,6.44zm32.92 -20.26c0.04,9.47 -3.31,17.61 -10.05,24.41 -6.73,6.8 -14.84,10.22 -24.3,10.27 -9.53,0.03 -17.7,-3.3 -24.5,-10.04 -6.8,-6.74 -10.22,-14.84 -10.27,-24.32l-0.24 -51.71 7.6 -0.04 0.25 51.72c0.03,7.4 2.7,13.73 7.99,19.01 5.3,5.28 11.68,7.9 19.14,7.86 7.34,-0.03 13.66,-2.71 18.97,-8.04 5.31,-5.33 7.96,-11.69 7.92,-19.09l-0.25 -51.72 7.51 -0.04 0.25 51.72z"/>
  <path class="fil1" d="M358.19 960.52l-3 0.02 -32.82 -86.08 3.1 -0.01 32.72 86.07zm-40.1 -38.92l-10.03 15.85 -3 0.02 9.38 -25.65 3.65 9.78zm-17.63 37.19l-0.8 2.01 -3 0.01 0.8 -2.01 3 -0.01zm33.24 -14.56l-19.35 -52.03 -18.96 52.21 38.31 -0.18zm14.18 16.23l-8 0.04 -3.25 -8.79 -44.02 0.2 -3.16 8.82 -8.1 0.03 32.88 -90.68 33.64 90.37z"/>
  <path class="fil1" d="M410.71 960.28l-3.1 0.01 -0.07 -14.51 3.1 -0.01 0.07 14.51zm-25.32 -86.21l-2.66 71.84 -3.1 0.01 -0.34 -71.82 6.1 -0.03zm16.11 86.15l-36.11 0.18 -0.4 -86.24 7.5 -0.04 0.37 78.73 28.61 -0.13 0.03 7.5z"/>
  <path class="fil1" d="M438.01 873.72l-2.59 86.34 -3.11 0.02 -0.4 -86.33 6.1 -0.03zm-12.6 86.4l-7.51 0.03 -0.4 -86.32 7.5 -0.03 0.41 86.33z"/>
  <path class="fil1" d="M511.69 887.87l-3.1 0.01 -0.07 -14.4 3.1 -0.01 0.07 14.4zm-8.2 0.04l-15.87 7.97 0.3 63.92 -3.09 0.02 -0.34 -71.83 19 -0.08zm-40.39 3.29l-17.8 0.08 -0.02 -3.1 17.8 -0.08 0.02 3.1zm39.36 -10.19l-24.81 0.12 0.37 78.72 -7.51 0.04 -0.37 -78.73 -24.9 0.12 -0.04 -7.51 57.22 -0.27 0.03 7.51z"/>
  <path class="fil1" d="M610.66 873l-47.11 86.56 -2.98 0.03 47.11 -86.55 2.98 -0.03zm-43.48 29.92l-0.99 2.11 -28.26 -31.68 8.31 -0.03 20.94 29.61zm32.57 -29.87l-46.81 86.56 -8.69 0.04 19.25 -35.8 -44.67 -50.42 10.12 -0.05 38.49 43.45 23.69 -43.74 8.62 -0.05z"/>
  <path class="fil1" d="M196.04 918.17c0.07,14.53 -5.18,26.87 -15.73,36.99l2.82 4.58 -2.69 1.62 -3.1 0.01 2.79 -1.62 -2.92 -4.58c10.55,-10.12 15.8,-22.45 15.73,-36.99 -0.04,-8.93 -2.25,-17.25 -6.62,-24.98 -4.24,-7.51 -10,-13.56 -17.29,-18.13l3 -0.01c7.29,4.64 13.09,10.68 17.39,18.12 4.37,7.72 6.58,16.05 6.62,24.98zm-50.45 -28.27c-7.87,0.5 -14.56,3.67 -20.06,9.5 -5.51,5.83 -8.24,12.71 -8.21,20.64 0.05,10 4.15,18.03 12.32,24.06 4.41,2.51 9.05,3.89 13.92,4.13l-1.6 0.01c-5.53,0.02 -10.64,-1.36 -15.32,-4.13 -4.41,-2.65 -7.95,-6.23 -10.61,-10.75 -2.65,-4.52 -3.99,-9.46 -4.01,-14.79 -0.04,-8.27 2.84,-15.35 8.65,-21.25 5.8,-5.89 12.81,-8.86 21.01,-8.9 0.4,0 1.7,0.48 3.91,1.48zm33.04 28.35c-0.05,-10.13 -3.68,-18.77 -10.92,-25.91 -7.23,-7.14 -15.91,-10.68 -26.05,-10.63 -10.08,0.04 -18.69,3.67 -25.86,10.87 -7.16,7.2 -10.73,15.87 -10.68,26 0.05,10.08 3.69,18.68 10.93,25.81 7.23,7.14 15.89,10.69 25.96,10.64 5.67,-0.03 10.96,-1.25 15.89,-3.68l-5.44 -8.78 6.38 -4.03 5.54 8.88c4.45,-3.49 7.95,-7.79 10.49,-12.9 2.55,-5.11 3.8,-10.54 3.77,-16.28zm7.61 -0.03c0.03,7.14 -1.55,13.81 -4.76,20.03 -3.21,6.21 -7.57,11.4 -13.08,15.56l5.95 9.58 -6.38 3.93 -5.94 -9.57c-6.2,3.22 -12.85,4.86 -19.99,4.9 -12.14,0.05 -22.56,-4.23 -31.27,-12.87 -8.71,-8.62 -13.09,-19.01 -13.15,-31.14 -0.06,-12.21 4.23,-22.68 12.86,-31.42 8.62,-8.74 19.01,-13.14 31.14,-13.2 12.21,-0.06 22.69,4.25 31.43,12.91 8.74,8.66 13.14,19.09 13.2,31.3z"/>
  <path class="fil1" d="M282.3 926.27c0.03,7 -1.67,13.65 -5.11,19.93 -3.38,6.02 -7.92,10.94 -13.64,14.77l-3.1 0.01c5.79,-3.76 10.38,-8.72 13.79,-14.87 3.4,-6.15 5.09,-12.76 5.06,-19.83l-0.25 -51.72 3 -0.01 0.25 51.72zm-42.82 20.31l-1.5 0.01c-5.54,0.03 -10.3,-1.91 -14.33,-5.83 -4.01,-3.92 -6.04,-8.65 -6.07,-14.18l-0.25 -51.72 8.4 -0.04 -5.06 51.75c0.02,5.19 1.86,9.73 5.52,13.58 3.65,3.85 8.08,6 13.28,6.44zm32.92 -20.26c0.04,9.47 -3.31,17.61 -10.05,24.41 -6.73,6.8 -14.84,10.22 -24.3,10.27 -9.53,0.03 -17.7,-3.3 -24.5,-10.04 -6.8,-6.74 -10.22,-14.84 -10.27,-24.32l-0.24 -51.71 7.6 -0.04 0.25 51.72c0.03,7.4 2.7,13.73 7.99,19.01 5.3,5.28 11.68,7.9 19.14,7.86 7.34,-0.03 13.66,-2.71 18.97,-8.04 5.31,-5.33 7.96,-11.69 7.92,-19.09l-0.25 -51.72 7.51 -0.04 0.25 51.72z"/>
  <path class="fil1" d="M358.19 960.52l-3 0.02 -32.82 -86.08 3.1 -0.01 32.72 86.07zm-40.1 -38.92l-10.03 15.85 -3 0.02 9.38 -25.65 3.65 9.78zm-17.63 37.19l-0.8 2.01 -3 0.01 0.8 -2.01 3 -0.01zm33.24 -14.56l-19.35 -52.03 -18.96 52.21 38.31 -0.18zm14.18 16.23l-8 0.04 -3.25 -8.79 -44.02 0.2 -3.16 8.82 -8.1 0.03 32.88 -90.68 33.64 90.37z"/>
  <path class="fil1" d="M410.71 960.28l-3.1 0.01 -0.07 -14.51 3.1 -0.01 0.07 14.51zm-25.32 -86.21l-2.66 71.84 -3.1 0.01 -0.34 -71.82 6.1 -0.03zm16.11 86.15l-36.11 0.18 -0.4 -86.24 7.5 -0.04 0.37 78.73 28.61 -0.13 0.03 7.5z"/>
  <path class="fil1" d="M438.01 873.72l-2.59 86.34 -3.11 0.02 -0.4 -86.33 6.1 -0.03zm-12.6 86.4l-7.51 0.03 -0.4 -86.32 7.5 -0.03 0.41 86.33z"/>
  <path class="fil1" d="M511.69 887.87l-3.1 0.01 -0.07 -14.4 3.1 -0.01 0.07 14.4zm-8.2 0.04l-15.87 7.97 0.3 63.92 -3.09 0.02 -0.34 -71.83 19 -0.08zm-40.39 3.29l-17.8 0.08 -0.02 -3.1 17.8 -0.08 0.02 3.1zm39.36 -10.19l-24.81 0.12 0.37 78.72 -7.51 0.04 -0.37 -78.73 -24.9 0.12 -0.04 -7.51 57.22 -0.27 0.03 7.51z"/>
  <path class="fil1" d="M610.66 873l-47.11 86.56 -2.98 0.03 47.11 -86.55 2.98 -0.03zm-43.48 29.92l-0.99 2.11 -28.26 -31.68 8.31 -0.03 20.94 29.61zm32.57 -29.87l-46.81 86.56 -8.69 0.04 19.25 -35.8 -44.67 -50.42 10.12 -0.05 38.49 43.45 23.69 -43.74 8.62 -0.05z"/>
  <path class="fil1" d="M330.88 775.33c-4.67,-2.46 -9.21,-3.68 -13.63,-3.65 -5.02,0.02 -9.79,1.62 -14.32,4.78 -4.28,3.05 -6.41,7.6 -6.38,13.64 0.01,2.42 0.47,4.51 1.39,6.27 1.59,2.96 4.43,4.43 8.55,4.41 2,-0.01 3.63,-0.44 4.89,-1.3 3.02,-2.13 4.52,-4.99 4.5,-8.55 0,-1.33 -0.34,-2.61 -1.01,-3.85 -0.68,-1.24 -0.74,-2.34 -0.2,-3.31 0.48,-0.91 1.29,-1.37 2.45,-1.37 1.51,-0.01 2.75,0.87 3.73,2.62 0.49,0.85 0.73,1.93 0.74,3.26 0.02,4.42 -1.59,8.45 -4.85,12.09 -3.01,3.46 -6.63,5.21 -10.86,5.23 -3.21,0.01 -6.18,-1.12 -8.91,-3.4 -3.34,-2.76 -5.03,-6.83 -5.05,-12.21 -0.04,-7.91 3.62,-15 10.98,-21.25 6.03,-5.1 12.73,-7.66 20.11,-7.7 4.48,-0.02 10.02,1.08 16.63,3.32 4.6,1.53 8.54,2.28 11.81,2.26 2.9,-0.01 4.69,-0.71 5.35,-2.11 0.84,-1.88 1.86,-2.82 3.08,-2.82 1.21,-0.01 1.82,1.17 1.83,3.53 0.02,4.47 -1.84,8.32 -5.58,11.55 -3.19,2.74 -6.3,4.11 -9.33,4.12 -3.63,0.02 -8.94,-1.83 -15.92,-5.55zm4.21 6.61c0.91,-0.91 1.93,-1.37 3.08,-1.37 1.52,-0.01 2.28,0.65 2.29,1.98 0,0.91 -0.48,1.94 -1.45,3.09 -1.86,2.25 -3.33,5.52 -4.4,9.82 -0.95,3.63 -2.07,9.82 -3.36,18.54 -1.11,7.76 -4.83,14.15 -11.16,19.21 -5.66,4.51 -12.01,6.99 -19.03,7.44 -6.23,0.39 -11.56,-1.31 -16,-5.1 -4.13,-3.55 -6.09,-7.53 -5.86,-11.95 0.22,-4 1.42,-7.12 3.59,-9.37 1.98,-2.12 4.52,-3.19 7.61,-3.21 1.94,-0.02 3.56,0.6 4.87,1.83 1.31,1.23 1.97,2.83 1.98,4.76 0.01,1.99 -1.29,3.81 -3.88,5.46 -1.81,1.16 -2.71,2.53 -2.7,4.1 0,1.09 0.41,2.21 1.24,3.36 0.83,1.15 2.14,1.71 3.96,1.71 2.55,-0.02 5.29,-1.12 8.24,-3.32 3.5,-2.55 6.69,-6.35 9.57,-11.39 0.84,-1.46 2.85,-5.73 6.03,-12.83 2.81,-6.37 5.43,-11.34 7.83,-14.93 0.41,-0.61 2.94,-3.22 7.58,-7.85z"/>
  <path class="fil1" d="M336.5 811.89c0.18,-0.3 3.28,-3.73 9.3,-10.3 1.39,-1.52 3.64,-4.63 6.77,-9.33 3.12,-4.71 5.64,-8.81 7.57,-12.34 1.37,-2.84 2.75,-5.67 4.14,-8.46 2.28,-4.37 4.08,-6.56 5.41,-6.56 2.18,-0.01 4.22,3.1 6.13,9.32 0.06,0.18 0.09,0.43 0.09,0.73 0.01,1.33 -1.19,4.27 -3.59,8.82 -3.48,6.68 -5.88,11.53 -7.2,14.56 9.41,-6.1 16.03,-9.16 19.83,-9.18 1.28,-0 2.34,0.45 3.19,1.35 0.85,0.91 1.28,2.02 1.28,3.35 0,0.91 -0.16,1.94 -0.53,3.08 -0.42,1.34 -3.27,6.82 -8.55,16.48 -0.42,0.79 -0.63,1.49 -0.62,2.09 0.01,0.97 0.64,1.44 1.91,1.44 1.09,0 1.97,-0.27 2.63,-0.82 1.92,-1.59 3.65,-3.32 5.15,-5.2 1.02,-1.28 1.9,-1.91 2.62,-1.92 1.21,0 1.82,0.57 1.82,1.72 0.01,0.42 -0.24,0.97 -0.72,1.63 -0.48,0.67 -0.75,1.09 -0.81,1.28 -0.12,0.6 -3.19,3.62 -9.21,9.03 -2.17,1.95 -4.61,3.74 -7.33,5.39 -2.95,1.83 -5.12,2.75 -6.52,2.76 -0.3,0 -0.58,-0.06 -0.82,-0.18 -3.52,-1.92 -5.28,-3.97 -5.3,-6.15 -0.01,-1.51 0.68,-3.88 2.05,-7.09 1.74,-3.94 2.6,-6.82 2.6,-8.64 -0.01,-0.85 -0.28,-1.27 -0.83,-1.27 -1.21,0.01 -3.77,2.59 -7.68,7.75 -4.63,6.14 -8.36,10.3 -11.2,12.49 -0.18,0.12 -1.81,0.95 -4.89,2.47 -0.49,0.25 -0.94,0.37 -1.36,0.37 -1.39,0.01 -2.49,-1.08 -3.29,-3.25 -0.31,-0.78 1.52,-4.87 5.48,-12.28 5.58,-10.37 8.69,-16.25 9.36,-17.65 -1.15,1.94 -3.73,5.4 -7.76,10.39 -3.43,4.19 -5.57,6.71 -6.41,7.56 -0.36,0.36 -0.72,0.54 -1.08,0.55 -0.97,0 -1.64,-0.42 -2,-1.26 -0.37,-0.91 -0.26,-1.81 0.34,-2.73z"/>
  <path class="fil1" d="M411.1 808.81c0.97,-0 3.02,-1.67 6.15,-5.02 1.87,-2 2.8,-4.1 2.78,-6.28 -0,-0.97 -0.37,-1.45 -1.09,-1.44 -1.15,0 -3.2,1.98 -6.15,5.93 -2.05,2.49 -3.07,4.37 -3.06,5.64 0,0.78 0.46,1.18 1.37,1.17zm-6.13 9.2c-0.28,3.34 0.94,5.02 3.66,5.07 1.69,0.05 3.84,-0.68 6.44,-2.21 2.35,-1.46 4.41,-3.11 6.15,-4.93 2.29,-2.49 3.84,-4 4.65,-4.52 0.81,-0.52 1.31,-0.78 1.49,-0.78 0.49,-0.01 1.09,0.24 1.82,0.72 0.31,0.25 0.46,0.54 0.46,0.9 0.01,1.33 -2.09,3.98 -6.31,7.93 -7.77,7.24 -14.9,10.88 -21.37,10.91 -2,0.01 -3.76,-0.42 -5.27,-1.25 -2.06,-1.15 -3.68,-2.91 -4.84,-5.34 -0.98,-1.99 -1.35,-3.68 -1.11,-5.09 0.24,-1.5 0.41,-2.5 0.53,-2.99 0.36,-0.97 1.02,-1.85 1.98,-2.64 -1.56,1.58 -2.67,2.37 -3.35,2.37 -0.54,0.01 -1.04,-0.26 -1.5,-0.81 -0.46,-0.55 -0.69,-1.08 -0.69,-1.63 -0.01,-0.72 0.6,-1.51 1.81,-2.36 0.66,-0.49 2.66,-2.74 6,-6.75 3.35,-4.01 6.76,-7.33 10.26,-9.94 4.94,-3.77 9.35,-5.67 13.22,-5.69 2.55,-0.02 4.58,0.73 6.09,2.24 1.7,1.69 2.56,3.5 2.57,5.44 0.02,2.9 -1.78,6.3 -5.39,10.19 -5,5.35 -10.77,9.07 -17.29,11.16z"/>
  <path class="fil1" d="M378.49 1122.98c4.45,0 7.25,-2.42 7.25,-8.77l0 -48.06c0,-6.35 -2.8,-8.77 -7.25,-8.77 -4.45,0 -7.24,2.42 -7.24,8.77l0 48.06c0,6.35 2.8,8.77 7.24,8.77z"/>
  <path class="fil1" d="M322.46 1162.72c-0.02,-5.14 -2.2,-8.17 -8.97,-8.13l-6.83 0.03 0.08 16.35 6.42 -0.03c5.89,-0.02 9.33,-2.67 9.3,-8.21z"/>
  <path class="fil1" d="M409.09 1070.82c1.4,0 2.29,-0.82 2.29,-2.8l0 -15.26c0,-1.97 -0.9,-2.79 -2.29,-2.79 -1.46,0 -2.29,0.82 -2.29,2.79l0 15.26c0,1.98 0.82,2.8 2.29,2.8z"/>
  <path class="fil1" d="M331.32 1122.98c4.45,0 7.25,-2.42 7.25,-8.77l0 -48.06c0,-6.35 -2.8,-8.77 -7.25,-8.77 -4.45,0 -7.24,2.42 -7.24,8.77l0 48.06c0,6.35 2.8,8.77 7.24,8.77z"/>
  <polygon class="fil1" points="343.37,1154.22 337.05,1177.73 350.01,1177.66 343.48,1154.22 "/>
  <polygon class="fil1" points="285.01,1154.5 278.71,1178 291.66,1177.93 285.13,1154.5 "/>
  <path class="fil1" d="M472.2 1083.11l120.81 0 0 5.34 -120.81 0 0 -5.34zm79.26 22.16l-79.26 0 0 -5.34 79.26 0 0 5.34zm-70.91 87.07l-10.04 0.05 -0.19 -41.69 10.04 -0.04c12.15,-0.06 15.15,7.17 15.22,20.77 0.06,13.61 -2.88,20.86 -15.02,20.92zm-35.95 0.17l-0.19 -41.69 20.67 -0.1 0.02 3.15 -16.94 0.08 0.07 15.18 15.82 -0.08 0.01 3.15 -15.82 0.08 0.08 17.05 17.46 -0.08 0.02 3.15 -21.2 0.1zm-25.91 0.12l-0.19 -41.69 20.67 -0.09 0.01 3.15 -16.93 0.07 0.07 15.18 15.82 -0.07 0.01 3.15 -15.82 0.07 0.08 17.05 17.46 -0.08 0.01 3.15 -21.19 0.09zm-14.35 0.06l-3.73 0.02 -0.19 -38.53 -10.74 0.05 -0.01 -3.15 25.22 -0.12 0.01 3.15 -10.75 0.05 0.19 38.53zm-23.1 0.11l-16.11 -36.24 -0.12 0 0.17 36.31 -3.74 0.02 -0.2 -41.69 5.03 -0.03 16.11 36.25 0.12 0 -0.17 -36.31 3.74 -0.02 0.19 41.69 -5.02 0.02zm-26.95 0.12l-3.45 -12.12 -14.59 0.07 -3.34 12.16 -3.97 0.02 12.12 -41.74 4.67 -0.03 12.51 41.64 -3.97 0.01zm-30.87 0.15c-0.88,-1.46 -1.06,-3.56 -1.14,-5.83l-0.13 -3.5c-0.33,-7.35 -1.57,-9.68 -8.34,-9.65l-7.07 0.03 0.09 19.03 -3.74 0.02 -0.2 -41.69 12.44 -0.06c7.01,-0.03 10.82,3.86 10.85,10.4 0.02,5.02 -1.94,9.52 -7.48,10.6l0 0.12c5.2,0.45 6.96,3.35 7.17,9.83l0.13 4.56c0.07,2.27 0.32,4.49 1.78,6.13l-4.38 0.01zm-27.49 0.13l-3.44 -12.13 -14.59 0.06 -3.33 12.16 -3.97 0.01 12.12 -41.74 4.67 -0.02 12.52 41.62 -3.97 0.02zm-39.85 0.88c-7.71,0.03 -11.93,-3.5 -11.97,-12.32l-0.13 -30 3.73 -0.02 0.14 29.94c0.03,6.19 2.78,9.27 8.21,9.24 5.43,-0.02 8.15,-3.13 8.13,-9.32l-0.14 -29.96 3.74 -0.01 0.13 30.01c0.04,8.82 -4.14,12.39 -11.85,12.43zm-20.42 -0.6l-0.03 -6.89 -0.11 0c-1.32,4.68 -4.93,7.61 -9.13,7.63 -8.59,0.05 -13.35,-6.53 -13.42,-21.48 -0.07,-14.95 4.63,-21.57 13.21,-21.61 7.93,-0.03 11.52,5.14 12.02,12.32l-3.74 0.02c-0.02,-5.03 -2.84,-9.21 -8.27,-9.19 -5.9,0.02 -9.55,4.89 -9.49,18.44 0.06,13.54 3.77,18.37 9.67,18.35 5.61,-0.03 8.67,-5.01 8.63,-14.82l-0.01 -0.87 -9.86 0.04 -0.02 -3.15 13.37 -0.06 0.1 21.25 -2.92 0.01zm-78.59 -93.56l79.26 0 0 5.34 -79.26 0 0 -5.34zm-41.54 -16.83l120.8 0 0 5.34 -120.8 0 0 -5.34zm41.54 -16.83l79.26 0 0 5.34 -79.26 0 0 -5.34zm121.98 -9.4c10.81,0 13.22,-5.21 15.39,-11.19l9.4 0 0 88.99 -13.98 0 0 -67.89 -10.81 0 0 -9.92zm31.03 10.17c0,-14.24 7.51,-22.37 21.23,-22.37 13.73,0 21.23,8.14 21.23,22.37l0 46.28c0,14.24 -7.5,22.37 -21.23,22.37 -13.73,0 -21.23,-8.14 -21.23,-22.37l0 -46.28zm47.17 0c0,-14.24 7.51,-22.37 21.23,-22.37 13.73,0 21.23,8.14 21.23,22.37l0 46.28c0,14.24 -7.5,22.37 -21.23,22.37 -13.73,0 -21.23,-8.14 -21.23,-22.37l0 -46.28zm45.09 -13.96c0,-4.58 2.35,-7.13 6.74,-7.13 4.39,0 6.75,2.54 6.75,7.13l0 14.63c0,4.58 -2.35,7.12 -6.75,7.12 -4.39,0 -6.74,-2.54 -6.74,-7.12l0 -14.63zm28.43 -6.81l-17.55 44.52 -4.14 0 17.55 -44.52 4.14 0zm7.13 23.09l0 14.63c0,4.58 -2.36,7.13 -6.75,7.13 -4.39,0 -6.74,-2.54 -6.74,-7.13l0 -14.63c0,-4.58 2.35,-7.13 6.74,-7.13 4.39,0 6.75,2.55 6.75,7.13zm34.3 -3.08l79.26 0 0 5.34 -79.26 0 0 -5.34zm-396.5 -45.21c21.6,129.13 138.06,227.79 278.58,227.79 140.5,0 256.99,-98.66 278.58,-227.79l-557.16 0z"/>
  <path class="fil1" d="M480.14 1153.81l-6.07 0.02 0.17 35.39 6.07 -0.03c8.17,-0.04 11.6,-4.14 11.54,-17.69 -0.06,-13.72 -3.53,-17.73 -11.7,-17.69z"/>
  <path class="fil1" d="M431.16 1087.11c1.4,0 2.29,-0.83 2.29,-2.8l0 -15.27c0,-1.97 -0.9,-2.79 -2.29,-2.79 -1.46,0 -2.29,0.82 -2.29,2.79l0 15.27c0,1.97 0.82,2.8 2.29,2.8z"/>
  <path class="fil0" d="M354.85 558.16l-5.44 0.06 0 -531.39c-5.37,-1.95 -9.14,-7.1 -9.14,-12.98 0,-7.64 6.22,-13.86 13.86,-13.86 7.64,0 13.86,6.22 13.86,13.86 0,5.88 -3.77,11.03 -9.14,12.98l0 531.39 -4.01 -0.06z"/>
  <path class="fil0" d="M354.13 1928.79c-7.64,0 -13.86,-6.22 -13.86,-13.86 0,-5.88 3.77,-11.03 9.14,-12.98l0 -531.35 4.87 0.04 1.26 -0.03 3.32 0 0 531.34c5.37,1.95 9.14,7.1 9.14,12.99 0,7.64 -6.22,13.86 -13.86,13.86z"/>
  <path class="fil0" d="M609.97 649.02l-4.03 -3.19 0 -362.47c-5.37,-1.95 -9.14,-7.1 -9.14,-12.98 0,-7.64 6.22,-13.86 13.86,-13.86 7.64,0 13.86,6.22 13.86,13.86 0,5.88 -3.77,11.03 -9.14,12.98l0 370.05 -5.41 -4.38z"/>
  <path class="fil0" d="M610.66 1672.28c-7.64,0 -13.86,-6.22 -13.86,-13.86 0,-5.88 3.77,-11.03 9.14,-12.98l0 -362.47 4.03 -3.19 5.41 -4.38 0 370.05c5.37,1.94 9.15,7.1 9.15,12.98 0,7.64 -6.22,13.86 -13.86,13.86z"/>
  <path class="fil0" d="M440.35 567.41l-2.78 -0.64 -2.65 -0.55 0 -430.04c-5.37,-1.95 -9.15,-7.1 -9.15,-12.98 0,-7.65 6.22,-13.87 13.86,-13.87 7.64,0 13.86,6.22 13.86,13.87 0,5.88 -3.77,11.03 -9.14,12.98l0 432.09 -4.01 -0.85z"/>
  <path class="fil0" d="M439.64 1819.45c-7.64,0 -13.86,-6.22 -13.86,-13.87 0,-5.88 3.77,-11.04 9.15,-12.98l0 -430.02 9.44 -2.08 0 432.11c5.37,1.95 9.14,7.1 9.14,12.98 0,7.65 -6.22,13.87 -13.86,13.87z"/>
  <path class="fil0" d="M511.94 590l-2.8 -1.1 -2.04 -0.86 0 -375.93c-5.36,-1.96 -9.14,-7.1 -9.14,-12.98 0,-7.64 6.22,-13.86 13.86,-13.86 7.64,0 13.86,6.22 13.86,13.86 0,5.88 -3.77,11.03 -9.15,12.98l0 379.83 -4.61 -1.94z"/>
  <path class="fil0" d="M511.83 1743.53c-7.64,0 -13.86,-6.22 -13.86,-13.87 0,-5.88 3.77,-11.03 9.14,-12.98l0 -375.95 4.82 -1.94 4.62 -1.97 0 379.86c5.38,1.95 9.15,7.1 9.15,12.98 0,7.65 -6.22,13.87 -13.86,13.87z"/>
  <path class="fil0" d="M263.91 136.18c-5.37,-1.95 -9.15,-7.1 -9.15,-12.98 0,-7.64 6.22,-13.86 13.86,-13.86 7.64,0 13.86,6.22 13.86,13.86 0,5.88 -3.77,11.03 -9.14,12.98l0 430.09 -9.44 2.09 0 -432.18z"/>
  <path class="fil0" d="M268.63 1819.45c-7.64,0 -13.86,-6.22 -13.86,-13.87 0,-5.88 3.77,-11.04 9.14,-12.98l0 -432.17 6.79 1.52 2.65 0.54 0 430.11c5.37,1.95 9.14,7.1 9.14,12.98 0,7.65 -6.22,13.87 -13.86,13.87z"/>
  <path class="fil0" d="M178.4 212.11c-5.37,-1.95 -9.14,-7.1 -9.14,-12.98 0,-7.64 6.21,-13.86 13.86,-13.86 7.64,0 13.86,6.22 13.86,13.86 0,5.89 -3.77,11.03 -9.15,12.98l0 381.84 -4.72 2.15 -4.72 2.21 0 -386.19z"/>
  <path class="fil0" d="M183.12 1743.53c-7.64,0 -13.86,-6.22 -13.86,-13.87 0,-5.88 3.77,-11.03 9.14,-12.98l0 -386.19 9.44 4.35 0 381.84c5.38,1.95 9.15,7.1 9.15,12.98 0,7.65 -6.22,13.87 -13.86,13.87z"/>
  <path class="fil0" d="M92.89 283.35c-5.37,-1.95 -9.14,-7.1 -9.14,-12.98 0,-7.64 6.21,-13.86 13.86,-13.86 7.64,0 13.86,6.22 13.86,13.86 0,5.88 -3.77,11.03 -9.15,12.98l0 362.7 -4.03 3.19 -5.41 4.38 0 -370.27z"/>
  <path class="fil0" d="M97.61 1672.28c-7.64,0 -13.86,-6.22 -13.86,-13.86 0,-5.88 3.77,-11.03 9.14,-12.98l0 -370.27 5.41 4.38 4.03 3.19 0 362.7c5.38,1.94 9.15,7.1 9.15,12.98 0,7.64 -6.22,13.86 -13.86,13.86z"/>
 </g>
</svg>
